<svg xmlns="http://www.w3.org/2000/svg" width="60" height="60" viewBox="0 0 60 60">
  <path fill="#FC447C" d="M59.2628121,18.6261929 L39.4291531,5.78167336 C39.033176,5.52523828 38.5058316,5.64059868 38.2511828,6.03893414 C37.996534,6.43738754 38.1109092,6.96818693 38.5067691,7.22462201 L58.0505059,19.8813565 L53.4944842,19.8813565 L31.2468766,5.47357381 C30.4894928,4.98311517 29.5106244,4.98323313 28.7531234,5.47357381 L6.5055158,19.8813565 L1.94949415,19.8813565 L29.9989453,1.7148064 L33.9714896,4.28741411 C34.3674667,4.54373123 34.894694,4.42860674 35.1494599,4.03015334 C35.4041087,3.63169993 35.2897336,3.10090054 34.8938737,2.84446546 L30.9213293,0.271857754 C30.3616411,-0.0906192512 29.6384761,-0.0906192512 29.0787878,0.271857754 L0.737187855,18.6261929 C0.133671432,19.0170971 -0.135860174,19.7453539 0.0665229058,20.43846 C0.268905986,21.131566 0.887070866,21.597254 1.60472807,21.597254 L5.90364,21.597254 L5.90364,24.5543964 L5.90364,27.1442256 C5.90364,27.8270695 6.38481251,28.3989174 7.02371961,28.5342122 L7.02371961,30.0441596 C7.02371961,30.8273835 7.65676732,31.4645787 8.43489335,31.4645787 L8.55208101,31.4645787 L8.55208101,41.9758221 C8.55208101,42.449649 8.93364401,42.8337119 9.40438682,42.8337119 C9.87512963,42.8337119 10.2566926,42.449649 10.2566926,41.9758221 L10.2566926,30.606689 C10.2566926,30.132862 9.87512963,29.7487992 9.40438682,29.7487992 L8.72844843,29.7487992 L8.72844843,28.5645268 L14.7651361,28.5645268 L14.7651361,29.7485633 L14.0891977,29.7485633 C13.6184549,29.7485633 13.2368919,30.1326261 13.2368919,30.606453 L13.2368919,49.5614172 C13.2368919,50.0352441 13.6184549,50.4193069 14.0891977,50.4193069 L14.7651361,50.4193069 L14.7651361,51.7067903 L8.72844843,51.7067903 L8.72844843,50.4193069 L9.40438682,50.4193069 C9.87512963,50.4193069 10.2566926,50.0352441 10.2566926,49.5614172 L10.2566926,47.3686259 C10.2566926,46.894799 9.87512963,46.5107362 9.40438682,46.5107362 C8.93364401,46.5107362 8.55208101,46.894799 8.55208101,47.3686259 L8.55208101,48.7035274 L8.43489335,48.7035274 C7.65676732,48.7035274 7.02371961,49.3406046 7.02371961,50.1238286 L7.02371961,51.6337759 C6.38469533,51.7690708 5.90364,52.3409187 5.90364,53.0237626 L5.90364,54.7555841 L2.88441726,54.7555841 C1.94222851,54.7555841 1.17570406,55.5271305 1.17570406,56.4754921 L1.17570406,58.280092 C1.17570406,59.2284536 1.94222851,60 2.88441726,60 L57.1155827,60 C58.0577715,60 58.8242959,59.2284536 58.8242959,58.280092 L58.8242959,56.4754921 C58.8242959,55.5271305 58.0577715,54.7555841 57.1155827,54.7555841 L54.09636,54.7555841 L54.09636,53.0237626 C54.09636,52.3409187 53.6151875,51.7690708 52.9762804,51.6337759 L52.9762804,50.1238286 C52.9762804,49.3406046 52.3432327,48.7035274 51.5651066,48.7035274 L51.447919,48.7035274 L51.447919,31.4643428 L51.5651066,31.4643428 C52.3432327,31.4643428 52.9762804,30.8271476 52.9762804,30.0439236 L52.9762804,28.5339763 C53.6153047,28.3986815 54.09636,27.8268336 54.09636,27.1439897 L54.09636,24.5541605 L54.09636,21.5970181 L58.3952719,21.5970181 C59.1129291,21.5970181 59.731094,21.1313301 59.9334771,20.438224 C60.1358602,19.7453539 59.8663286,19.0169792 59.2628121,18.6261929 Z M29.6753902,6.91652246 C29.872617,6.78877674 30.127383,6.78889469 30.3246098,6.91652246 L50.3441285,19.8814745 L9.65598872,19.8814745 L29.6753902,6.91652246 Z M7.60825163,21.597136 L52.3916312,21.597136 L52.3916312,23.6963886 L43.2624785,23.6963886 L34.9907879,23.6963886 L25.0092121,23.6963886 L16.7375215,23.6963886 L7.60825163,23.6963886 L7.60825163,21.597136 Z M34.7231312,51.6340119 L34.7231312,50.1240645 C34.7231312,49.3408405 34.0900835,48.7037633 33.3119575,48.7037633 L33.1947699,48.7037633 L33.1947699,31.4645787 L33.3119575,31.4645787 C34.0900835,31.4645787 34.7231312,30.8273835 34.7231312,30.0441596 L34.7231312,28.5342122 C35.3621555,28.3989174 35.8432109,27.8270695 35.8432109,27.1442256 L35.8432109,25.4122861 L42.4101727,25.4122861 L42.4101727,27.1442256 C42.4101727,27.8270695 42.8913452,28.3989174 43.5302523,28.5342122 L43.5302523,30.0441596 C43.5302523,30.8273835 44.1633,31.4645787 44.941426,31.4645787 L45.0586137,31.4645787 L45.0586137,48.7037633 L44.941426,48.7037633 C44.1633,48.7037633 43.5302523,49.3408405 43.5302523,50.1240645 L43.5302523,51.6340119 C42.8913452,51.7693067 42.4101727,52.3411546 42.4101727,53.0239985 L42.4101727,54.75582 L35.8432109,54.75582 L35.8432109,53.0239985 C35.8432109,52.3411546 35.3620383,51.7693067 34.7231312,51.6340119 Z M16.4697477,51.6340119 L16.4697477,50.1240645 C16.4697477,49.3408405 15.8367,48.7037633 15.058574,48.7037633 L14.9413863,48.7037633 L14.9413863,31.4645787 L15.058574,31.4645787 C15.8367,31.4645787 16.4697477,30.8273835 16.4697477,30.0441596 L16.4697477,28.5342122 C17.1086548,28.3989174 17.5898273,27.8270695 17.5898273,27.1442256 L17.5898273,25.4122861 L24.1569063,25.4122861 L24.1569063,27.1442256 C24.1569063,27.8270695 24.6380788,28.3989174 25.2769859,28.5342122 L25.2769859,30.0441596 C25.2769859,30.8273835 25.9100337,31.4645787 26.6881597,31.4645787 L26.8053473,31.4645787 L26.8053473,48.7037633 L26.6881597,48.7037633 C25.9100337,48.7037633 25.2769859,49.3408405 25.2769859,50.1240645 L25.2769859,51.6340119 C24.6380788,51.7693067 24.1569063,52.3411546 24.1569063,53.0239985 L24.1569063,54.75582 L17.5898273,54.75582 L17.5898273,53.0239985 C17.5898273,52.3411546 17.1086548,51.7693067 16.4697477,51.6340119 Z M32.342464,50.4193069 L33.0184024,50.4193069 L33.0184024,51.7067903 L26.9817148,51.7067903 L26.9817148,50.4193069 L27.6576532,50.4193069 C28.128396,50.4193069 28.509959,50.0352441 28.509959,49.5614172 L28.509959,30.606571 C28.509959,30.1327441 28.128396,29.7485633 27.6576532,29.7485633 L26.9817148,29.7485633 L26.9817148,28.5645268 L33.0184024,28.5645268 L33.0184024,29.7485633 L32.342464,29.7485633 C31.8717212,29.7485633 31.4901582,30.1326261 31.4901582,30.606453 L31.4901582,49.5614172 C31.4901582,50.0352441 31.8717212,50.4193069 32.342464,50.4193069 Z M26.1292918,26.8487472 L26.1255418,26.8487472 L25.861518,26.8487472 L25.861518,25.4122861 L34.138482,25.4122861 L34.138482,26.8487472 L33.8707082,26.8487472 C33.8701223,26.8487472 33.8694192,26.8488652 33.8688332,26.8488652 C33.8682473,26.8488652 33.8675442,26.8487472 33.8669582,26.8487472 L26.1292918,26.8487472 Z M25.861518,53.3803418 C25.9447212,53.4075895 26.0333151,53.4228058 26.1255418,53.4228058 L33.8668411,53.4228058 C33.9618802,53.4228058 34.0530522,53.40641 34.138482,53.3775109 L34.138482,54.755702 L25.861518,54.755702 L25.861518,53.3803418 L25.861518,53.3803418 Z M7.87614261,26.8487472 L7.60836882,26.8487472 L7.60836882,25.4122861 L15.8853329,25.4122861 L15.8853329,26.8487472 L15.8852157,26.8487472 L15.6174419,26.8487472 L7.87614261,26.8487472 Z M7.60825163,53.3789264 C7.69250956,53.4069998 7.78239249,53.4228058 7.87602542,53.4228058 L15.6174419,53.4228058 C15.7110748,53.4228058 15.8009578,53.4069998 15.8852157,53.3789264 L15.8852157,54.755702 L7.60825163,54.755702 L7.60825163,53.3789264 Z M57.1196843,56.47561 L57.1173406,58.2842205 C57.1173406,58.2842205 57.1168718,58.2843384 57.1155827,58.2843384 L2.88031569,58.2803279 L2.88441726,56.4715995 L57.1196843,56.47561 Z M52.1215136,53.4226878 C52.2160841,53.4226878 52.3066701,53.4065279 52.3917484,53.3779827 L52.3917484,54.755702 L44.1147843,54.755702 L44.1147843,53.3797521 C44.1983391,53.4073536 44.2874017,53.4226878 44.3802143,53.4226878 L52.1215136,53.4226878 L52.1215136,53.4226878 Z M45.9108023,29.7486812 L45.2348639,29.7486812 L45.2348639,28.5645268 L51.2715516,28.5645268 L51.2715516,29.7485633 L50.5956132,29.7485633 C50.1248704,29.7485633 49.7433074,30.1326261 49.7433074,30.606453 L49.7433074,49.5614172 C49.7433074,50.0352441 50.1248704,50.4194249 50.5956132,50.4194249 L51.2715516,50.4194249 L51.2715516,51.7069083 L45.2348639,51.7069083 L45.2348639,50.4194249 L45.9108023,50.4194249 C46.3815451,50.4194249 46.7631081,50.0353621 46.7631081,49.5615351 L46.7631081,30.606571 C46.7631081,30.1327441 46.3815451,29.7486812 45.9108023,29.7486812 Z M52.3918656,26.8487472 L52.3918656,26.8487472 L52.1239746,26.8487472 C52.123623,26.8487472 52.1231543,26.8488652 52.1228027,26.8488652 C52.1224511,26.8488652 52.1219824,26.8487472 52.1216308,26.8487472 L44.3826753,26.8487472 L44.3803315,26.8487472 L44.1149015,26.8487472 L44.1149015,25.4122861 L52.3918656,25.4122861 L52.3918656,26.8487472 L52.3918656,26.8487472 Z"/>
</svg>
