<svg xmlns="http://www.w3.org/2000/svg" width="40" height="40" viewBox="0 0 40 40">
  <path fill="#7F8FA4" d="M39.5085156,12.4372549 L26.2860938,3.89662745 C26.0221094,3.72611765 25.6705469,3.80282353 25.5007812,4.06768627 C25.3310156,4.33262745 25.4072656,4.68556863 25.6711719,4.85607843 L38.7003125,13.2718431 L35.6629688,13.2718431 L20.83125,3.69176471 C20.3263281,3.36564706 19.67375,3.36572549 19.16875,3.69176471 L4.33703125,13.2718431 L1.2996875,13.2718431 L19.9992969,1.19247059 L22.6476563,2.90305882 C22.9116406,3.0734902 23.263125,2.99694118 23.4329688,2.732 C23.6027344,2.46705882 23.5264844,2.11411765 23.2625781,1.94360784 L20.6142188,0.233019608 C20.2410938,-0.008 19.7589844,-0.008 19.3858594,0.233019608 L0.491484375,12.4372549 C0.089140625,12.6971765 -0.090546875,13.1814118 0.044375,13.6422745 C0.179296875,14.1031373 0.59140625,14.4127843 1.06984375,14.4127843 L3.93578125,14.4127843 L3.93578125,16.3790588 L3.93578125,18.101098 C3.93578125,18.5551373 4.2565625,18.9353725 4.6825,19.0253333 L4.6825,20.0293333 C4.6825,20.5501176 5.10453125,20.9738039 5.62328125,20.9738039 L5.70140625,20.9738039 L5.70140625,27.9629804 C5.70140625,28.2780392 5.95578125,28.5334118 6.26960937,28.5334118 C6.5834375,28.5334118 6.8378125,28.2780392 6.8378125,27.9629804 L6.8378125,20.4033725 C6.8378125,20.0883137 6.5834375,19.8329412 6.26960937,19.8329412 L5.81898437,19.8329412 L5.81898437,19.0454902 L9.8434375,19.0454902 L9.8434375,19.8327843 L9.3928125,19.8327843 C9.07898437,19.8327843 8.82460937,20.0881569 8.82460937,20.4032157 L8.82460937,33.0068235 C8.82460937,33.3218824 9.07898437,33.5772549 9.3928125,33.5772549 L9.8434375,33.5772549 L9.8434375,34.4333333 L5.81898438,34.4333333 L5.81898438,33.5772549 L6.26960937,33.5772549 C6.5834375,33.5772549 6.8378125,33.3218824 6.8378125,33.0068235 L6.8378125,31.5487843 C6.8378125,31.2337255 6.5834375,30.9783529 6.26960937,30.9783529 C5.95578125,30.9783529 5.70140625,31.2337255 5.70140625,31.5487843 L5.70140625,32.4363922 L5.62328125,32.4363922 C5.10453125,32.4363922 4.6825,32.86 4.6825,33.3807843 L4.6825,34.3847843 C4.25648438,34.4747451 3.93578125,34.8549804 3.93578125,35.3090196 L3.93578125,36.460549 L1.92296875,36.460549 C1.29484375,36.460549 0.783828125,36.9735686 0.783828125,37.6041569 L0.783828125,38.8040784 C0.783828125,39.4346667 1.29484375,39.9476863 1.92296875,39.9476863 L38.0770313,39.9476863 C38.7051563,39.9476863 39.2161719,39.4346667 39.2161719,38.8040784 L39.2161719,37.6041569 C39.2161719,36.9735686 38.7051563,36.460549 38.0770313,36.460549 L36.0642188,36.460549 L36.0642188,35.3090196 C36.0642188,34.8549804 35.7434375,34.4747451 35.3175,34.3847843 L35.3175,33.3807843 C35.3175,32.86 34.8954688,32.4363922 34.3767188,32.4363922 L34.2985938,32.4363922 L34.2985938,20.9736471 L34.3767188,20.9736471 C34.8954688,20.9736471 35.3175,20.5499608 35.3175,20.0291765 L35.3175,19.0251765 C35.7435156,18.9352157 36.0642188,18.5549804 36.0642188,18.1009412 L36.0642188,16.378902 L36.0642188,14.4126275 L38.9301563,14.4126275 C39.4085938,14.4126275 39.8207031,14.1029804 39.955625,13.6421176 C40.0905469,13.1814118 39.9108594,12.697098 39.5085156,12.4372549 Z M19.7835937,4.65121569 C19.9150781,4.56627451 20.0849219,4.56635294 20.2164063,4.65121569 L33.5627344,13.2719216 L6.43734375,13.2719216 L19.7835937,4.65121569 Z M5.0721875,14.4127059 L34.9277344,14.4127059 L34.9277344,15.808549 L28.8416406,15.808549 L23.3271875,15.808549 L16.6728125,15.808549 L11.1583594,15.808549 L5.0721875,15.808549 L5.0721875,14.4127059 Z M23.14875,34.3849412 L23.14875,33.3809412 C23.14875,32.8601569 22.7267187,32.436549 22.2079687,32.436549 L22.1298437,32.436549 L22.1298437,20.9738039 L22.2079687,20.9738039 C22.7267187,20.9738039 23.14875,20.5501176 23.14875,20.0293333 L23.14875,19.0253333 C23.5747656,18.9353725 23.8954687,18.5551373 23.8954687,18.101098 L23.8954687,16.9494902 L28.2734375,16.9494902 L28.2734375,18.101098 C28.2734375,18.5551373 28.5942187,18.9353725 29.0201562,19.0253333 L29.0201562,20.0293333 C29.0201562,20.5501176 29.4421875,20.9738039 29.9609375,20.9738039 L30.0390625,20.9738039 L30.0390625,32.436549 L29.9609375,32.436549 C29.4421875,32.436549 29.0201562,32.8601569 29.0201562,33.3809412 L29.0201562,34.3849412 C28.5942187,34.474902 28.2734375,34.8551373 28.2734375,35.3091765 L28.2734375,36.4607059 L23.8954687,36.4607059 L23.8954687,35.3091765 C23.8954687,34.8551373 23.5746875,34.474902 23.14875,34.3849412 Z M10.9798438,34.3849412 L10.9798438,33.3809412 C10.9798438,32.8601569 10.5578125,32.436549 10.0390625,32.436549 L9.9609375,32.436549 L9.9609375,20.9738039 L10.0390625,20.9738039 C10.5578125,20.9738039 10.9798438,20.5501176 10.9798438,20.0293333 L10.9798438,19.0253333 C11.4057813,18.9353725 11.7265625,18.5551373 11.7265625,18.101098 L11.7265625,16.9494902 L16.1046094,16.9494902 L16.1046094,18.101098 C16.1046094,18.5551373 16.4253906,18.9353725 16.8513281,19.0253333 L16.8513281,20.0293333 C16.8513281,20.5501176 17.2733594,20.9738039 17.7921094,20.9738039 L17.8702344,20.9738039 L17.8702344,32.436549 L17.7921094,32.436549 C17.2733594,32.436549 16.8513281,32.8601569 16.8513281,33.3809412 L16.8513281,34.3849412 C16.4253906,34.474902 16.1046094,34.8551373 16.1046094,35.3091765 L16.1046094,36.4607059 L11.7265625,36.4607059 L11.7265625,35.3091765 C11.7265625,34.8551373 11.4057813,34.474902 10.9798438,34.3849412 Z M21.5616406,33.5772549 L22.0122656,33.5772549 L22.0122656,34.4333333 L17.9878125,34.4333333 L17.9878125,33.5772549 L18.4384375,33.5772549 C18.7522656,33.5772549 19.0066406,33.3218824 19.0066406,33.0068235 L19.0066406,20.4032941 C19.0066406,20.0882353 18.7522656,19.8327843 18.4384375,19.8327843 L17.9878125,19.8327843 L17.9878125,19.0454902 L22.0122656,19.0454902 L22.0122656,19.8327843 L21.5616406,19.8327843 C21.2478125,19.8327843 20.9934375,20.0881569 20.9934375,20.4032157 L20.9934375,33.0068235 C20.9934375,33.3218824 21.2478125,33.5772549 21.5616406,33.5772549 Z M17.4195312,17.9046275 L17.4170312,17.9046275 L17.2410156,17.9046275 L17.2410156,16.9494902 L22.7589844,16.9494902 L22.7589844,17.9046275 L22.5804687,17.9046275 C22.5800781,17.9046275 22.5796094,17.9047059 22.5792187,17.9047059 C22.5788281,17.9047059 22.5783594,17.9046275 22.5779687,17.9046275 L17.4195312,17.9046275 Z M17.2410156,35.5461176 C17.2964844,35.5642353 17.3555469,35.5743529 17.4170313,35.5743529 L22.5778906,35.5743529 C22.64125,35.5743529 22.7020313,35.563451 22.7589844,35.5442353 L22.7589844,36.4606275 L17.2410156,36.4606275 L17.2410156,35.5461176 L17.2410156,35.5461176 Z M5.25078125,17.9046275 L5.07226562,17.9046275 L5.07226562,16.9494902 L10.5902344,16.9494902 L10.5902344,17.9046275 L10.5901562,17.9046275 L10.4116406,17.9046275 L5.25078125,17.9046275 Z M5.0721875,35.5451765 C5.12835937,35.5638431 5.18828125,35.5743529 5.25070312,35.5743529 L10.4116406,35.5743529 C10.4740625,35.5743529 10.5339844,35.5638431 10.5901562,35.5451765 L10.5901562,36.4606275 L5.0721875,36.4606275 L5.0721875,35.5451765 Z M38.0797656,37.6042353 L38.0782031,38.8068235 C38.0782031,38.8068235 38.0778906,38.806902 38.0770313,38.806902 L1.92023438,38.8042353 L1.92296875,37.6015686 L38.0797656,37.6042353 Z M34.7476563,35.5742745 C34.8107031,35.5742745 34.8710938,35.5635294 34.9278125,35.544549 L34.9278125,36.4606275 L29.4098438,36.4606275 L29.4098438,35.5457255 C29.4655469,35.5640784 29.5249219,35.5742745 29.5867969,35.5742745 L34.7476563,35.5742745 L34.7476563,35.5742745 Z M30.6071875,19.8328627 L30.1565625,19.8328627 L30.1565625,19.0454902 L34.1810156,19.0454902 L34.1810156,19.8327843 L33.7303906,19.8327843 C33.4165625,19.8327843 33.1621875,20.0881569 33.1621875,20.4032157 L33.1621875,33.0068235 C33.1621875,33.3218824 33.4165625,33.5773333 33.7303906,33.5773333 L34.1810156,33.5773333 L34.1810156,34.4334118 L30.1565625,34.4334118 L30.1565625,33.5773333 L30.6071875,33.5773333 C30.9210156,33.5773333 31.1753906,33.3219608 31.1753906,33.006902 L31.1753906,20.4032941 C31.1753906,20.0882353 30.9210156,19.8328627 30.6071875,19.8328627 Z M34.9278906,17.9046275 L34.9278906,17.9046275 L34.7492969,17.9046275 C34.7490625,17.9046275 34.74875,17.9047059 34.7485156,17.9047059 C34.7482813,17.9047059 34.7479688,17.9046275 34.7477344,17.9046275 L29.5884375,17.9046275 L29.586875,17.9046275 L29.4099219,17.9046275 L29.4099219,16.9494902 L34.9278906,16.9494902 L34.9278906,17.9046275 L34.9278906,17.9046275 Z"/>
</svg>
