<svg xmlns="http://www.w3.org/2000/svg" xmlns:xlink="http://www.w3.org/1999/xlink" width="20" height="22" viewBox="0 0 20 22">
  <defs>
    <path id="ic-calculator-header-a" d="M5.88461538,18.8571429 C5.88461538,18.4233609 5.74188845,18.0530149 5.45643029,17.7460938 C5.17097213,17.4391726 4.82652445,17.2857143 4.42307692,17.2857143 C4.01962939,17.2857143 3.67518172,17.4391726 3.38972356,17.7460938 C3.1042654,18.0530149 2.96153846,18.4233609 2.96153846,18.8571429 C2.96153846,19.2909248 3.1042654,19.6612708 3.38972356,19.968192 C3.67518172,20.2751131 4.01962939,20.4285714 4.42307692,20.4285714 C4.82652445,20.4285714 5.17097213,20.2751131 5.45643029,19.968192 C5.74188845,19.6612708 5.88461538,19.2909248 5.88461538,18.8571429 Z M10.2692308,18.8571429 C10.2692308,18.4233609 10.1265038,18.0530149 9.84104567,17.7460938 C9.55558752,17.4391726 9.21113984,17.2857143 8.80769231,17.2857143 C8.40424478,17.2857143 8.0597971,17.4391726 7.77433894,17.7460938 C7.48888078,18.0530149 7.34615385,18.4233609 7.34615385,18.8571429 C7.34615385,19.2909248 7.48888078,19.6612708 7.77433894,19.968192 C8.0597971,20.2751131 8.40424478,20.4285714 8.80769231,20.4285714 C9.21113984,20.4285714 9.55558752,20.2751131 9.84104567,19.968192 C10.1265038,19.6612708 10.2692308,19.2909248 10.2692308,18.8571429 Z M5.88461538,14.1428571 C5.88461538,13.7090752 5.74188845,13.3387292 5.45643029,13.031808 C5.17097213,12.7248869 4.82652445,12.5714286 4.42307692,12.5714286 C4.01962939,12.5714286 3.67518172,12.7248869 3.38972356,13.031808 C3.1042654,13.3387292 2.96153846,13.7090752 2.96153846,14.1428571 C2.96153846,14.5766391 3.1042654,14.9469851 3.38972356,15.2539063 C3.67518172,15.5608274 4.01962939,15.7142857 4.42307692,15.7142857 C4.82652445,15.7142857 5.17097213,15.5608274 5.45643029,15.2539063 C5.74188845,14.9469851 5.88461538,14.5766391 5.88461538,14.1428571 Z M14.6538462,18.8571429 C14.6538462,18.4233609 14.5111192,18.0530149 14.2256611,17.7460938 C13.9402029,17.4391726 13.5957552,17.2857143 13.1923077,17.2857143 C12.7888602,17.2857143 12.4444125,17.4391726 12.1589543,17.7460938 C11.8734962,18.0530149 11.7307692,18.4233609 11.7307692,18.8571429 C11.7307692,19.2909248 11.8734962,19.6612708 12.1589543,19.968192 C12.4444125,20.2751131 12.7888602,20.4285714 13.1923077,20.4285714 C13.5957552,20.4285714 13.9402029,20.2751131 14.2256611,19.968192 C14.5111192,19.6612708 14.6538462,19.2909248 14.6538462,18.8571429 Z M10.2692308,14.1428571 C10.2692308,13.7090752 10.1265038,13.3387292 9.84104567,13.031808 C9.55558752,12.7248869 9.21113984,12.5714286 8.80769231,12.5714286 C8.40424478,12.5714286 8.0597971,12.7248869 7.77433894,13.031808 C7.48888078,13.3387292 7.34615385,13.7090752 7.34615385,14.1428571 C7.34615385,14.5766391 7.48888078,14.9469851 7.77433894,15.2539063 C8.0597971,15.5608274 8.40424478,15.7142857 8.80769231,15.7142857 C9.21113984,15.7142857 9.55558752,15.5608274 9.84104567,15.2539063 C10.1265038,14.9469851 10.2692308,14.5766391 10.2692308,14.1428571 Z M5.88461538,9.42857143 C5.88461538,8.9947895 5.74188845,8.6244435 5.45643029,8.31752232 C5.17097213,8.01060114 4.82652445,7.85714286 4.42307692,7.85714286 C4.01962939,7.85714286 3.67518172,8.01060114 3.38972356,8.31752232 C3.1042654,8.6244435 2.96153846,8.9947895 2.96153846,9.42857143 C2.96153846,9.86235336 3.1042654,10.2326994 3.38972356,10.5396205 C3.67518172,10.8465417 4.01962939,11 4.42307692,11 C4.82652445,11 5.17097213,10.8465417 5.45643029,10.5396205 C5.74188845,10.2326994 5.88461538,9.86235336 5.88461538,9.42857143 Z M14.6538462,14.1428571 C14.6538462,13.7090752 14.5111192,13.3387292 14.2256611,13.031808 C13.9402029,12.7248869 13.5957552,12.5714286 13.1923077,12.5714286 C12.7888602,12.5714286 12.4444125,12.7248869 12.1589543,13.031808 C11.8734962,13.3387292 11.7307692,13.7090752 11.7307692,14.1428571 C11.7307692,14.5766391 11.8734962,14.9469851 12.1589543,15.2539063 C12.4444125,15.5608274 12.7888602,15.7142857 13.1923077,15.7142857 C13.5957552,15.7142857 13.9402029,15.5608274 14.2256611,15.2539063 C14.5111192,14.9469851 14.6538462,14.5766391 14.6538462,14.1428571 Z M10.2692308,9.42857143 C10.2692308,8.9947895 10.1265038,8.6244435 9.84104567,8.31752232 C9.55558752,8.01060114 9.21113984,7.85714286 8.80769231,7.85714286 C8.40424478,7.85714286 8.0597971,8.01060114 7.77433894,8.31752232 C7.48888078,8.6244435 7.34615385,8.9947895 7.34615385,9.42857143 C7.34615385,9.86235336 7.48888078,10.2326994 7.77433894,10.5396205 C8.0597971,10.8465417 8.40424478,11 8.80769231,11 C9.21113984,11 9.55558752,10.8465417 9.84104567,10.5396205 C10.1265038,10.2326994 10.2692308,9.86235336 10.2692308,9.42857143 Z M19.0384615,18.8571429 L19.0384615,14.1428571 C19.0384615,13.7172598 18.8938316,13.3489599 18.6045673,13.0379464 C18.315303,12.726933 17.9727584,12.5714286 17.5769231,12.5714286 C17.1810878,12.5714286 16.8385431,12.726933 16.5492788,13.0379464 C16.2600146,13.3489599 16.1153846,13.7172598 16.1153846,14.1428571 L16.1153846,18.8571429 C16.1153846,19.2827402 16.2600146,19.6510401 16.5492788,19.9620536 C16.8385431,20.273067 17.1810878,20.4285714 17.5769231,20.4285714 C17.9727584,20.4285714 18.315303,20.273067 18.6045673,19.9620536 C18.8938316,19.6510401 19.0384615,19.2827402 19.0384615,18.8571429 Z M14.6538462,9.42857143 C14.6538462,8.9947895 14.5111192,8.6244435 14.2256611,8.31752232 C13.9402029,8.01060114 13.5957552,7.85714286 13.1923077,7.85714286 C12.7888602,7.85714286 12.4444125,8.01060114 12.1589543,8.31752232 C11.8734962,8.6244435 11.7307692,8.9947895 11.7307692,9.42857143 C11.7307692,9.86235336 11.8734962,10.2326994 12.1589543,10.5396205 C12.4444125,10.8465417 12.7888602,11 13.1923077,11 C13.5957552,11 13.9402029,10.8465417 14.2256611,10.5396205 C14.5111192,10.2326994 14.6538462,9.86235336 14.6538462,9.42857143 Z M19.0384615,5.5 L19.0384615,2.35714286 C19.0384615,2.14434417 18.9661466,1.96019423 18.8215144,1.8046875 C18.6768823,1.64918077 18.50561,1.57142857 18.3076923,1.57142857 L3.69230769,1.57142857 C3.49439004,1.57142857 3.32311771,1.64918077 3.17848558,1.8046875 C3.03385344,1.96019423 2.96153846,2.14434417 2.96153846,2.35714286 L2.96153846,5.5 C2.96153846,5.71279868 3.03385344,5.89694863 3.17848558,6.05245536 C3.32311771,6.20796209 3.49439004,6.28571429 3.69230769,6.28571429 L18.3076923,6.28571429 C18.50561,6.28571429 18.6768823,6.20796209 18.8215144,6.05245536 C18.9661466,5.89694863 19.0384615,5.71279868 19.0384615,5.5 Z M19.0384615,9.42857143 C19.0384615,8.9947895 18.8957346,8.6244435 18.6102764,8.31752232 C18.3248183,8.01060114 17.9803706,7.85714286 17.5769231,7.85714286 C17.1734755,7.85714286 16.8290279,8.01060114 16.5435697,8.31752232 C16.2581116,8.6244435 16.1153846,8.9947895 16.1153846,9.42857143 C16.1153846,9.86235336 16.2581116,10.2326994 16.5435697,10.5396205 C16.8290279,10.8465417 17.1734755,11 17.5769231,11 C17.9803706,11 18.3248183,10.8465417 18.6102764,10.5396205 C18.8957346,10.2326994 19.0384615,9.86235336 19.0384615,9.42857143 Z M20.5,1.57142857 L20.5,20.4285714 C20.5,20.8541688 20.35537,21.2224687 20.0661058,21.5334821 C19.7768415,21.8444956 19.4342969,22 19.0384615,22 L2.96153846,22 C2.56570315,22 2.2231585,21.8444956 1.93389423,21.5334821 C1.64462996,21.2224687 1.5,20.8541688 1.5,20.4285714 L1.5,1.57142857 C1.5,1.14583121 1.64462996,0.777531317 1.93389423,0.466517857 C2.2231585,0.155504397 2.56570315,0 2.96153846,0 L19.0384615,0 C19.4342969,0 19.7768415,0.155504397 20.0661058,0.466517857 C20.35537,0.777531317 20.5,1.14583121 20.5,1.57142857 Z"/>
  </defs>
  <g fill="none" fill-rule="evenodd" transform="translate(-1)">
    <use fill="#FFF" xlink:href="#ic-calculator-header-a"/>
  </g>
</svg>
