<svg xmlns="http://www.w3.org/2000/svg" width="20" height="16" viewBox="0 0 20 16">
  <path fill="#7F8FA4" d="M19.1461017,6.06937151 C19.059322,6.06937151 18.9702542,6.08160615 18.8813559,6.10590782 L17.8754237,6.37993017 L16.8308475,3.86378492 C16.535,3.15090782 15.6601695,2.57101955 14.8809322,2.57101955 L5.105,2.57101955 C4.32567797,2.57101955 3.4509322,3.15090782 3.15508475,3.86378492 L2.11186441,6.37649441 L1.11855932,6.10590782 C1.02974576,6.08168994 0.94059322,6.06937151 0.853898305,6.06937151 C0.378559322,6.06937151 0.0334745763,6.42844972 0.0334745763,6.92328212 L0.0334745763,7.5097905 C0.0334745763,8.0874162 0.508644068,8.55727654 1.09279661,8.55727654 L1.20652542,8.55727654 L1.0379661,8.96336592 C0.763050847,9.62571229 0.53940678,10.7468575 0.53940678,11.4627514 L0.53940678,16.4614385 C0.53940678,17.0390642 1.01466102,17.5089246 1.59872881,17.5089246 L2.98228814,17.5089246 C3.56644068,17.5089246 4.04161017,17.0390642 4.04161017,16.4614385 L4.04161017,15.2130866 L15.9444915,15.2130866 L15.9444915,16.4614385 C15.9444915,17.0390642 16.419661,17.5089246 17.0038136,17.5089246 L18.3872881,17.5089246 C18.9714407,17.5089246 19.4466102,17.0390642 19.4466102,16.4614385 L19.4466102,11.4627514 C19.4466102,10.7469413 19.2229661,9.62571229 18.9479661,8.96336592 L18.7794068,8.55727654 L18.9072034,8.55727654 C19.4912712,8.55727654 19.9665254,8.0874162 19.9665254,7.5097905 L19.9665254,6.92328212 C19.9665254,6.42844972 19.6215254,6.06937151 19.1461017,6.06937151 Z M2.87152542,7.98828212 L4.45161017,4.18238827 C4.62864407,3.75601955 5.15483051,3.4071648 5.6209322,3.4071648 L14.3651695,3.4071648 C14.8312712,3.4071648 15.3574576,3.75601955 15.5344068,4.18238827 L17.1144915,7.98828212 C17.2915254,8.41465084 17.055,8.76350559 16.5888983,8.76350559 L3.39720339,8.76350559 C2.93110169,8.76350559 2.69457627,8.41465084 2.87152542,7.98828212 Z M6.39889831,12.8021927 C6.39889831,13.0326397 6.20822034,13.2211872 5.97516949,13.2211872 L2.97347458,13.2211872 C2.74042373,13.2211872 2.54974576,13.0326397 2.54974576,12.8021927 L2.54974576,11.3776955 C2.54974576,11.1472486 2.74042373,10.9587011 2.97347458,10.9587011 L5.97516949,10.9587011 C6.20822034,10.9587011 6.39889831,11.1472486 6.39889831,11.3776955 L6.39889831,12.8021927 Z M17.4078814,12.8021927 C17.4078814,13.0326397 17.2172034,13.2211872 16.9841525,13.2211872 L13.9825424,13.2211872 C13.7494915,13.2211872 13.5588136,13.0326397 13.5588136,12.8021927 L13.5588136,11.3776955 C13.5588136,11.1472486 13.7494915,10.9587011 13.9825424,10.9587011 L16.9841525,10.9587011 C17.2172034,10.9587011 17.4078814,11.1472486 17.4078814,11.3776955 L17.4078814,12.8021927 L17.4078814,12.8021927 Z" transform="translate(0 -2)"/>
</svg>
