<svg xmlns="http://www.w3.org/2000/svg" xmlns:xlink="http://www.w3.org/1999/xlink" width="22" height="22" viewBox="0 0 22 22">
    <defs>
        <path id="a" d="M8.224 12.034a.459.459 0 0 0-.464-.454H6.14a.459.459 0 0 0-.465.454v1.584c0 .25.208.454.464.454H7.76a.46.46 0 0 0 .464-.454v-1.584zm4.05 0a.459.459 0 0 0-.463-.454H10.19a.459.459 0 0 0-.464.454v1.584c0 .25.208.454.464.454h1.62a.459.459 0 0 0 .464-.454v-1.584zm4.05 0a.459.459 0 0 0-.463-.454H14.24a.459.459 0 0 0-.464.454v1.584c0 .25.207.454.464.454h1.62a.46.46 0 0 0 .465-.454v-1.584zm-8.1 3.96a.459.459 0 0 0-.464-.455H6.14a.459.459 0 0 0-.465.454v1.584c0 .25.208.454.464.454H7.76a.46.46 0 0 0 .464-.454v-1.584zm4.05 0a.459.459 0 0 0-.463-.455H10.19a.459.459 0 0 0-.464.454v1.584c0 .25.208.454.464.454h1.62a.459.459 0 0 0 .464-.454v-1.584zm4.05 0a.459.459 0 0 0-.463-.455H14.24a.459.459 0 0 0-.464.454v1.584c0 .25.207.454.464.454h1.62a.459.459 0 0 0 .465-.454v-1.584zm2.899-12.767v2.42c0 1.093-.908 1.974-2.026 1.974h-1.279c-1.118 0-2.038-.881-2.038-1.975V3.218H8.12v2.428c0 1.094-.92 1.975-2.038 1.975H4.803c-1.118 0-2.025-.881-2.025-1.975v-2.42c-.978.03-1.781.82-1.781 1.792v14.179c0 .99.82 1.803 1.834 1.803h16.338c1.012 0 1.834-.815 1.834-1.803V5.018c0-.972-.803-1.762-1.78-1.791zm-.594 15.087a.784.784 0 0 1-.793.775H4.13a.784.784 0 0 1-.793-.775V10.99c0-.428.355-.775.793-.775h13.707c.438 0 .793.347.793.775v7.324zM4.799 6.324h1.264a.687.687 0 0 0 .695-.679V1.68A.687.687 0 0 0 6.063 1H4.8a.687.687 0 0 0-.695.679v3.966c0 .375.311.679.695.679zm11.103 0h1.264a.687.687 0 0 0 .695-.679V1.68A.687.687 0 0 0 17.166 1h-1.264a.687.687 0 0 0-.695.679v3.966c0 .375.311.679.695.679z"/>
    </defs>
    <use fill="#323845" fill-rule="nonzero" xlink:href="#a"/>
</svg>
