<svg xmlns="http://www.w3.org/2000/svg" width="18" height="18" viewBox="0 0 18 18">
    <path fill="#7F8FA4" fill-rule="evenodd" d="M10.429 5.357v5c0 .104-.034.19-.1.257a.348.348 0 0 1-.258.1H6.5a.348.348 0 0 1-.257-.1.348.348 0 0 1-.1-.257v-.714c0-.104.033-.19.1-.257a.348.348 0 0 1 .257-.1H9V5.357c0-.104.033-.19.1-.257a.348.348 0 0 1 .257-.1h.714c.105 0 .19.033.257.1s.1.153.1.257zm4.642 3.929a5.935 5.935 0 0 0-.814-3.047 6.052 6.052 0 0 0-2.21-2.21A5.935 5.935 0 0 0 9 3.214a5.935 5.935 0 0 0-3.047.815 6.052 6.052 0 0 0-2.21 2.21 5.935 5.935 0 0 0-.814 3.047c0 1.1.271 2.117.814 3.047a6.052 6.052 0 0 0 2.21 2.21c.93.543 1.946.814 3.047.814a5.935 5.935 0 0 0 3.047-.815 6.052 6.052 0 0 0 2.21-2.21c.543-.93.814-1.945.814-3.046zm2.5 0c0 1.555-.383 2.989-1.15 4.302a8.533 8.533 0 0 1-3.119 3.12A8.385 8.385 0 0 1 9 17.858a8.385 8.385 0 0 1-4.302-1.15 8.533 8.533 0 0 1-3.12-3.12 8.385 8.385 0 0 1-1.15-4.302c0-1.555.384-2.99 1.15-4.303a8.533 8.533 0 0 1 3.12-3.12A8.385 8.385 0 0 1 9 .715c1.555 0 2.99.383 4.302 1.15a8.533 8.533 0 0 1 3.12 3.12 8.385 8.385 0 0 1 1.15 4.302z"/>
</svg>
