<svg xmlns="http://www.w3.org/2000/svg" xmlns:xlink="http://www.w3.org/1999/xlink" width="21" height="20" viewBox="0 0 21 20">
  <defs>
    <path id="ic-calendar-a" d="M8.22439738,12.0338767 C8.22439738,11.7833405 8.01650591,11.5803713 7.75999466,11.5803713 L6.1394052,11.5803713 C5.88318735,11.5803713 5.67525396,11.7833405 5.67525396,12.0338767 L5.67525396,13.6178063 C5.67525396,13.8686703 5.88318735,14.0717214 6.1394052,14.0717214 L7.75999466,14.0717214 C8.01650591,14.0717214 8.22439738,13.8686703 8.22439738,13.6178063 L8.22439738,12.0338767 L8.22439738,12.0338767 Z M12.2744669,12.0338767 C12.2744669,11.7833405 12.0665335,11.5803713 11.8105253,11.5803713 L10.1897262,11.5803713 C9.93350837,11.5803713 9.72557499,11.7833405 9.72557499,12.0338767 L9.72557499,13.6178063 C9.72557499,13.8686703 9.93350837,14.0717214 10.1897262,14.0717214 L11.8105253,14.0717214 C12.0665335,14.0717214 12.2744669,13.8686703 12.2744669,13.6178063 L12.2744669,12.0338767 Z M16.324746,12.0338767 C16.324746,11.7833405 16.1168127,11.5803713 15.8605948,11.5803713 L14.2400053,11.5803713 C13.9834941,11.5803713 13.7756026,11.7833405 13.7756026,12.0338767 L13.7756026,13.6178063 C13.7756026,13.8686703 13.9834941,14.0717214 14.2400053,14.0717214 L15.8605948,14.0717214 C16.1168127,14.0717214 16.324746,13.8686703 16.324746,13.6178063 L16.324746,12.0338767 Z M8.22439738,15.9932501 C8.22439738,15.7423042 8.01650591,15.5394989 7.75999466,15.5394989 L6.1394052,15.5394989 C5.88318735,15.5394989 5.67525396,15.7423042 5.67525396,15.9932501 L5.67525396,17.5768929 C5.67525396,17.827593 5.88318735,18.0306031 6.1394052,18.0306031 L7.75999466,18.0306031 C8.01650591,18.0306031 8.22439738,17.827552 8.22439738,17.5768929 L8.22439738,15.9932501 L8.22439738,15.9932501 Z M12.2744669,15.9932501 C12.2744669,15.7423042 12.0665335,15.5394989 11.8105253,15.5394989 L10.1897262,15.5394989 C9.93350837,15.5394989 9.72557499,15.7423042 9.72557499,15.9932501 L9.72557499,17.5768929 C9.72557499,17.827593 9.93350837,18.0306031 10.1897262,18.0306031 L11.8105253,18.0306031 C12.0665335,18.0306031 12.2744669,17.827552 12.2744669,17.5768929 L12.2744669,15.9932501 Z M16.324746,15.9932501 C16.324746,15.7423042 16.1168127,15.5394989 15.8608044,15.5394989 L14.2400053,15.5394989 C13.9834941,15.5394989 13.7756026,15.7423042 13.7756026,15.9932501 L13.7756026,17.5768929 C13.7756026,17.827593 13.9834941,18.0306031 14.2400053,18.0306031 L15.8608044,18.0306031 C16.1168127,18.0306031 16.324746,17.827552 16.324746,17.5768929 L16.324746,15.9932501 L16.324746,15.9932501 Z M19.2225268,3.22692476 L19.2225268,5.6462482 C19.2225268,6.73975782 18.3150135,7.62095695 17.1965071,7.62095695 L15.9184356,7.62095695 C14.7998453,7.62095695 13.8803028,6.73975782 13.8803028,5.6462482 L13.8803028,3.21823895 L8.1196972,3.21823895 L8.1196972,5.6462482 C8.1196972,6.73975782 7.20019658,7.62095695 6.081774,7.62095695 L4.80345102,7.62095695 C3.68498652,7.62095695 2.7775151,6.73975782 2.7775151,5.6462482 L2.7775151,3.22692476 C1.79996414,3.2557272 0.99668994,4.04642192 0.99668994,5.01828935 L0.99668994,19.1966719 C0.99668994,20.1868123 1.8176936,21 2.83061964,21 L19.1693804,21 C20.1807975,21 21.0033101,20.1851325 21.0033101,19.1966719 L21.0033101,5.01828935 C21.0033101,4.04642192 20.2000778,3.2557272 19.2225268,3.22692476 Z M18.6289045,18.313752 C18.6289045,18.7416507 18.2739801,19.0887959 17.8360667,19.0887959 L4.12901923,19.0887959 C3.69110591,19.0887959 3.33618152,18.7416507 3.33618152,18.313752 L3.33618152,10.9901056 C3.33618152,10.562043 3.69106399,10.2148978 4.12901923,10.2148978 L17.8360248,10.2148978 C18.2739381,10.2148978 18.6288625,10.562043 18.6288625,10.9901056 L18.6289045,18.313752 L18.6289045,18.313752 Z M4.79896626,6.32394557 L6.06316436,6.32394557 C6.44688339,6.32394557 6.75800807,6.02027028 6.75800807,5.64518297 L6.75800807,1.67900843 C6.75800807,1.30388014 6.44688339,1 6.06316436,1 L4.79896626,1 C4.41520531,1 4.10412255,1.30388014 4.10412255,1.67900843 L4.10412255,5.64518297 C4.10412255,6.02027028 4.41520531,6.32394557 4.79896626,6.32394557 Z M15.9021731,6.32394557 L17.1663712,6.32394557 C17.5498387,6.32394557 17.8609634,6.02027028 17.8609634,5.64518297 L17.8609634,1.67900843 C17.8610053,1.30388014 17.5498807,1 17.1663712,1 L15.9021731,1 C15.518496,1 15.2073713,1.30388014 15.2073713,1.67900843 L15.2073713,5.64518297 C15.2073713,6.02027028 15.518496,6.32394557 15.9021731,6.32394557 Z"/>
  </defs>
  <use fill="#323845" transform="translate(0 -1)" xlink:href="#ic-calendar-a"/>
</svg>
