<svg xmlns="http://www.w3.org/2000/svg" xmlns:xlink="http://www.w3.org/1999/xlink" width="22" height="22" viewBox="0 0 22 22">
    <defs>
        <path id="a" d="M19.029 7.01V4.99H2.97v2.02H19.03zm0 10V11H2.97v6.01H19.03zm0-14.039c.56 0 1.03.196 1.406.59.377.392.565.868.565 1.43V17.01a1.99 1.99 0 0 1-.565 1.43 1.87 1.87 0 0 1-1.406.589H2.97a1.87 1.87 0 0 1-1.406-.59A1.99 1.99 0 0 1 1 17.01V4.99c0-.56.188-1.037.565-1.43a1.87 1.87 0 0 1 1.406-.589H19.03z"/>
    </defs>
    <use fill="#323845" fill-rule="evenodd" xlink:href="#a"/>
</svg>
