<svg xmlns="http://www.w3.org/2000/svg" width="40" height="36" viewBox="0 0 40 36">
  <path fill="#FFF" d="M34.5696094,18.9001379 L33.3346094,16.7984828 C33.1721094,16.5219655 32.8146875,16.4287069 32.5361719,16.5900086 C32.2577344,16.7513879 32.1636719,17.1064224 32.32625,17.3829397 L33.1198437,18.7334052 L25.6048437,18.7334052 L29.3625781,12.339681 L30.4632031,14.2125345 C30.6257031,14.4891293 30.9832812,14.5824655 31.2616406,14.4210086 C31.5400781,14.2596293 31.6341406,13.9045948 31.4715625,13.6280776 L29.9315625,11.0074483 C29.7874219,10.7621983 29.5201562,10.6097414 29.2341406,10.6097414 L10.7659375,10.6097414 C10.4799219,10.6097414 10.2126562,10.7621207 10.0685937,11.0074483 L5.43054687,18.8999052 C5.26398437,19.1831724 5.28664062,19.5340948 5.4884375,19.7940862 L13.5871094,30.2215948 C13.7021094,30.3697069 13.875,30.4472931 14.0497656,30.4472931 C14.1742187,30.4472931 14.2996875,30.4079569 14.4058594,30.326569 C14.6611719,30.1310517 14.7084375,29.7669397 14.5115625,29.5133879 L7.0396875,19.8928534 L14.9546094,19.8928534 L18.8001562,35.0351983 L16.7644531,32.4140259 C16.5676562,32.1606293 16.2009375,32.1135345 15.945625,32.3091293 C15.6903125,32.5046466 15.6430469,32.8687586 15.8399219,33.1222328 L19.3604687,37.6552845 C19.5145312,37.85375 19.7476562,37.967569 20,37.967569 C20.2523437,37.967569 20.4853906,37.85375 20.6394531,37.6553621 L34.5117187,19.7940086 C34.7134375,19.5340948 34.7360937,19.1831724 34.5696094,18.9001379 Z M28.3458594,11.7692672 L24.6020312,18.1394052 L20.9976562,11.7692672 L28.3458594,11.7692672 L28.3458594,11.7692672 Z M23.5988281,18.7334052 L16.4011719,18.7334052 L20,12.3729655 L23.5988281,18.7334052 Z M6.88023438,18.7334052 L10.6375,12.339681 L14.3952344,18.7334052 L6.88023438,18.7334052 Z M11.6541406,11.7692672 L19.0023437,11.7692672 L15.3979687,18.1394052 L11.6541406,11.7692672 Z M20,35.0182845 L16.15875,19.8928534 L23.84125,19.8928534 L20,35.0182845 Z M21.1998437,35.0353534 L25.0453906,19.892931 L32.9603125,19.892931 L21.1998437,35.0353534 Z M20,2.03243103 C19.6776563,2.03243103 19.41625,2.2919569 19.41625,2.61215517 L19.41625,5.24038793 C19.41625,5.56058621 19.6775781,5.82011207 20,5.82011207 C20.3224219,5.82011207 20.58375,5.56058621 20.58375,5.24038793 L20.58375,2.61215517 C20.58375,2.2919569 20.3223438,2.03243103 20,2.03243103 Z M34.1421094,6.56160345 C33.9141406,6.33528448 33.5445312,6.33528448 33.3165625,6.56160345 L31.4452344,8.41994828 C31.2172656,8.64642241 31.2172656,9.01340517 31.4452344,9.23987931 C31.5592187,9.353 31.7085937,9.40963793 31.8579687,9.40963793 C32.0073437,9.40963793 32.1567969,9.353 32.2707812,9.23987931 L34.1421094,7.38153448 C34.3700781,7.15506034 34.3700781,6.78807759 34.1421094,6.56160345 Z M39.41625,20.0263793 L36.7697656,20.0263793 C36.4473438,20.0263793 36.1860156,20.2859052 36.1860156,20.6061034 C36.1860156,20.9263017 36.4474219,21.1858276 36.7697656,21.1858276 L39.41625,21.1858276 C39.7386719,21.1858276 40,20.9263017 40,20.6061034 C40,20.2859052 39.7385938,20.0263793 39.41625,20.0263793 Z M3.23023438,20.0263793 L0.58375,20.0263793 C0.261328125,20.0263793 8.8817842e-16,20.2859052 8.8817842e-16,20.6061034 C8.8817842e-16,20.9263017 0.26140625,21.1858276 0.58375,21.1858276 L3.23023438,21.1858276 C3.55265625,21.1858276 3.81398438,20.9263017 3.81398438,20.6061034 C3.81398438,20.2859052 3.55265625,20.0263793 3.23023438,20.0263793 Z M8.55484375,8.41994828 L6.6834375,6.56152586 C6.45546875,6.3352069 6.08585938,6.3352069 5.85789063,6.56152586 C5.62992188,6.788 5.62992188,7.15498276 5.85789063,7.3814569 L7.72921875,9.23987931 C7.84320313,9.353 7.99257813,9.40963793 8.14203125,9.40963793 C8.29148438,9.40963793 8.44085938,9.353 8.55484375,9.23987931 C8.7828125,9.01340517 8.7828125,8.64642241 8.55484375,8.41994828 Z" transform="translate(0 -2)"/>
</svg>
