<svg xmlns="http://www.w3.org/2000/svg" width="50" height="60" viewBox="0 0 50 60">
  <path fill="#FC447C" d="M55.3133155,28.2993626 L53.232136,24.805247 C52.9582966,24.3455221 52.3559815,24.1904746 51.8866366,24.4586474 C51.4174233,24.7269493 51.2589124,25.3172133 51.5328835,25.7769382 L52.8702204,28.0221603 L40.206201,28.0221603 L46.5386056,17.3922475 L48.393341,20.5059678 C48.6671804,20.9658217 49.2697588,21.1209982 49.7388404,20.8525674 C50.2080537,20.5842655 50.3665646,19.9940014 50.0925935,19.5342765 L47.4974385,15.1773383 C47.2545377,14.7695969 46.8041509,14.516129 46.3221672,14.516129 L15.2001868,14.516129 C14.7182031,14.516129 14.2678163,14.7694679 14.0250471,15.1773383 L6.20917013,28.2989756 C5.92848474,28.7699227 5.96666427,29.3533503 6.30672542,29.7856 L19.9543286,47.1218982 C20.1481226,47.3681426 20.4394719,47.4971338 20.733981,47.4971338 C20.9437051,47.4971338 21.1551407,47.4317353 21.3340579,47.2964234 C21.7643017,46.9713654 21.8439521,46.3660094 21.5121852,45.9444659 L8.92083853,29.9498059 L22.2587925,29.9498059 L28.7391758,55.1247748 L25.3086789,50.7669336 C24.9770436,50.3456481 24.3590618,50.2673504 23.9288179,50.5925374 C23.4985741,50.9175954 23.4189237,51.5229515 23.7506907,51.944366 L29.6833951,59.4808101 C29.9430159,59.8107698 30.3358702,60 30.7611112,60 C31.1863522,60 31.5790747,59.8107698 31.8386956,59.4809391 L55.2157602,29.785471 C55.5556897,29.3533503 55.5938692,28.7699227 55.3133155,28.2993626 Z M44.8252662,16.4439036 L38.5162959,27.0346031 L32.4423271,16.4439036 L44.8252662,16.4439036 L44.8252662,16.4439036 Z M36.8257325,28.0221603 L24.6964898,28.0221603 L30.7611112,17.4475847 L36.8257325,28.0221603 Z M8.65213362,28.0221603 L14.9837483,17.3922475 L21.316153,28.0221603 L8.65213362,28.0221603 Z M16.6969561,16.4439036 L29.0798952,16.4439036 L23.0059265,27.0346031 L16.6969561,16.4439036 Z M30.7611112,55.0966547 L24.2879688,29.9498059 L37.2342535,29.9498059 L30.7611112,55.0966547 Z M32.7830466,55.1250328 L39.2634298,29.9499349 L52.6013838,29.9499349 L32.7830466,55.1250328 Z M30.2761194,0 C29.740408,0 29.3059701,0.464156935 29.3059701,1.0368253 L29.3059701,5.73736825 C29.3059701,6.31003661 29.7402781,6.77419355 30.2761194,6.77419355 C30.8119607,6.77419355 31.2462687,6.31003661 31.2462687,5.73736825 L31.2462687,1.0368253 C31.2462687,0.464156935 30.8118308,0 30.2761194,0 Z M54.2569285,8.01409599 C53.8930321,7.65121531 53.3030411,7.65121531 52.9391447,8.01409599 L49.9520268,10.9937731 C49.5881304,11.3569025 49.5881304,11.9453241 49.9520268,12.3084536 C50.133975,12.4898317 50.3724156,12.5806452 50.6108563,12.5806452 C50.849297,12.5806452 51.0878624,12.4898317 51.2698105,12.3084536 L54.2569285,9.32877649 C54.6208248,8.96564701 54.6208248,8.37722547 54.2569285,8.01409599 Z M11.5703683,10.9938139 L8.58320249,8.014089 C8.21931546,7.65121765 7.62933961,7.65121765 7.26545258,8.014089 C6.90156556,8.37720914 6.90156556,8.96561555 7.26545258,9.32873569 L10.2524937,12.3084606 C10.4344372,12.489834 10.6728718,12.5806452 10.911431,12.5806452 C11.1499903,12.5806452 11.3884248,12.489834 11.5703683,12.3084606 C11.9342553,11.9453404 11.9342553,11.356934 11.5703683,10.9938139 Z" transform="translate(-6)"/>
</svg>
