<svg xmlns="http://www.w3.org/2000/svg" width="16" height="20" viewBox="0 0 16 20">
  <path fill="#7F8FA4" d="M12.6580299,0.400877193 L12.6580299,5.22668616 L17.5846766,5.22668616 L12.6580299,0.400877193 Z M11.9935124,6.52851852 C11.6266667,6.52851852 11.328995,6.23693957 11.328995,5.87760234 L11.328995,0.0194736842 L2.69046766,0.0194736842 C2.32362189,0.0194736842 2.02595025,0.311052632 2.02595025,0.670389864 L2.02595025,19.3296101 C2.02595025,19.6889474 2.32362189,19.9805263 2.69046766,19.9805263 L17.3095323,19.9805263 C17.6763781,19.9805263 17.9740498,19.6889474 17.9740498,19.3296101 L17.9740498,6.52851852 L11.9935124,6.52851852 Z M10.6645174,16.0750682 L5.34845771,16.0750682 C4.98161194,16.0750682 4.6839403,15.7834893 4.6839403,15.424152 C4.6839403,15.0648148 4.98161194,14.7732359 5.34845771,14.7732359 L10.6644776,14.7732359 C11.0313234,14.7732359 11.328995,15.0648148 11.328995,15.424152 C11.328995,15.7834893 11.0313632,16.0750682 10.6645174,16.0750682 Z M14.6515423,13.4714425 L5.34845771,13.4714425 C4.98161194,13.4714425 4.6839403,13.1798635 4.6839403,12.8205263 C4.6839403,12.4611891 4.98161194,12.1696101 5.34845771,12.1696101 L14.6515423,12.1696101 C15.0183881,12.1696101 15.3160597,12.4611891 15.3160597,12.8205263 C15.3160597,13.1798635 15.0183881,13.4714425 14.6515423,13.4714425 Z M14.6515423,10.8678558 L5.34845771,10.8678558 C4.98161194,10.8678558 4.6839403,10.5762768 4.6839403,10.2169396 C4.6839403,9.85760234 4.98161194,9.56602339 5.34845771,9.56602339 L14.6515423,9.56602339 C15.0183881,9.56602339 15.3160597,9.85760234 15.3160597,10.2169396 C15.3160199,10.5762768 15.0183881,10.8678558 14.6515423,10.8678558 Z" transform="translate(-2)"/>
</svg>
