<svg xmlns="http://www.w3.org/2000/svg" width="30" height="35" viewBox="0 0 30 35">
  <path fill="#7F8FA4" fill-rule="evenodd" d="M30.28125,8.06696429 C30.6354184,8.42113272 30.9389868,8.90178268 31.1919643,9.50892857 C31.4449417,10.1160745 31.5714286,10.6726165 31.5714286,11.1785714 L31.5714286,33.0357143 C31.5714286,33.5416692 31.394347,33.9717244 31.0401786,34.3258929 C30.6860101,34.6800613 30.2559549,34.8571429 29.75,34.8571429 L4.25,34.8571429 C3.74404509,34.8571429 3.31398987,34.6800613 2.95982143,34.3258929 C2.60565299,33.9717244 2.42857143,33.5416692 2.42857143,33.0357143 L2.42857143,2.67857143 C2.42857143,2.17261652 2.60565299,1.74256129 2.95982143,1.38839286 C3.31398987,1.03422442 3.74404509,0.857142857 4.25,0.857142857 L21.25,0.857142857 C21.7559549,0.857142857 22.312497,0.983629688 22.9196429,1.23660714 C23.5267887,1.4895846 24.0074387,1.79315299 24.3616071,2.14732143 L30.28125,8.06696429 Z M21.8571429,3.4375 L21.8571429,10.5714286 L28.9910714,10.5714286 C28.8645827,10.2046113 28.7254472,9.94531326 28.5736607,9.79352679 L22.6350446,3.85491071 C22.4832582,3.70312424 22.2239602,3.56398873 21.8571429,3.4375 Z M29.1428571,32.4285714 L29.1428571,13 L21.25,13 C20.7440451,13 20.3139899,12.8229184 19.9598214,12.46875 C19.605653,12.1145816 19.4285714,11.6845263 19.4285714,11.1785714 L19.4285714,3.28571429 L4.85714286,3.28571429 L4.85714286,32.4285714 L29.1428571,32.4285714 Z M12.5412946,15.4285714 L12.5412946,17.4587054 L10.8337054,17.4587054 L12.7120536,25.7689732 C12.7752979,26.0219507 12.8195683,26.3128704 12.8448661,26.6417411 L12.8828125,27.0401786 L12.9587054,27.0401786 L13.0345982,26.6417411 C13.0472471,26.5658478 13.0693823,26.4298745 13.1010045,26.233817 C13.1326266,26.0377594 13.1610862,25.8828131 13.1863839,25.7689732 L15.9185268,15.4285714 L18.0814732,15.4285714 L20.8136161,25.7689732 C20.8389138,25.8828131 20.8705355,26.0409216 20.9084821,26.2433036 C20.9464288,26.4456855 20.9717261,26.5784967 20.984375,26.6417411 C20.984375,26.6670388 20.9906993,26.708147 21.0033482,26.765067 C21.0159971,26.8219869 21.0254836,26.8725816 21.031808,26.9168527 C21.0381325,26.9611237 21.0412946,27.002232 21.0412946,27.0401786 L21.1171875,27.0401786 L21.1551339,26.6417411 C21.1804317,26.3128704 21.2247021,26.0219507 21.2879464,25.7689732 L23.1662946,17.4587054 L21.4587054,17.4587054 L21.4587054,15.4285714 L27.1506696,15.4285714 L27.1506696,17.4587054 L25.8225446,17.4587054 L22.7109375,30 L19.6941964,30 L17.265625,20.7979911 C17.2276784,20.6841512 17.1928945,20.5197183 17.1612723,20.3046875 C17.1296501,20.0896567 17.1075149,19.9631698 17.0948661,19.9252232 L17.0379464,19.4698661 L16.9620536,19.4698661 C16.9620536,19.5710571 16.9494049,19.7228413 16.9241071,19.9252232 C16.8861605,20.2540939 16.8229171,20.5450136 16.734375,20.7979911 L14.3058036,30 L11.2890625,30 L8.17745536,17.4587054 L6.84933036,17.4587054 L6.84933036,15.4285714 L12.5412946,15.4285714 Z" transform="translate(-2)"/>
</svg>
