<svg xmlns="http://www.w3.org/2000/svg" width="30" height="35" viewBox="0 0 30 35">
  <path fill="#7F8FA4" fill-rule="evenodd" d="M12.1428571,8.14285714 L12.1428571,5.71428571 L14.5714286,5.71428571 L14.5714286,8.14285714 L12.1428571,8.14285714 Z M14.5714286,10.5714286 L14.5714286,8.14285714 L17,8.14285714 L17,10.5714286 L14.5714286,10.5714286 Z M12.1428571,13 L12.1428571,10.5714286 L14.5714286,10.5714286 L14.5714286,13 L12.1428571,13 Z M14.5714286,15.4285714 L14.5714286,13 L17,13 L17,15.4285714 L14.5714286,15.4285714 Z M30.28125,8.06696429 C30.6354184,8.42113272 30.9389868,8.90178268 31.1919643,9.50892857 C31.4449417,10.1160745 31.5714286,10.6726165 31.5714286,11.1785714 L31.5714286,33.0357143 C31.5714286,33.5416692 31.394347,33.9717244 31.0401786,34.3258929 C30.6860101,34.6800613 30.2559549,34.8571429 29.75,34.8571429 L4.25,34.8571429 C3.74404509,34.8571429 3.31398987,34.6800613 2.95982143,34.3258929 C2.60565299,33.9717244 2.42857143,33.5416692 2.42857143,33.0357143 L2.42857143,2.67857143 C2.42857143,2.17261652 2.60565299,1.74256129 2.95982143,1.38839286 C3.31398987,1.03422442 3.74404509,0.857142857 4.25,0.857142857 L21.25,0.857142857 C21.7559549,0.857142857 22.312497,0.983629688 22.9196429,1.23660714 C23.5267888,1.4895846 24.0074387,1.79315299 24.3616071,2.14732143 L30.28125,8.06696429 Z M21.8571429,3.4375 L21.8571429,10.5714286 L28.9910714,10.5714286 C28.8645827,10.2046113 28.7254472,9.94531326 28.5736607,9.79352679 L22.6350446,3.85491071 C22.4832582,3.70312424 22.2239602,3.56398873 21.8571429,3.4375 Z M29.1428571,32.4285714 L29.1428571,13 L21.25,13 C20.7440451,13 20.3139899,12.8229184 19.9598214,12.46875 C19.605653,12.1145816 19.4285714,11.6845263 19.4285714,11.1785714 L19.4285714,3.28571429 L17,3.28571429 L17,5.71428571 L14.5714286,5.71428571 L14.5714286,3.28571429 L4.85714286,3.28571429 L4.85714286,32.4285714 L29.1428571,32.4285714 Z M17.2466518,18.7488839 L19.2767857,25.3705357 C19.3779767,25.7120553 19.4285714,26.040921 19.4285714,26.3571429 C19.4285714,27.4069993 18.9700567,28.2765963 18.0530134,28.9659598 C17.1359701,29.6553234 15.9754534,30 14.5714286,30 C13.1674037,30 12.006887,29.6553234 11.0898438,28.9659598 C10.1728005,28.2765963 9.71428571,27.4069993 9.71428571,26.3571429 C9.71428571,26.040921 9.76488045,25.7120553 9.86607143,25.3705357 C10.1316978,24.5736567 10.8906187,22.0692175 12.1428571,17.8571429 L12.1428571,15.4285714 L14.5714286,15.4285714 L14.5714286,17.8571429 L16.0703125,17.8571429 C16.3485877,17.8571429 16.595237,17.9393593 16.8102679,18.1037946 C17.0252987,18.26823 17.1707585,18.4832576 17.2466518,18.7488839 Z M14.5714286,27.5714286 C15.2418188,27.5714286 15.8141717,27.4512661 16.2885045,27.2109375 C16.7628372,26.9706089 17,26.6860135 17,26.3571429 C17,26.0282722 16.7628372,25.7436768 16.2885045,25.5033482 C15.8141717,25.2630196 15.2418188,25.1428571 14.5714286,25.1428571 C13.9010383,25.1428571 13.3286854,25.2630196 12.8543527,25.5033482 C12.3800199,25.7436768 12.1428571,26.0282722 12.1428571,26.3571429 C12.1428571,26.6860135 12.3800199,26.9706089 12.8543527,27.2109375 C13.3286854,27.4512661 13.9010383,27.5714286 14.5714286,27.5714286 Z" transform="translate(-2)"/>
</svg>
