<svg xmlns="http://www.w3.org/2000/svg" width="30" height="35" viewBox="0 0 30 35">
  <path fill="#7F8FA4" fill-rule="evenodd" d="M30.28125,8.06696429 C30.6354184,8.42113272 30.9389868,8.90178268 31.1919643,9.50892857 C31.4449417,10.1160745 31.5714286,10.6726165 31.5714286,11.1785714 L31.5714286,33.0357143 C31.5714286,33.5416692 31.394347,33.9717244 31.0401786,34.3258929 C30.6860101,34.6800613 30.2559549,34.8571429 29.75,34.8571429 L4.25,34.8571429 C3.74404509,34.8571429 3.31398987,34.6800613 2.95982143,34.3258929 C2.60565299,33.9717244 2.42857143,33.5416692 2.42857143,33.0357143 L2.42857143,2.67857143 C2.42857143,2.17261652 2.60565299,1.74256129 2.95982143,1.38839286 C3.31398987,1.03422442 3.74404509,0.857142857 4.25,0.857142857 L21.25,0.857142857 C21.7559549,0.857142857 22.312497,0.983629688 22.9196429,1.23660714 C23.5267887,1.4895846 24.0074387,1.79315299 24.3616071,2.14732143 L30.28125,8.06696429 Z M21.8571429,3.4375 L21.8571429,10.5714286 L28.9910714,10.5714286 C28.8645827,10.2046113 28.7254472,9.94531326 28.5736607,9.79352679 L22.6350446,3.85491071 C22.4832582,3.70312424 22.2239602,3.56398873 21.8571429,3.4375 Z M29.1428571,32.4285714 L29.1428571,13 L21.25,13 C20.7440451,13 20.3139899,12.8229184 19.9598214,12.46875 C19.605653,12.1145816 19.4285714,11.6845263 19.4285714,11.1785714 L19.4285714,3.28571429 L4.85714286,3.28571429 L4.85714286,32.4285714 L29.1428571,32.4285714 Z M19.390625,21.1774554 C19.8080378,21.506326 20.3392825,21.8604892 20.984375,22.2399554 C21.7306585,22.1514132 22.4706065,22.1071429 23.2042411,22.1071429 C25.0636254,22.1071429 26.1830338,22.4170356 26.5625,23.0368304 C26.764882,23.3151056 26.7775306,23.6439713 26.6004464,24.0234375 C26.6004464,24.0360864 26.5941221,24.0487351 26.5814732,24.0613839 L26.5435268,24.0993304 L26.5435268,24.1183036 C26.4676335,24.5989607 26.0186053,24.8392857 25.1964286,24.8392857 C24.5892827,24.8392857 23.8619834,24.7127989 23.0145089,24.4598214 C22.1670345,24.206844 21.3448701,23.8716539 20.5479911,23.4542411 C17.7525902,23.757814 15.2734483,24.2827344 13.1104911,25.0290179 C11.1752135,28.3430225 9.64472289,30 8.51897321,30 C8.32924012,30 8.15215856,29.9557296 7.98772321,29.8671875 L7.53236607,29.6395089 C7.5197172,29.6268601 7.48177115,29.5952383 7.41852679,29.5446429 C7.29203806,29.4181541 7.25409201,29.1904778 7.3046875,28.8616071 C7.41852735,28.3556522 7.77269048,27.776975 8.3671875,27.125558 C8.96168452,26.4741411 9.7964976,25.8638421 10.8716518,25.2946429 C11.048736,25.180803 11.1941959,25.2187491 11.3080357,25.4084821 C11.3333335,25.4337799 11.3459821,25.4590773 11.3459821,25.484375 C12.0037235,24.4092208 12.6804281,23.1633255 13.3761161,21.7466518 C14.2362394,20.0264051 14.8939709,18.3694276 15.3493304,16.7756696 C15.0457574,15.7384621 14.852865,14.7297296 14.7706473,13.749442 C14.6884296,12.7691543 14.7295379,11.9628008 14.8939732,11.3303571 C15.0331108,10.8244022 15.2987332,10.5714286 15.6908482,10.5714286 L16.1082589,10.5714286 C16.399183,10.5714286 16.620535,10.6662937 16.7723214,10.8560268 C17.0000011,11.1216531 17.0569202,11.5517083 16.9430804,12.1462054 C16.9177826,12.2220986 16.8924852,12.2726933 16.8671875,12.2979911 C16.8798364,12.3359377 16.8861607,12.3865324 16.8861607,12.4497768 L16.8861607,13.0189732 C16.860863,14.5747846 16.7723222,15.7890581 16.6205357,16.6618304 C17.3162237,18.7362455 18.2395776,20.2414388 19.390625,21.1774554 Z M8.46205357,28.9754464 C9.11979496,28.6718735 9.98622974,27.6726275 11.0613839,25.9776786 C10.4162914,26.4836335 9.86291153,27.0148782 9.40122768,27.5714286 C8.93954382,28.127979 8.62648892,28.5959802 8.46205357,28.9754464 Z M16.0133929,11.5200893 C15.8236598,12.0513419 15.8110111,12.886155 15.9754464,14.0245536 C15.9880953,13.9360115 16.0323657,13.6577404 16.1082589,13.1897321 C16.1082589,13.1517855 16.1525293,12.8798388 16.2410714,12.3738839 C16.2537203,12.3232884 16.2790177,12.2726937 16.3169643,12.2220982 C16.3043154,12.2094493 16.2979911,12.1968007 16.2979911,12.1841518 C16.2853422,12.158854 16.2790179,12.139881 16.2790179,12.1272321 C16.266369,11.8489569 16.1841525,11.6212806 16.0323661,11.4441964 C16.0323661,11.4568453 16.0260417,11.469494 16.0133929,11.4821429 L16.0133929,11.5200893 Z M13.6607143,24.0613839 C15.3683121,23.3783448 17.1644251,22.8660731 19.0491071,22.5245536 C19.0238094,22.5119047 18.941593,22.4518235 18.8024554,22.344308 C18.6633178,22.2367926 18.5621283,22.151414 18.4988839,22.0881696 C17.5375696,21.2406952 16.7343782,20.1276111 16.0892857,18.7488839 C15.7477661,19.836687 15.2228458,21.0825823 14.5145089,22.4866071 C14.1350427,23.194944 13.8504474,23.7198644 13.6607143,24.0613839 Z M25.9174107,23.7578125 C25.6138378,23.4542396 24.72843,23.3024554 23.2611607,23.3024554 C24.222475,23.6566238 25.0066934,23.8337054 25.6138393,23.8337054 C25.7909235,23.8337054 25.9047617,23.827381 25.9553571,23.8147321 C25.9553571,23.8020833 25.9427085,23.7831102 25.9174107,23.7578125 Z" transform="translate(-2)"/>
</svg>
