<svg xmlns="http://www.w3.org/2000/svg" width="34" height="34" viewBox="0 0 34 34">
  <g fill="none" fill-rule="evenodd">
    <polygon fill="#3A559F" fill-rule="nonzero" points="0 0 0 33.98 33.98 33.98 33.98 0"/>
    <path fill="#FFF" d="M22.703125,7.99107143 L22.703125,10.9375 L20.9508929,10.9375 C20.3110087,10.9375 19.8794654,11.0714272 19.65625,11.3392857 C19.4330346,11.6071442 19.3214286,12.0089259 19.3214286,12.5446429 L19.3214286,14.6540179 L22.5915179,14.6540179 L22.15625,17.9575893 L19.3214286,17.9575893 L19.3214286,26.4285714 L15.90625,26.4285714 L15.90625,17.9575893 L13.0602679,17.9575893 L13.0602679,14.6540179 L15.90625,14.6540179 L15.90625,12.2209821 C15.90625,10.8370467 16.2931509,9.76376869 17.0669643,9.00111607 C17.8407777,8.23846345 18.8712733,7.85714286 20.1584821,7.85714286 C21.2522376,7.85714286 22.1004434,7.90178527 22.703125,7.99107143 Z"/>
  </g>
</svg>
