<svg xmlns="http://www.w3.org/2000/svg" xmlns:xlink="http://www.w3.org/1999/xlink" width="30" height="30" viewBox="0 0 30 30">
  <defs>
    <path id="ic-hotline-a" d="M1.30434783,1.30434783 L1.30434783,28.6956522 L28.6956522,28.6956522 L28.6956522,1.30434783 L1.30434783,1.30434783 Z M0,0 L30,0 L30,30 L0,30 L0,0 Z M15,8.06400458 C16.0378999,8.06400458 16.9994693,8.32347567 17.8847368,8.84242563 C18.7496534,9.3512001 19.4364887,10.0380353 19.9452632,10.9029519 C20.4642131,11.7882195 20.7236842,12.7497889 20.7236842,13.7876888 L20.7236842,20.1676888 C20.7236842,20.5034799 20.6371938,20.8189154 20.4642105,21.1140046 C20.2912272,21.4090938 20.0571945,21.6431265 19.7621053,21.8161098 C19.4670161,21.9890932 19.1515806,22.0755835 18.8157895,22.0755835 L15,22.0755835 L15,20.7934783 L19.4415789,20.7934783 L19.4415789,20.1676888 L16.9078947,20.1676888 L16.9078947,15.0697941 L19.4415789,15.0697941 L19.4415789,13.7876888 C19.4415789,12.9736496 19.2431599,12.2257624 18.8463158,11.5440046 C18.4494717,10.8724223 17.9152665,10.3382171 17.2436842,9.941373 C16.5619264,9.54452891 15.8140392,9.34610984 15,9.34610984 C14.1859608,9.34610984 13.4380736,9.54452891 12.7563158,9.941373 C12.0847335,10.3382171 11.5505283,10.8724223 11.1536842,11.5440046 C10.7568401,12.2257624 10.5584211,12.9736496 10.5584211,13.7876888 L10.5584211,15.0697941 L13.0921053,15.0697941 L13.0921053,20.1676888 L11.1842105,20.1676888 C10.8484194,20.1676888 10.5329839,20.0811984 10.2378947,19.9082151 C9.94280554,19.7352318 9.70877279,19.501199 9.53578947,19.2061098 C9.36280615,18.9110206 9.27631579,18.5955852 9.27631579,18.2597941 L9.27631579,13.7876888 C9.27631579,12.7497889 9.53578688,11.7882195 10.0547368,10.9029519 C10.5635113,10.0380353 11.2503466,9.3512001 12.1152632,8.84242563 C13.0005307,8.32347567 13.9621001,8.06400458 15,8.06400458 Z"/>
  </defs>
  <use fill="#323845" xlink:href="#ic-hotline-a"/>
</svg>
