<svg xmlns="http://www.w3.org/2000/svg" width="18" height="20" viewBox="0 0 18 20">
  <path fill="#7F8FA4" d="M12.300693,15.8841406 C12.0239884,15.8841406 11.7988767,16.1065625 11.7988767,16.3799219 C11.7988767,16.6533203 12.0239884,16.8757422 12.300693,16.8757422 C12.5773977,16.8757422 12.8024698,16.6533203 12.8024698,16.3799219 C12.8024698,16.1065625 12.5773977,15.8841406 12.300693,15.8841406 Z M8.05674186,11.6825781 C7.78003721,11.6825781 7.55492558,11.905 7.55492558,12.1783984 C7.55492558,12.4517969 7.78003721,12.6742187 8.05674186,12.6742187 C8.33344651,12.6742187 8.5585186,12.4517969 8.5585186,12.1783984 C8.5585186,11.905 8.33340698,11.6825781 8.05674186,11.6825781 Z M7.06085814,1.42108547e-14 L7.06085814,4.4784375 L7.06085814,4.4784375 C7.06085814,5.03072225 6.61314289,5.4784375 6.06085814,5.4784375 L1.57306047,5.4784375 L1.57306047,19 L1.57306047,19 C1.57306047,19.5522847 2.02077572,20 2.57306047,20 L17.5,20 L17.5,20 C18.0522847,20 18.5,19.5522847 18.5,19 L18.5,1 L18.5,1 C18.5,0.44771525 18.0522847,1.41094017e-14 17.5,1.42108547e-14 L7.06085814,1.42108547e-14 Z M6.96188256,16.6574023 L12.5568198,11.1293164 L12.5568198,11.1293164 C12.7892184,10.8996946 13.1630746,10.8996946 13.3954733,11.1293164 L13.3954733,11.1293164 L13.3954733,11.1293164 C13.6242939,11.355403 13.6265103,11.7241781 13.4004237,11.9529987 C13.3987835,11.9546588 13.3971333,11.956309 13.3954733,11.9579492 L7.80053605,17.4860352 L7.80053605,17.4860352 C7.56813741,17.715657 7.19428119,17.715657 6.96188256,17.4860352 L6.96188256,17.4860352 L6.96188256,17.4860352 C6.73306193,17.2599486 6.73084552,16.8911734 6.95693209,16.6623528 C6.95857231,16.6606928 6.9602225,16.6590426 6.96188256,16.6574023 Z M6.36887907,12.1783984 C6.36887907,11.2588281 7.12605116,10.5107031 8.05674186,10.5107031 C8.98739302,10.5107031 9.74456512,11.2588281 9.74456512,12.1783984 C9.74456512,13.0979687 8.98739302,13.8460937 8.05674186,13.8460937 C7.12605116,13.8460937 6.36887907,13.0979687 6.36887907,12.1783984 Z M12.300693,18.0476172 C11.3700023,18.0476172 10.6128302,17.2994922 10.6128302,16.3799219 C10.6128302,15.4603516 11.3700023,14.7122656 12.300693,14.7122656 C13.2313837,14.7122656 13.9885163,15.4603906 13.9885163,16.3799219 C13.9885163,17.2994922 13.2313837,18.0476172 12.300693,18.0476172 Z M13.7401276,8.27746094 L6.33293285,8.27746094 L6.33293285,8.27746094 C6.0093285,8.27746094 5.74699535,8.01512778 5.74699535,7.69152344 L5.74699535,7.69152344 L5.74699535,7.69152344 C5.74699535,7.36791909 6.0093285,7.10558594 6.33293285,7.10558594 L13.7401276,7.10558594 L13.7401276,7.10558594 C14.063732,7.10558594 14.3260651,7.36791909 14.3260651,7.69152344 L14.3260651,7.69152344 L14.3260651,7.69152344 C14.3260651,8.01512778 14.063732,8.27746094 13.7401276,8.27746094 Z M13.7401276,5.55652344 L9.2650375,5.55652344 L9.2650375,5.55652344 C8.94143315,5.55652344 8.6791,5.29419028 8.6791,4.97058594 L8.6791,4.97058594 L8.6791,4.97058594 C8.6791,4.64698159 8.94143315,4.38464844 9.2650375,4.38464844 L13.7401276,4.38464844 L13.7401276,4.38464844 C14.063732,4.38464844 14.3260651,4.64698159 14.3260651,4.97058594 L14.3260651,4.97058594 L14.3260651,4.97058594 C14.3260651,5.29419028 14.063732,5.55652344 13.7401276,5.55652344 Z M1.91827907,4.3065625 L4.87481163,4.3065625 L4.87481163,4.3065625 C5.42709638,4.3065625 5.87481163,3.85884725 5.87481163,3.3065625 L5.87481163,0.345625 L1.91827907,4.3065625 Z" transform="translate(-1)"/>
</svg>
