<svg xmlns="http://www.w3.org/2000/svg" width="40" height="40" viewBox="0 0 40 40">
  <path fill="#FFF" d="M39.8353125,19.5386355 L38.0452344,17.5899415 L39.2689844,15.2453021 C39.4190625,14.9577388 39.3239062,14.6033528 39.0498437,14.4292398 L36.8155469,13.0092788 L37.3894531,10.42846 C37.4598437,10.1118908 37.2760156,9.79430799 36.96625,9.69684211 L34.4398438,8.90245614 L34.325,6.26128655 C34.3108594,5.93730994 34.0510156,5.67797271 33.7264062,5.66385965 L31.0800781,5.54923977 L30.2841406,3.02775828 C30.1864844,2.71851852 29.8680469,2.53504873 29.5510937,2.60538012 L26.9652344,3.17816764 L25.5425,0.948226121 C25.3680469,0.674697856 25.0129687,0.579727096 24.7248438,0.729512671 L22.375625,1.95087719 L20.4232031,0.164366472 C20.18375,-0.0547368421 19.8160938,-0.0547368421 19.5767187,0.164366472 L17.6242188,1.95087719 L15.2750781,0.729512671 C14.986875,0.579727096 14.631875,0.674775828 14.4574219,0.948226121 L13.0347656,3.17816764 L10.4489063,2.60538012 C10.1319531,2.53528265 9.81351563,2.71859649 9.71585938,3.02775828 L8.91992188,5.54923977 L6.27359375,5.66385965 C5.94898438,5.67797271 5.68914063,5.93730994 5.675,6.26128655 L5.56015625,8.90245614 L3.03375,9.69684211 C2.72390625,9.79430799 2.54007813,10.1118908 2.61054688,10.42846 L3.18445313,13.0092788 L0.95015625,14.4292398 C0.676171875,14.6033528 0.58109375,14.9577388 0.731015625,15.2453021 L1.95476563,17.5899415 L0.1646875,19.5386355 C-0.05484375,19.7776998 -0.05484375,20.1444834 0.1646875,20.3834698 L1.95476563,22.3321637 L0.7309375,24.6767251 C0.580859375,24.9642885 0.676015625,25.3186745 0.950078125,25.4927875 L3.184375,26.9127485 L2.61046875,29.4935673 C2.54007813,29.8101365 2.72390625,30.1277193 3.03367188,30.2251852 L5.56007813,31.0195712 L5.67492188,33.6607407 C5.6890625,33.9847173 5.94890625,34.2440546 6.27351563,34.2581676 L8.91984375,34.3727875 L9.71578125,36.894269 C9.8134375,37.2035088 10.131875,37.3867446 10.4488281,37.3166472 L13.0346875,36.7438596 L14.4574219,38.9738012 C14.6317969,39.2472515 14.9867969,39.3421442 15.2750781,39.1925146 L17.6242969,37.9711501 L19.5767969,39.7577388 C19.6965625,39.8672904 19.8482812,39.9221053 20,39.9221053 C20.1517188,39.9221053 20.3035156,39.8673684 20.4232031,39.7577388 L22.3757031,37.9711501 L24.7249219,39.1925146 C25.013125,39.3423002 25.368125,39.2472515 25.5425781,38.9738012 L26.9653125,36.7438596 L29.5511719,37.3166472 C29.8683594,37.3869006 30.1865625,37.2035867 30.2842187,36.894269 L31.0801562,34.3727875 L33.7264844,34.2581676 C34.0510937,34.2440546 34.3109375,33.9847173 34.3250781,33.6607407 L34.4399219,31.0195712 L36.9663281,30.2251852 C37.2761719,30.1277193 37.46,29.8101365 37.3895312,29.4935673 L36.815625,26.9127485 L39.0499219,25.4927875 C39.3239062,25.3186745 39.4189844,24.9642885 39.2690625,24.6767251 L38.0453125,22.3320858 L39.8353906,20.3833918 C40.0548438,20.1444055 40.0548438,19.7775439 39.8353125,19.5386355 Z M36.8254687,21.8100585 C36.6474219,22.0038207 36.6099219,22.2880312 36.7316406,22.5212476 L37.8928125,24.7460429 L35.7726562,26.0933333 C35.5504688,26.2345419 35.4405469,26.4994932 35.4976563,26.7561014 L36.0422656,29.2049903 L33.6449219,29.9586745 C33.3936719,30.0376608 33.21875,30.2651072 33.2073437,30.5277193 L33.0983594,33.0339181 L30.5872656,33.1426901 C30.3241406,33.1540741 30.09625,33.328655 30.0171094,33.5794152 L29.2619531,35.9720858 L26.8082813,35.428538 C26.5513281,35.3716179 26.2857813,35.4813255 26.1442188,35.7030019 L24.7942969,37.8190253 L22.5651563,36.660117 C22.3314844,36.5387135 22.0467188,36.5761404 21.8525781,36.7537622 L19.9999219,38.4489669 L18.1472656,36.7537622 C18.0289844,36.645614 17.8772656,36.5893957 17.7239063,36.5893957 C17.6253906,36.5893957 17.5260938,36.6125536 17.4346875,36.660039 L15.2055469,37.8189474 L13.855625,35.702924 C13.7140625,35.4811696 13.4483594,35.37154 13.1915625,35.42846 L10.7378906,35.9720078 L9.98273438,33.5793372 C9.90359375,33.328577 9.67570313,33.1539961 9.41257813,33.1426121 L6.90148438,33.0338402 L6.7925,30.5276413 C6.78109375,30.2650292 6.60617188,30.0375828 6.35492188,29.9585965 L3.95757813,29.2049123 L4.5021875,26.7560234 C4.55929688,26.4994152 4.44929688,26.2345419 4.2271875,26.0932554 L2.10703125,24.7460429 L3.26820313,22.5212476 C3.38984375,22.2880312 3.35234375,22.0038207 3.174375,21.8100585 L1.47601563,19.9610136 L3.17453125,18.1119688 C3.35257813,17.9182066 3.39007813,17.6339961 3.26835938,17.4007797 L2.1071875,15.1759844 L4.22734375,13.828694 C4.44953125,13.6874854 4.55945313,13.4225341 4.50234375,13.1659259 L3.95773438,10.717037 L6.35507813,9.96335283 C6.60632813,9.88436647 6.78125,9.65692008 6.79265625,9.39430799 L6.90164063,6.88810916 L9.41273438,6.77933723 C9.67585938,6.76795322 9.90375,6.59337232 9.98289063,6.34261209 L10.7380469,3.94994152 L13.1917188,4.49348928 C13.4488281,4.55033138 13.7142188,4.44077973 13.8557813,4.21902534 L15.2057031,2.10300195 L17.4348438,3.26191033 C17.6685937,3.38331384 17.9532812,3.34588694 18.1474219,3.16826511 L20.0000781,1.47306043 L21.8527344,3.16826511 C22.046875,3.34596491 22.3317188,3.38339181 22.5653125,3.26191033 L24.7944531,2.10300195 L26.144375,4.21902534 C26.2858594,4.44077973 26.5513281,4.55033138 26.8084375,4.49348928 L29.2621094,3.94994152 L30.0172656,6.34261209 C30.0964062,6.59337232 30.3242969,6.76795322 30.5874219,6.77933723 L33.0985156,6.88810916 L33.2075,9.39430799 C33.2189062,9.65692008 33.3938281,9.88436647 33.6450781,9.96335283 L36.0424219,10.717037 L35.4978125,13.1659259 C35.4407031,13.4225341 35.5507031,13.6874074 35.7728125,13.828694 L37.8929687,15.1759844 L36.7317969,17.4007797 C36.6101562,17.6339961 36.6476562,17.9182066 36.825625,18.1119688 L38.5241406,19.9610136 L36.8254687,21.8100585 Z M31.2972656,17.3387914 C31.1557813,16.1966472 30.1388281,15.3353606 28.931875,15.3353606 L25.125,15.3353606 C26.1503906,14.1850292 26.8205469,12.8751657 26.95,11.700039 C27.0290625,10.9823002 26.806875,10.2698635 26.3402344,9.74534113 C25.91375,9.26588694 25.3305469,8.99867446 24.6980469,8.99282651 C24.0774219,8.98643275 23.4951563,9.22276803 23.0567188,9.6562963 C22.6232813,10.0849123 22.3834375,10.6559064 22.380625,11.2652632 C22.3583594,11.3986745 22.1232031,11.8586355 21.5478125,12.4047563 C21.0767188,12.8520078 20.2629688,13.4668226 19.0614844,13.8561404 C18.5903906,14.0087329 18.1599219,14.2899025 17.781875,14.69154 C17.4097656,15.0870175 16.726875,15.7283431 15.865625,16.1727875 C15.6808594,15.6842885 15.2088281,15.3353606 14.6555469,15.3353606 L10.6471875,15.3353606 C9.9334375,15.3353606 9.3528125,15.9148538 9.3528125,16.6272125 L9.3528125,27.9621053 C9.3528125,28.6744639 9.9334375,29.2539571 10.6471875,29.2539571 L14.6555469,29.2539571 C15.3692969,29.2539571 15.9499219,28.6744639 15.9499219,27.9621053 L15.9499219,27.9204678 L26.9539063,27.9204678 C28.0358594,27.9204678 28.9733594,27.2220663 29.2339063,26.2220663 C29.3670313,25.711423 29.3267969,25.1959454 29.1275781,24.7355166 C29.6548438,24.3080702 29.9790625,23.6591813 29.9790625,22.9614035 C29.9790625,22.6531774 29.9153125,22.3502534 29.794375,22.0694737 C30.3223438,21.6420273 30.6471875,20.9926706 30.6471875,20.294425 C30.6471875,19.9869786 30.58375,19.6847563 30.4632813,19.4044444 C31.06875,18.9178168 31.3974219,18.1465107 31.2972656,17.3387914 Z M14.6972656,27.9620273 C14.6972656,27.9850292 14.6785938,28.0036647 14.6555469,28.0036647 L10.6471875,28.0036647 C10.6241406,28.0036647 10.6054688,27.9850292 10.6054688,27.9620273 L10.6054688,16.6271345 C10.6054688,16.6041326 10.6241406,16.5854971 10.6471875,16.5854971 L14.6555469,16.5854971 C14.6785938,16.5854971 14.6972656,16.6041326 14.6972656,16.6271345 L14.6972656,27.9620273 Z M29.3754687,18.6004678 C29.1805469,18.6717349 29.0336719,18.8349318 28.9834375,19.0359454 C28.9330469,19.2369591 28.9858594,19.4498246 29.124375,19.6042885 C29.2477344,19.7418324 29.3946875,19.9732554 29.3946875,20.2945029 C29.3946875,20.7262378 29.1185156,21.117271 28.7075,21.2676023 C28.5125781,21.3388694 28.3657031,21.5020663 28.3153125,21.7030799 C28.2649219,21.9040936 28.3177344,22.1169591 28.45625,22.271423 C28.5796094,22.4089669 28.7265625,22.6403899 28.7265625,22.9616374 C28.7265625,23.3933723 28.4503906,23.7844055 28.039375,23.9347368 C27.8444531,24.0060039 27.6975781,24.1691228 27.6471875,24.3701365 C27.5967969,24.5711501 27.6496094,24.7840156 27.7880469,24.9384795 C27.92875,25.0954386 28.1460937,25.4298635 28.0216406,25.9075244 C27.9064062,26.3495517 27.4573437,26.6704873 26.9538281,26.6704873 L15.9499219,26.6704873 L15.9499219,17.5105653 C17.2132031,16.9879922 18.195625,16.0781287 18.695,15.5475244 C18.926875,15.3010526 19.1804687,15.1321637 19.4482812,15.0453021 C20.9225,14.5676413 21.9146094,13.7985185 22.4871875,13.2374269 C23.2048437,12.534191 23.6332031,11.8010916 23.6332031,11.2762573 C23.6332031,10.9989864 23.7415625,10.7391033 23.9383594,10.5444834 C24.1375781,10.3474464 24.4014062,10.2416374 24.6864844,10.242963 C25.0375781,10.2462378 25.2702344,10.4254971 25.4034375,10.5753606 C25.6320312,10.8322807 25.7445312,11.2017154 25.7047656,11.5634308 C25.5679687,12.8054581 24.5727344,14.3407407 23.1692969,15.4746199 C22.963125,15.6412476 22.8844531,15.9194542 22.9729687,16.1690448 C23.0614844,16.4186355 23.2980469,16.5854971 23.5633594,16.5854971 L28.9317187,16.5854971 C29.4980469,16.5854971 29.9910937,16.9837037 30.0540625,17.4920858 C30.1142187,17.9765302 29.8350781,18.4322807 29.3754687,18.6004678 Z M12.6513281,24.6699415 C11.9375781,24.6699415 11.3569531,25.2494347 11.3569531,25.9617934 C11.3569531,26.674152 11.9375781,27.2536452 12.6513281,27.2536452 C13.3650781,27.2536452 13.9457031,26.674152 13.9457031,25.9617934 C13.9457031,25.2494347 13.3650781,24.6699415 12.6513281,24.6699415 Z"/>
</svg>
