<svg xmlns="http://www.w3.org/2000/svg" width="60" height="60" viewBox="0 0 60 60">
  <path fill="#FC447C" d="M59.75302,29.3664035 L57.0679028,26.4433626 L58.9035278,22.9264035 C59.128645,22.4950585 58.9859106,21.9634795 58.5748169,21.7023099 L55.2233716,19.5723684 L56.084231,15.7011404 C56.1898169,15.2262865 55.9140747,14.7499123 55.4494263,14.6037135 L51.6598169,13.4121345 L51.4875513,9.45038012 C51.4663403,8.9644152 51.0765747,8.57540936 50.5896606,8.55423977 L46.6201685,8.38230994 L45.4262622,4.60008772 C45.2797778,4.13622807 44.8021216,3.86102339 44.3266919,3.96652047 L40.4479028,4.82570175 L38.3138013,1.48078947 C38.0521216,1.07049708 37.5195044,0.928040936 37.0873169,1.1527193 L33.5634888,2.98476608 L30.634856,0.305 C30.2756763,-0.0236549708 29.7241919,-0.0236549708 29.3651294,0.305 L26.4363794,2.98476608 L22.9126685,1.1527193 C22.4803638,0.928040936 21.9478638,1.07061404 21.6861841,1.48078947 L19.5521997,4.82570175 L15.6734106,3.96652047 C15.197981,3.86137427 14.7203247,4.13634503 14.5738403,4.60008772 L13.3799341,8.38230994 L9.41044189,8.55423977 C8.92352783,8.57540936 8.53376221,8.9644152 8.51255127,9.45038012 L8.34028564,13.4121345 L4.55067627,14.6037135 C4.08591064,14.7499123 3.81016846,15.2262865 3.91587158,15.7011404 L4.77673096,19.5723684 L1.42528564,21.7023099 C1.01430908,21.9634795 0.871691894,22.4950585 1.09657471,22.9264035 L2.93219971,26.4433626 L0.247082519,29.3664035 C-0.0822143564,29.725 -0.0822143564,30.2751754 0.247082519,30.633655 L2.93219971,33.5566959 L1.09645752,37.073538 C0.871340331,37.504883 1.01407471,38.036462 1.42516846,38.2976316 L4.77661377,40.4275731 L3.91575439,44.2988012 C3.81016846,44.773655 4.08591064,45.2500292 4.55055908,45.3962281 L8.34016846,46.587807 L8.51243408,50.5495614 C8.53364502,51.0355263 8.92341064,51.4245322 9.41032471,51.4457018 L13.3798169,51.6176316 L14.5737231,55.3998538 C14.7202075,55.8637135 15.1978638,56.1385673 15.6732935,56.0334211 L19.5520825,55.1742398 L21.6861841,58.519152 C21.9477466,58.9293275 22.4802466,59.0716667 22.9126685,58.8472222 L26.4364966,57.0151754 L29.3652466,59.6950585 C29.544895,59.859386 29.7724731,59.9416082 30.0000513,59.9416082 C30.2276294,59.9416082 30.4553247,59.8595029 30.634856,59.6950585 L33.563606,57.0151754 L37.0874341,58.8472222 C37.5197388,59.0719006 38.0522388,58.9293275 38.3139185,58.519152 L40.44802,55.1742398 L44.3268091,56.0334211 C44.8025903,56.1388012 45.279895,55.8638304 45.4263794,55.3998538 L46.6202856,51.6176316 L50.5897778,51.4457018 C51.0766919,51.4245322 51.4664575,51.0355263 51.4876685,50.5495614 L51.6599341,46.587807 L55.4495435,45.3962281 C55.9143091,45.2500292 56.1900513,44.773655 56.0843481,44.2988012 L55.2234888,40.4275731 L58.5749341,38.2976316 C58.9859106,38.036462 59.1285278,37.504883 58.903645,37.073538 L57.06802,33.5565789 L59.7531372,30.633538 C60.0823169,30.2750585 60.0823169,29.7247661 59.75302,29.3664035 Z M55.2382544,32.773538 C54.9711841,33.0641813 54.9149341,33.4904971 55.0975122,33.8403216 L56.83927,37.1775146 L53.6590356,39.1984503 C53.3257544,39.4102632 53.1608716,39.8076901 53.2465356,40.1926023 L54.0634497,43.8659357 L50.4674341,44.996462 C50.0905591,45.1149415 49.8281763,45.4561111 49.8110669,45.8500292 L49.6475903,49.6093275 L45.8809497,49.7724854 C45.4862622,49.7895614 45.1444263,50.0514327 45.0257153,50.4275731 L43.892981,54.0165789 L40.2124731,53.2012573 C39.8270435,53.1158772 39.4287231,53.2804386 39.2163794,53.6129532 L37.1914966,56.7869883 L33.8477856,55.0486257 C33.4972778,54.8665205 33.0701294,54.9226608 32.7789185,55.1890936 L29.9999341,57.7319006 L27.2209497,55.1890936 C27.0435278,55.0268713 26.8159497,54.9425439 26.5859106,54.9425439 C26.4381372,54.9425439 26.2891919,54.9772807 26.1520825,55.0485088 L22.8083716,56.7868713 L20.7834888,53.6128363 C20.571145,53.2802047 20.1725903,53.1157602 19.787395,53.2011404 L16.1068872,54.016462 L14.9741528,50.4274561 C14.8554419,50.0513158 14.513606,49.7894444 14.1189185,49.7723684 L10.3522778,49.6092105 L10.1888013,45.8499123 C10.1716919,45.4559942 9.90930908,45.1148246 9.53243408,44.996345 L5.93641846,43.8658187 L6.75333252,40.1924854 C6.83899658,39.8075731 6.67399658,39.4102632 6.34083252,39.1983333 L3.16059814,37.1775146 L4.90235596,33.8403216 C5.08481689,33.4904971 5.02856689,33.0641813 4.76161377,32.773538 L2.21407471,29.9999708 L4.76184814,27.2264035 C5.02891846,26.9357602 5.08516846,26.5094444 4.90259033,26.1596199 L3.16083252,22.8224269 L6.34106689,20.8014912 C6.67434814,20.5896784 6.83923096,20.1922515 6.75356689,19.8073392 L5.93665283,16.1340058 L9.53266846,15.0034795 C9.90954346,14.885 10.1719263,14.5438304 10.1890356,14.1499123 L10.3525122,10.390614 L14.1191528,10.2274561 C14.5138403,10.2103801 14.8556763,9.94850877 14.9743872,9.57236842 L16.1071216,5.98336257 L19.7876294,6.79868421 C20.1732935,6.88394737 20.5713794,6.71961988 20.7837231,6.3869883 L22.808606,3.21295322 L26.1523169,4.95131579 C26.5029419,5.13342105 26.9299731,5.0772807 27.2211841,4.81084795 L30.0001685,2.26804094 L32.7791528,4.81084795 C33.0703638,5.07739766 33.4976294,5.13353801 33.84802,4.95131579 L37.191731,3.21295322 L39.2166138,6.3869883 C39.4288403,6.71961988 39.8270435,6.88394737 40.2127075,6.79868421 L43.8932153,5.98336257 L45.0259497,9.57236842 C45.1446606,9.94850877 45.4864966,10.2103801 45.8811841,10.2274561 L49.6478247,10.390614 L49.8113013,14.1499123 C49.8284106,14.5438304 50.0907935,14.885 50.4676685,15.0034795 L54.0636841,16.1340058 L53.24677,19.8073392 C53.161106,20.1922515 53.326106,20.5895614 53.65927,20.8014912 L56.8395044,22.8224269 L55.0977466,26.1596199 C54.9152856,26.5094444 54.9715356,26.9357602 55.2384888,27.2264035 L57.7862622,29.9999708 L55.2382544,32.773538 Z M46.9459497,26.0666374 C46.7337231,24.3534211 45.2082935,23.0614912 43.3978638,23.0614912 L37.6875513,23.0614912 C39.2256372,21.3359942 40.2308716,19.3711988 40.4250513,17.6085088 C40.543645,16.5319006 40.2103638,15.4632456 39.5104028,14.676462 C38.8706763,13.9572807 37.9958716,13.556462 37.0471216,13.5476901 C36.1161841,13.5380994 35.2427856,13.8926023 34.5851294,14.5428947 C33.9349731,15.1858187 33.5752075,16.0423099 33.5709888,16.956345 C33.5375903,17.156462 33.184856,17.8464035 32.32177,18.6655848 C31.6151294,19.336462 30.3945044,20.2586842 28.5922778,20.8426608 C27.8856372,21.0715497 27.2399341,21.4933041 26.6728638,22.0957602 C26.1146997,22.6889766 25.0903638,23.6509649 23.7984888,24.3176316 C23.5213403,23.584883 22.8132935,23.0614912 21.9833716,23.0614912 L15.9708325,23.0614912 C14.9002075,23.0614912 14.02927,23.930731 14.02927,24.999269 L14.02927,42.0016082 C14.02927,43.0701462 14.9002075,43.939386 15.9708325,43.939386 L21.9833716,43.939386 C23.0539966,43.939386 23.9249341,43.0701462 23.9249341,42.0016082 L23.9249341,41.939152 L40.4309106,41.939152 C42.0538403,41.939152 43.4600903,40.8915497 43.8509106,39.3915497 C44.0505981,38.6255848 43.9902466,37.8523684 43.6914185,37.1617251 C44.4823169,36.5205556 44.968645,35.5472222 44.968645,34.5005556 C44.968645,34.0382164 44.87302,33.5838304 44.6916138,33.1626608 C45.4835669,32.5214912 45.9708325,31.5474561 45.9708325,30.5000877 C45.9708325,30.0389181 45.8756763,29.5855848 45.6949731,29.165117 C46.6031763,28.4351754 47.0961841,27.2782164 46.9459497,26.0666374 Z M22.0459497,42.0014912 C22.0459497,42.0359942 22.0179419,42.0639474 21.9833716,42.0639474 L15.9708325,42.0639474 C15.9362622,42.0639474 15.9082544,42.0359942 15.9082544,42.0014912 L15.9082544,24.999152 C15.9082544,24.9646491 15.9362622,24.9366959 15.9708325,24.9366959 L21.9833716,24.9366959 C22.0179419,24.9366959 22.0459497,24.9646491 22.0459497,24.999152 L22.0459497,42.0014912 Z M44.0632544,27.959152 C43.7708716,28.0660526 43.5505591,28.310848 43.4752075,28.6123684 C43.3996216,28.9138889 43.4788403,29.2331871 43.6866138,29.464883 C43.8716528,29.6711988 44.0920825,30.0183333 44.0920825,30.5002047 C44.0920825,31.147807 43.6778247,31.7343567 43.0613013,31.9598538 C42.7689185,32.0667544 42.548606,32.3115497 42.47302,32.6130702 C42.3974341,32.9145906 42.4766528,33.2338889 42.6844263,33.4655848 C42.8694653,33.6719006 43.089895,34.0190351 43.089895,34.5009064 C43.089895,35.1485088 42.6756372,35.7350585 42.0591138,35.9605556 C41.766731,36.0674561 41.5464185,36.3121345 41.4708325,36.613655 C41.3952466,36.9151754 41.4744653,37.2344737 41.6821216,37.4661696 C41.8931763,37.7016082 42.2191919,38.2032456 42.0325122,38.9197368 C41.8596606,39.5827778 41.1860669,40.0641813 40.4307935,40.0641813 L23.9249341,40.0641813 L23.9249341,26.3242982 C25.819856,25.5404386 27.2934888,24.1756433 28.0425513,23.3797368 C28.3903638,23.0100292 28.7707544,22.7566959 29.1724731,22.6264035 C31.3838013,21.9099123 32.8719653,20.7562281 33.7308325,19.9145906 C34.8073169,18.8597368 35.449856,17.7600877 35.449856,16.9728363 C35.449856,16.5569298 35.612395,16.1671053 35.9075903,15.8751754 C36.2064185,15.5796199 36.6021606,15.4209064 37.0297778,15.4228947 C37.5564185,15.427807 37.9054028,15.6966959 38.1052075,15.9214912 C38.4480981,16.3068713 38.6168481,16.8610234 38.5571997,17.4035965 C38.3520044,19.2666374 36.8591528,21.5695614 34.7539966,23.2703801 C34.4447388,23.5203216 34.326731,23.9376316 34.4595044,24.3120175 C34.5922778,24.6864035 34.9471216,24.9366959 35.3450903,24.9366959 L43.3976294,24.9366959 C44.2471216,24.9366959 44.9866919,25.5340058 45.081145,26.2965789 C45.1713794,27.0232456 44.7526685,27.7068713 44.0632544,27.959152 Z M18.9770435,37.0633626 C17.9064185,37.0633626 17.035481,37.9326023 17.035481,39.0011404 C17.035481,40.0696784 17.9064185,40.9389181 18.9770435,40.9389181 C20.0476685,40.9389181 20.918606,40.0696784 20.918606,39.0011404 C20.918606,37.9326023 20.0476685,37.0633626 18.9770435,37.0633626 Z"/>
</svg>
