<svg xmlns="http://www.w3.org/2000/svg" width="19" height="20" viewBox="0 0 19 20">
  <path fill="#585BD3" fill-rule="evenodd" d="M4.07692308,16.1538462 C4.07692308,15.9455118 4.00080204,15.7652251 3.84855769,15.6129808 C3.69631334,15.4607364 3.51602668,15.3846154 3.30769231,15.3846154 C3.09935793,15.3846154 2.91907127,15.4607364 2.76682692,15.6129808 C2.61458257,15.7652251 2.53846154,15.9455118 2.53846154,16.1538462 C2.53846154,16.3621805 2.61458257,16.5424672 2.76682692,16.6947115 C2.91907127,16.8469559 3.09935793,16.9230769 3.30769231,16.9230769 C3.51602668,16.9230769 3.69631334,16.8469559 3.84855769,16.6947115 C4.00080204,16.5424672 4.07692308,16.3621805 4.07692308,16.1538462 Z M17.9230769,9.23076923 C17.9230769,8.82211334 17.7668285,8.46354321 17.4543269,8.15504808 C17.1418254,7.84655294 16.7852584,7.69230769 16.3846154,7.69230769 L12.1538462,7.69230769 C12.1538462,7.22756178 12.3461519,6.58854573 12.7307692,5.77524038 C13.1153865,4.96193504 13.3076923,4.31891262 13.3076923,3.84615385 C13.3076923,3.06089351 13.1794885,2.47996983 12.9230769,2.10336538 C12.6666654,1.72676094 12.15385,1.53846154 11.3846154,1.53846154 C11.176281,1.74679591 11.0240389,2.08733738 10.9278846,2.56009615 C10.8317303,3.03285493 10.709536,3.53565439 10.5612981,4.06850962 C10.4130602,4.60136484 10.1746811,5.04006238 9.84615385,5.38461538 C9.66987091,5.56891118 9.36138041,5.93349087 8.92067308,6.47836538 C8.88862163,6.51842969 8.79647512,6.63862079 8.64423077,6.83894231 C8.49198642,7.03926382 8.36578576,7.203525 8.265625,7.33173077 C8.16546424,7.45993654 8.02724447,7.63020727 7.85096154,7.84254808 C7.67467861,8.05488888 7.5144238,8.23116917 7.37019231,8.37139423 C7.22596082,8.51161929 7.07171556,8.65384543 6.90745192,8.79807692 C6.74318828,8.94230841 6.58293347,9.05048041 6.42668269,9.12259615 C6.27043191,9.1947119 6.12820577,9.23076923 6,9.23076923 L5.61538462,9.23076923 L5.61538462,16.9230769 L6,16.9230769 C6.10416719,16.9230769 6.23036785,16.935096 6.37860577,16.9591346 C6.52684369,16.9831732 6.65905391,17.0092146 6.77524038,17.0372596 C6.89142686,17.0653046 7.04366893,17.1093747 7.23197115,17.1694712 C7.42027338,17.2295676 7.56049633,17.2756409 7.65264423,17.3076923 C7.74479213,17.3397438 7.88701827,17.3898234 8.07932692,17.4579327 C8.27163558,17.526042 8.38782031,17.5681089 8.42788462,17.5841346 C10.1185982,18.1690734 11.4887768,18.4615385 12.5384615,18.4615385 L13.9927885,18.4615385 C15.5312577,18.4615385 16.3004808,17.7924746 16.3004808,16.4543269 C16.3004808,16.2459925 16.2804489,16.0216358 16.2403846,15.78125 C16.4807704,15.6530442 16.671073,15.4427098 16.8112981,15.1502404 C16.9515231,14.857771 17.0216346,14.5633028 17.0216346,14.2668269 C17.0216346,13.9703511 16.94952,13.6939115 16.8052885,13.4375 C17.2299701,13.036857 17.4423077,12.5600989 17.4423077,12.0072115 C17.4423077,11.80689 17.402244,11.5845365 17.3221154,11.3401442 C17.2419868,11.095752 17.1418275,10.9054494 17.0216346,10.7692308 C17.2780462,10.7612179 17.492387,10.5729185 17.6646635,10.2043269 C17.83694,9.83573534 17.9230769,9.51121935 17.9230769,9.23076923 Z M19.4615385,9.21875 C19.4615385,9.93189459 19.2652263,10.5849329 18.8725962,11.1778846 C18.9447119,11.442309 18.9807692,11.7187486 18.9807692,12.0072115 C18.9807692,12.6242018 18.8285272,13.2011191 18.5240385,13.7379808 C18.548077,13.9062508 18.5600962,14.0785248 18.5600962,14.2548077 C18.5600962,15.0641066 18.3197139,15.7772405 17.8389423,16.3942308 C17.8469552,17.5080184 17.5064137,18.3874166 16.8173077,19.0324519 C16.1282017,19.6774872 15.2187556,20 14.0889423,20 L12.5384615,20 C11.7692269,20 11.0100198,19.9098567 10.2608173,19.7295673 C9.51161484,19.5492779 8.6442357,19.2868607 7.65865385,18.9423077 C6.72916202,18.6217933 6.17628293,18.4615385 6,18.4615385 L2.53846154,18.4615385 C2.11377993,18.4615385 1.75120343,18.3112996 1.45072115,18.0108173 C1.15023888,17.710335 1,17.3477585 1,16.9230769 L1,9.23076923 C1,8.80608762 1.15023888,8.44351112 1.45072115,8.14302885 C1.75120343,7.84254657 2.11377993,7.69230769 2.53846154,7.69230769 L5.83173077,7.69230769 C6.12019375,7.49999904 6.66906647,6.87901166 7.47836538,5.82932692 C7.9431113,5.22836238 8.37179291,4.715547 8.76442308,4.29086538 C8.95673173,4.09054387 9.09895787,3.74799922 9.19110577,3.26322115 C9.28325367,2.77844309 9.40544796,2.27163726 9.55769231,1.74278846 C9.70993666,1.21393966 9.95833161,0.781251683 10.3028846,0.444711538 C10.6153862,0.148235697 10.9759595,0 11.3846154,0 C12.0576957,0 12.6626576,0.130207031 13.1995192,0.390625 C13.7363809,0.651042969 14.1450306,1.05768954 14.4254808,1.61057692 C14.7059309,2.1634643 14.8461538,2.90864916 14.8461538,3.84615385 C14.8461538,4.59134988 14.6538481,5.36057296 14.2692308,6.15384615 L16.3846154,6.15384615 C17.2179529,6.15384615 17.9390995,6.45833029 18.5480769,7.06730769 C19.1570543,7.6762851 19.4615385,8.39342536 19.4615385,9.21875 Z" transform="translate(-1)"/>
</svg>
