<svg xmlns="http://www.w3.org/2000/svg" width="34" height="34" viewBox="0 0 34 34">
  <g fill="none" fill-rule="evenodd">
    <rect width="33.98" height="33.98" fill="#0084B1" fill-rule="nonzero"/>
    <g fill="#FFF" fill-rule="nonzero" transform="translate(8 8)">
      <path d="M2.19518092.0120230263C3.36242105.0129736842 4.32510197.977052632 4.32258553 2.15010855 4.31978947 3.37841447 3.30046053 4.3041875 2.18080921 4.27751316 1.04516447 4.30049671.0471414474 3.35196382.0473651316 2.142.0473651316.968496711 1.01379276.0111282895 2.19518092.0120230263zM3.43528618 17.7533125L.934440789 17.7533125C.609875 17.7533125.346766447 17.4902039.346766447 17.1656382L.346766447 6.49690789C.346766447 6.17234211.609875 5.90923355.934440789 5.90923355L3.43528618 5.90923355C3.75985197 5.90923355 4.02296053 6.17234211 4.02296053 6.49690789L4.02296053 17.1656941C4.02290461 17.4902039 3.75985197 17.7533125 3.43528618 17.7533125zM17.8323289 9.65655921C17.8323289 7.41994079 16.0192007 5.60675658 13.7825263 5.60675658L13.1411118 5.60675658C11.9174474 5.60675658 10.8363816 6.21730263 10.1861316 7.15051316 10.1152237 7.25223355 10.0495724 7.35786842 9.98928947 7.46691447 9.96843092 7.46378289 9.95607237 7.46216118 9.95579276 7.46272039L9.95579276 6.15316118C9.95579276 6.01844737 9.84657895 5.90917763 9.71180921 5.90917763L6.59169408 5.90917763C6.45698026 5.90917763 6.34771053 6.01839145 6.34771053 6.15316118L6.34771053 17.5094408C6.34771053 17.6441546 6.45686842 17.7533684 6.59158224 17.7534243L9.77969737 17.7542072C9.91446711 17.7542632 10.0237368 17.6449934 10.0237368 17.5102237L10.0237368 10.949398C10.0237368 9.81531908 10.9282599 8.87366447 12.0622829 8.86085855 12.6411776 8.85431579 13.1659967 9.08627632 13.5442467 9.46475 13.9175197 9.83779934 14.1483059 10.3536151 14.1483059 10.9231151L14.1483059 17.5110625C14.1483059 17.6457763 14.2575197 17.7549901 14.3921776 17.7550461L17.5881776 17.7558289C17.7229474 17.7558849 17.8322171 17.6466151 17.8322171 17.5118454L17.8322171 9.65655921 17.8323289 9.65655921z"/>
    </g>
  </g>
</svg>
