<svg xmlns="http://www.w3.org/2000/svg" width="19" height="20" viewBox="0 0 19 20">
  <path fill="#FC447C" fill-rule="evenodd" d="M4.07692308,3.84615385 C4.07692308,3.63781947 4.00080204,3.45753281 3.84855769,3.30528846 C3.69631334,3.15304411 3.51602668,3.07692308 3.30769231,3.07692308 C3.09935793,3.07692308 2.91907127,3.15304411 2.76682692,3.30528846 C2.61458257,3.45753281 2.53846154,3.63781947 2.53846154,3.84615385 C2.53846154,4.05448822 2.61458257,4.23477488 2.76682692,4.38701923 C2.91907127,4.53926358 3.09935793,4.61538462 3.30769231,4.61538462 C3.51602668,4.61538462 3.69631334,4.53926358 3.84855769,4.38701923 C4.00080204,4.23477488 4.07692308,4.05448822 4.07692308,3.84615385 Z M17.9230769,10.7692308 C17.9230769,10.4887806 17.83694,10.1642647 17.6646635,9.79567308 C17.492387,9.42708149 17.2780462,9.23878209 17.0216346,9.23076923 C17.1418275,9.0945506 17.2419868,8.90424802 17.3221154,8.65985577 C17.402244,8.41546352 17.4423077,8.19310998 17.4423077,7.99278846 C17.4423077,7.43990108 17.2299701,6.96314303 16.8052885,6.5625 C16.94952,6.31410132 17.0216346,6.03766178 17.0216346,5.73317308 C17.0216346,5.43669724 16.9515231,5.14222903 16.8112981,4.84975962 C16.671073,4.5572902 16.4807704,4.34695577 16.2403846,4.21875 C16.2804489,3.97836418 16.3004808,3.75400745 16.3004808,3.54567308 C16.3004808,2.86457993 16.1041686,2.35977728 15.7115385,2.03125 C15.3189083,1.70272272 14.7740419,1.53846154 14.0769231,1.53846154 L12.5384615,1.53846154 C11.4887768,1.53846154 10.1185982,1.83092656 8.42788462,2.41586538 C8.38782031,2.43189111 8.27163558,2.47395799 8.07932692,2.54206731 C7.88701827,2.61017662 7.74479213,2.66025625 7.65264423,2.69230769 C7.56049633,2.72435913 7.42027338,2.77043239 7.23197115,2.83052885 C7.04366893,2.8906253 6.89142686,2.93469537 6.77524038,2.96274038 C6.65905391,2.9907854 6.52684369,3.0168268 6.37860577,3.04086538 C6.23036785,3.06490397 6.10416719,3.07692308 6,3.07692308 L5.61538462,3.07692308 L5.61538462,10.7692308 L6,10.7692308 C6.12820577,10.7692308 6.27043191,10.8052881 6.42668269,10.8774038 C6.58293347,10.9495196 6.74318828,11.0576916 6.90745192,11.2019231 C7.07171556,11.3461546 7.22596082,11.4883807 7.37019231,11.6286058 C7.5144238,11.7688308 7.67467861,11.9451111 7.85096154,12.1574519 C8.02724447,12.3697927 8.16546424,12.5400635 8.265625,12.6682692 C8.36578576,12.796475 8.49198642,12.9607362 8.64423077,13.1610577 C8.79647512,13.3613792 8.88862163,13.4815703 8.92067308,13.5216346 C9.36138041,14.0665091 9.66987091,14.4310888 9.84615385,14.6153846 C10.1746811,14.9599376 10.4130602,15.3986352 10.5612981,15.9314904 C10.709536,16.4643456 10.8317303,16.9671451 10.9278846,17.4399038 C11.0240389,17.9126626 11.176281,18.2532041 11.3846154,18.4615385 C12.15385,18.4615385 12.6666654,18.2732391 12.9230769,17.8966346 C13.1794885,17.5200302 13.3076923,16.9391065 13.3076923,16.1538462 C13.3076923,15.6810874 13.1153865,15.038065 12.7307692,14.2247596 C12.3461519,13.4114543 12.1538462,12.7724382 12.1538462,12.3076923 L16.3846154,12.3076923 C16.7852584,12.3076923 17.1418254,12.1534471 17.4543269,11.8449519 C17.7668285,11.5364568 17.9230769,11.1778867 17.9230769,10.7692308 Z M19.4615385,10.78125 C19.4615385,11.6065746 19.1570543,12.3237149 18.5480769,12.9326923 C17.9390995,13.5416697 17.2179529,13.8461538 16.3846154,13.8461538 L14.2692308,13.8461538 C14.6538481,14.639427 14.8461538,15.4086501 14.8461538,16.1538462 C14.8461538,17.0993637 14.7059309,17.8445486 14.4254808,18.3894231 C14.1450306,18.9423105 13.7363809,19.348957 13.1995192,19.609375 C12.6626576,19.869793 12.0576957,20 11.3846154,20 C10.9759595,20 10.6153862,19.8517643 10.3028846,19.5552885 C10.0304474,19.2908641 9.81410337,18.9623417 9.65384615,18.5697115 C9.49358894,18.1770814 9.3914265,17.8145049 9.34735577,17.4819712 C9.30328504,17.1494374 9.23317356,16.8108992 9.13701923,16.4663462 C9.0408649,16.1217931 8.91666743,15.8653855 8.76442308,15.6971154 C8.37980577,15.2964724 7.95112416,14.7876633 7.47836538,14.1706731 C6.66906647,13.1209883 6.12019375,12.500001 5.83173077,12.3076923 L2.53846154,12.3076923 C2.11377993,12.3076923 1.75120343,12.1574534 1.45072115,11.8569712 C1.15023888,11.5564889 1,11.1939124 1,10.7692308 L1,3.07692308 C1,2.65224147 1.15023888,2.28966496 1.45072115,1.98918269 C1.75120343,1.68870042 2.11377993,1.53846154 2.53846154,1.53846154 L6,1.53846154 C6.17628293,1.53846154 6.72916202,1.37820673 7.65865385,1.05769231 C8.6843,0.705126442 9.57772055,0.44070601 10.3389423,0.264423077 C11.1001641,0.0881401442 11.9014381,0 12.7427885,0 L14.0889423,0 C15.2107428,0 16.1181856,0.316503245 16.8112981,0.949519231 C17.5044105,1.58253522 17.8469552,2.44791118 17.8389423,3.54567308 L17.8389423,3.60576923 C18.3197139,4.2227595 18.5600962,4.93589339 18.5600962,5.74519231 C18.5600962,5.92147524 18.548077,6.09374916 18.5240385,6.26201923 C18.8285272,6.79888089 18.9807692,7.3757982 18.9807692,7.99278846 C18.9807692,8.28125144 18.9447119,8.55769099 18.8725962,8.82211538 C19.2652263,9.40705421 19.4615385,10.0600925 19.4615385,10.78125 Z" transform="translate(-1)"/>
</svg>
