<svg xmlns="http://www.w3.org/2000/svg" xmlns:xlink="http://www.w3.org/1999/xlink" width="20" height="20" viewBox="0 0 20 20">
  <defs>
    <path id="ic-myoffice-header-a" d="M11,12.2275449 C12.217571,12.2275449 13.5748428,12.4171638 15.0718563,12.7964072 C16.7485114,13.215571 18.1057832,13.7744476 19.1437126,14.4730539 C20.3812437,15.3113814 21,16.2395159 21,17.257485 L21,21 L1,21 L1,17.257485 C1,16.2395159 1.61875629,15.3113814 2.85628743,14.4730539 C3.89421677,13.7744476 5.25148862,13.215571 6.92814371,12.7964072 C8.42515719,12.4171638 9.78242904,12.2275449 11,12.2275449 Z M11,1 C11.8982081,1 12.7265431,1.22454865 13.4850299,1.67365269 C14.2435168,2.12275674 14.8473031,2.73652305 15.2964072,3.51497006 C15.7455112,4.29341707 15.9700599,5.13173204 15.9700599,6.02994012 C15.9700599,6.9281482 15.7455112,7.75648323 15.2964072,8.51497006 C14.8473031,9.27345689 14.2435168,9.87724326 13.4850299,10.3263473 C12.7265431,10.7754513 11.8982081,11 11,11 C10.1017919,11 9.27345689,10.7754513 8.51497006,10.3263473 C7.75648323,9.87724326 7.15269686,9.27345689 6.70359281,8.51497006 C6.25448877,7.75648323 6.02994012,6.9281482 6.02994012,6.02994012 C6.02994012,5.13173204 6.25448877,4.29341707 6.70359281,3.51497006 C7.15269686,2.73652305 7.75648323,2.12275674 8.51497006,1.67365269 C9.27345689,1.22454865 10.1017919,1 11,1 Z M11,14.6227545 C9.86226976,14.6227545 8.65469701,14.7924135 7.37724551,15.1317365 C6.27943563,15.4311392 5.34132126,15.7904171 4.56287425,16.2095808 C3.78442725,16.6287446 3.39520958,16.9780425 3.39520958,17.257485 L3.39520958,18.6047904 L18.6047904,18.6047904 L18.6047904,17.257485 C18.6047904,16.9780425 18.2155728,16.6287446 17.4371257,16.2095808 C16.6586787,15.7904171 15.7205644,15.4311392 14.6227545,15.1317365 C13.345303,14.7924135 12.1377302,14.6227545 11,14.6227545 Z M11,3.39520958 C10.2614734,3.39520958 9.6377271,3.64969805 9.12874251,4.15868263 C8.61975793,4.66766722 8.36526946,5.29141347 8.36526946,6.02994012 C8.36526946,6.76846677 8.61975793,7.38223308 9.12874251,7.87125749 C9.6377271,8.36028189 10.2614734,8.60479042 11,8.60479042 C11.7385266,8.60479042 12.3622729,8.36028189 12.8712575,7.87125749 C13.3802421,7.38223308 13.6347305,6.76846677 13.6347305,6.02994012 C13.6347305,5.29141347 13.3802421,4.66766722 12.8712575,4.15868263 C12.3622729,3.64969805 11.7385266,3.39520958 11,3.39520958 Z"/>
  </defs>
  <use fill="#585BD3" fill-rule="evenodd" transform="translate(-1 -1)" xlink:href="#ic-myoffice-header-a"/>
</svg>
