<svg xmlns="http://www.w3.org/2000/svg" xmlns:xlink="http://www.w3.org/1999/xlink" width="20" height="18" viewBox="0 0 20 18">
  <defs>
    <path id="ic-mail-a" d="M19.0288462,7.00961538 L19.0288462,4.99038462 L11,10.0144231 L2.97115385,4.99038462 L2.97115385,7.00961538 L11,11.9855769 L19.0288462,7.00961538 Z M19.0288462,2.97115385 C19.5737207,2.97115385 20.0384596,3.17147236 20.4230769,3.57211538 C20.8076942,3.97275841 21,4.4455101 21,4.99038462 L21,17.0096154 C21,17.5544899 20.8076942,18.0272416 20.4230769,18.4278846 C20.0384596,18.8285276 19.5737207,19.0288462 19.0288462,19.0288462 L2.97115385,19.0288462 C2.42627933,19.0288462 1.96154038,18.8285276 1.57692308,18.4278846 C1.19230577,18.0272416 1,17.5544899 1,17.0096154 L1,4.99038462 C1,4.4455101 1.19230577,3.97275841 1.57692308,3.57211538 C1.96154038,3.17147236 2.42627933,2.97115385 2.97115385,2.97115385 L19.0288462,2.97115385 Z"/>
  </defs>
  <g fill="none" fill-rule="evenodd" transform="translate(-1 -2)">
    <use fill="#323845" xlink:href="#ic-mail-a"/>
  </g>
</svg>
