<svg xmlns="http://www.w3.org/2000/svg" xmlns:xlink="http://www.w3.org/1999/xlink" width="22" height="22" viewBox="0 0 22 22">
    <defs>
        <path id="a" d="M14.667 7.333a3.533 3.533 0 0 0-1.075-2.592A3.533 3.533 0 0 0 11 3.667 3.533 3.533 0 0 0 8.408 4.74a3.533 3.533 0 0 0-1.075 2.592c0 1.012.358 1.877 1.075 2.593A3.533 3.533 0 0 0 11 11a3.533 3.533 0 0 0 2.592-1.074 3.533 3.533 0 0 0 1.075-2.593zm4.033 0c0 1.041-.165 1.896-.496 2.564l-5.475 11.086c-.16.315-.398.563-.714.745A2.005 2.005 0 0 1 11 22c-.36 0-.7-.09-1.015-.272a1.68 1.68 0 0 1-.7-.745L3.797 9.897C3.466 9.23 3.3 8.374 3.3 7.333c0-2.024.752-3.752 2.256-5.185C7.06.716 8.874 0 11 0s3.94.716 5.444 2.148C17.948 3.581 18.7 5.31 18.7 7.333z"/>
    </defs>
    <use fill="#323845" fill-rule="evenodd" xlink:href="#a"/>
</svg>
