<svg xmlns="http://www.w3.org/2000/svg" xmlns:xlink="http://www.w3.org/1999/xlink" width="22" height="22" viewBox="0 0 22 22">
  <defs>
    <path id="ic-phone-header-a" d="M22,17.375 C22,17.6562514 21.9479172,18.0234352 21.84375,18.4765625 C21.7395828,18.9296898 21.6302089,19.286457 21.515625,19.546875 C21.2968739,20.0677109 20.6614636,20.6197887 19.609375,21.203125 C18.6302034,21.7343777 17.6614631,22 16.703125,22 C16.4218736,22 16.1458347,21.981771 15.875,21.9453125 C15.6041653,21.908854 15.3046891,21.8437505 14.9765625,21.75 C14.6484359,21.6562495 14.4036466,21.5807295 14.2421875,21.5234375 C14.0807284,21.4661455 13.7916687,21.3593758 13.375,21.203125 C12.9583312,21.0468742 12.7031255,20.9531252 12.609375,20.921875 C11.5885366,20.5572898 10.6770873,20.1250025 9.875,19.625 C8.55207672,18.8020792 7.17709047,17.6770905 5.75,16.25 C4.32290953,14.8229095 3.19792078,13.4479233 2.375,12.125 C1.8749975,11.3229127 1.44271016,10.4114634 1.078125,9.390625 C1.04687484,9.29687453 0.953125781,9.04166875 0.796875,8.625 C0.640624219,8.20833125 0.533854453,7.91927164 0.4765625,7.7578125 C0.419270547,7.59635336 0.343750469,7.35156414 0.25,7.0234375 C0.156249531,6.69531086 0.0911460156,6.39583469 0.0546875,6.125 C0.0182289844,5.85416531 0,5.57812641 0,5.296875 C0,4.33853687 0.265622344,3.36979656 0.796875,2.390625 C1.38021125,1.33853641 1.93228906,0.703126094 2.453125,0.484375 C2.71354297,0.369791094 3.07031023,0.260417188 3.5234375,0.15625 C3.97656477,0.0520828125 4.34374859,0 4.625,0 C4.77083406,0 4.88020797,0.0156248437 4.953125,0.046875 C5.14062594,0.109375313 5.41666484,0.505204688 5.78125,1.234375 C5.89583391,1.43229266 6.05208234,1.71353984 6.25,2.078125 C6.44791766,2.44271016 6.6302075,2.77343602 6.796875,3.0703125 C6.9635425,3.36718898 7.12499922,3.64583203 7.28125,3.90625 C7.31250016,3.94791687 7.40364508,4.07812391 7.5546875,4.296875 C7.70572992,4.51562609 7.81770797,4.70052008 7.890625,4.8515625 C7.96354203,5.00260492 8,5.15104094 8,5.296875 C8,5.50520938 7.85156398,5.76562344 7.5546875,6.078125 C7.25781102,6.39062656 6.93489758,6.67708203 6.5859375,6.9375 C6.23697742,7.19791797 5.91406398,7.47395688 5.6171875,7.765625 C5.32031102,8.05729313 5.171875,8.29687406 5.171875,8.484375 C5.171875,8.57812547 5.19791641,8.6953118 5.25,8.8359375 C5.30208359,8.9765632 5.34635398,9.08333297 5.3828125,9.15625 C5.41927102,9.22916703 5.49218695,9.35416578 5.6015625,9.53125 C5.71093805,9.70833422 5.77083328,9.80729156 5.78125,9.828125 C6.57292063,11.2552155 7.47916156,12.4791616 8.5,13.5 C9.52083844,14.5208384 10.7447845,15.4270794 12.171875,16.21875 C12.1927084,16.2291667 12.2916658,16.289062 12.46875,16.3984375 C12.6458342,16.507813 12.770833,16.580729 12.84375,16.6171875 C12.916667,16.653646 13.0234368,16.6979164 13.1640625,16.75 C13.3046882,16.8020836 13.4218745,16.828125 13.515625,16.828125 C13.7031259,16.828125 13.9427069,16.679689 14.234375,16.3828125 C14.5260431,16.085936 14.802082,15.7630226 15.0625,15.4140625 C15.322918,15.0651024 15.6093734,14.742189 15.921875,14.4453125 C16.2343766,14.148436 16.4947906,14 16.703125,14 C16.8489591,14 16.9973951,14.036458 17.1484375,14.109375 C17.2994799,14.182292 17.4843739,14.2942701 17.703125,14.4453125 C17.9218761,14.5963549 18.0520831,14.6874998 18.09375,14.71875 C18.354168,14.8750008 18.632811,15.0364575 18.9296875,15.203125 C19.226564,15.3697925 19.5572898,15.5520823 19.921875,15.75 C20.2864602,15.9479177 20.5677073,16.1041661 20.765625,16.21875 C21.4947953,16.5833352 21.8906247,16.8593741 21.953125,17.046875 C21.9843752,17.119792 22,17.2291659 22,17.375 Z"/>
  </defs>
  <g fill="none" fill-rule="evenodd">
    <use fill="#FFF" xlink:href="#ic-phone-header-a"/>
  </g>
</svg>
