<svg xmlns="http://www.w3.org/2000/svg" xmlns:xlink="http://www.w3.org/1999/xlink" width="20" height="20" viewBox="0 0 20 20">
  <defs>
    <path id="ic-phone-a" d="M21,16.7954545 C21,17.0511376 20.952652,17.3849411 20.8579545,17.796875 C20.7632571,18.2088089 20.6638263,18.5331428 20.5596591,18.7698864 C20.3607945,19.2433736 19.7831487,19.7452625 18.8267045,20.2755682 C17.9365486,20.7585251 17.0558756,21 16.1846591,21 C15.928976,21 15.6780315,20.9834282 15.4318182,20.9502841 C15.1856048,20.91714 14.9133538,20.857955 14.6150568,20.7727273 C14.3167599,20.6874996 14.0942242,20.618845 13.9474432,20.5667614 C13.8006621,20.5146778 13.5378807,20.4176143 13.1590909,20.2755682 C12.7803011,20.133522 12.5482959,20.0482956 12.4630682,20.0198864 C11.5350332,19.6884453 10.706443,19.2954568 9.97727273,18.8409091 C8.7746152,18.0927993 7.5246277,17.0700822 6.22727273,15.7727273 C4.92991776,14.4753723 3.90720071,13.2253848 3.15909091,12.0227273 C2.70454318,11.293557 2.31155469,10.4649668 1.98011364,9.53693182 C1.9517044,9.45170412 1.86647798,9.21969886 1.72443182,8.84090909 C1.58238565,8.46211932 1.48532223,8.19933786 1.43323864,8.05255682 C1.38115504,7.90577578 1.31250043,7.68324013 1.22727273,7.38494318 C1.14204503,7.08664624 1.08286001,6.81439517 1.04971591,6.56818182 C1.0165718,6.32196847 1,6.07102401 1,5.81534091 C1,4.94412443 1.24147486,4.06345142 1.72443182,3.17329545 C2.2547375,2.21685128 2.75662642,1.63920554 3.23011364,1.44034091 C3.46685724,1.33617372 3.79119112,1.2367429 4.203125,1.14204545 C4.61505888,1.04734801 4.94886236,1 5.20454545,1 C5.33712188,1 5.4365527,1.0142044 5.50284091,1.04261364 C5.67329631,1.0994321 5.92424077,1.45927699 6.25568182,2.12215909 C6.35984901,2.30208423 6.50189304,2.55776349 6.68181818,2.88920455 C6.86174332,3.2206456 7.02746136,3.52130547 7.17897727,3.79119318 C7.33049318,4.06108089 7.47727202,4.31439276 7.61931818,4.55113636 C7.64772741,4.58901534 7.73058643,4.70738537 7.86789773,4.90625 C8.00520902,5.10511463 8.10700724,5.27320007 8.17329545,5.41051136 C8.23958366,5.54782266 8.27272727,5.68276449 8.27272727,5.81534091 C8.27272727,6.0047358 8.13778544,6.24147585 7.86789773,6.52556818 C7.59801001,6.80966051 7.30445234,7.07007457 6.98721591,7.30681818 C6.66997947,7.54356179 6.3764218,7.79450625 6.10653409,8.05965909 C5.83664638,8.32481193 5.70170455,8.54261278 5.70170455,8.71306818 C5.70170455,8.79829588 5.72537855,8.90482891 5.77272727,9.03267045 C5.82007599,9.160512 5.8603218,9.25757543 5.89346591,9.32386364 C5.92661001,9.39015185 5.99289723,9.50378707 6.09232955,9.66477273 C6.19176186,9.82575838 6.24621207,9.9157196 6.25568182,9.93465909 C6.97538239,11.2320141 7.79923778,12.3446923 8.72727273,13.2727273 C9.65530767,14.2007622 10.7679859,15.0246176 12.0653409,15.7443182 C12.0842804,15.7537879 12.1742416,15.8082381 12.3352273,15.9076705 C12.4962129,16.0071028 12.6098482,16.07339 12.6761364,16.1065341 C12.7424246,16.1396782 12.839488,16.179924 12.9673295,16.2272727 C13.0951711,16.2746214 13.2017041,16.2982955 13.2869318,16.2982955 C13.4573872,16.2982955 13.6751881,16.1633536 13.9403409,15.8934659 C14.2054938,15.6235782 14.4564382,15.3300205 14.6931818,15.0127841 C14.9299254,14.6955477 15.1903395,14.40199 15.4744318,14.1321023 C15.7585241,13.8622146 15.9952642,13.7272727 16.1846591,13.7272727 C16.3172355,13.7272727 16.4521773,13.7604163 16.5894886,13.8267045 C16.7267999,13.8929928 16.8948854,13.994791 17.09375,14.1321023 C17.2926146,14.2694136 17.4109847,14.3522726 17.4488636,14.3806818 C17.6856072,14.522728 17.9389191,14.6695068 18.2088068,14.8210227 C18.4786945,14.9725386 18.7793544,15.1382567 19.1107955,15.3181818 C19.4422365,15.498107 19.6979158,15.640151 19.8778409,15.7443182 C20.540723,16.0757592 20.9005679,16.3267037 20.9573864,16.4971591 C20.9857956,16.5634473 21,16.6628781 21,16.7954545 Z"/>
  </defs>
  <g fill="none" fill-rule="evenodd" transform="translate(-1 -1)">
    <use fill="#323845" xlink:href="#ic-phone-a"/>
  </g>
</svg>
