<svg xmlns="http://www.w3.org/2000/svg" width="20" height="20" viewBox="0 0 20 20">
  <path fill="#7F8FA4" d="M1.79889779,10.5859375 L0.587960292,10.5859375 C0.264093104,10.5859375 0.00202279191,10.8480078 0.00202279191,11.171875 L0.00202279191,19.4140625 C0.00202279191,19.7379297 0.264093104,20 0.587960292,20 L1.79889779,20 C2.76819467,20 3.55671029,19.2114844 3.55671029,18.2421875 L3.55671029,12.34375 C3.55671029,11.3744531 2.76819467,10.5859375 1.79889779,10.5859375 Z M10.0020228,0 C6.44807748,0 3.55671029,2.93042969 3.55671029,6.484375 C3.55671029,7.69636719 3.89452279,8.86167969 4.51581185,9.86625 C5.30296029,9.42695313 6.17741342,9.18402344 7.08495248,9.18402344 C8.33104623,9.18402344 9.59010873,9.62003906 10.6583509,10.5859375 L13.5567103,10.5859375 C13.9807728,10.5859375 14.3713978,10.7118359 14.7149134,10.9095313 C15.809679,9.75382813 16.4863978,8.19820313 16.4863978,6.484375 C16.4863978,2.93042969 13.5559681,0 10.0020228,0 Z M8.3343405,5.13675214 L8.66767383,5.13675214 L8.66767383,2.41025641 C8.66767383,2.18803419 8.85570802,2 9.07793024,2 L10.0779302,2 C11.4967337,2 12.0010072,2.91452991 12.0010072,3.91452991 C12.0010072,5.12820513 11.2488704,5.8034188 10.0779302,5.8034188 L9.35143452,5.8034188 L9.35143452,6.24786325 L10.6249388,6.24786325 C10.795879,6.24786325 10.9582721,6.38461538 10.9582721,6.56410256 C10.9582721,6.74358974 10.812973,6.88034188 10.6249388,6.88034188 L9.35143452,6.88034188 L9.35143452,7.75213675 C9.35143452,7.94017094 9.18904135,8.11111111 9.00955418,8.11111111 C8.830067,8.11111111 8.66767383,7.94871795 8.66767383,7.75213675 L8.66767383,6.88034188 L8.3343405,6.88034188 C8.14630631,6.88034188 8.00100717,6.74358974 8.00100717,6.56410256 C8.00100717,6.38461538 8.16340033,6.24786325 8.3343405,6.24786325 L8.66767383,6.24786325 L8.66767383,5.76923077 L8.3343405,5.76923077 C8.14630631,5.76923077 8.00100717,5.63247863 8.00100717,5.45299145 C8.00100717,5.27350427 8.16340033,5.13675214 8.3343405,5.13675214 Z M9.35143452,2.66666667 L9.35143452,5.13675214 L10.0779302,5.13675214 C10.8898961,5.13675214 11.3172465,4.74358974 11.3172465,3.90598291 C11.3172465,3.29059829 11.0864773,2.66666667 10.0779302,2.66666667 L9.35143452,2.66666667 Z M19.5215931,10.8085937 C19.0410853,10.4570312 18.3731165,10.5273437 17.9747181,10.9609375 L14.8106556,14.8984375 C14.5879994,15.1328125 14.1661244,15.2734375 13.9434681,15.2734375 L10.0020228,15.2734375 C9.67385873,15.2734375 9.41608529,15.0156641 9.41608529,14.6875 C9.41608529,14.3593359 9.67385873,14.1015625 10.0020228,14.1015625 C12.6270228,14.1015625 10.6387415,14.1015625 13.5567103,14.1015625 C14.2012415,14.1015625 14.7285853,13.5742187 14.7285853,12.9296875 C14.7285853,12.2851562 14.2012415,11.7578125 13.5567103,11.7578125 C10.8049134,11.7578125 13.3906947,11.7578125 10.4473353,11.7578125 C10.155304,11.7578125 10.009679,11.5726172 9.77936654,11.3710547 C9.42780404,11.0546875 9.02936654,10.8203125 8.61921029,10.6562109 C7.34932748,10.1376562 5.88198373,10.2945703 4.72858529,11.0966797 C4.72858529,13.2302344 4.72858529,16.409375 4.72858529,18.8280859 L13.5567103,18.8280859 C14.6582728,18.8280859 15.7129994,18.2616797 16.3692494,17.3827734 L19.7676478,12.4608984 C20.1544056,11.9452734 20.0488978,11.1953125 19.5215931,10.8085937 Z"/>
</svg>
