<svg xmlns="http://www.w3.org/2000/svg" width="56" height="60" viewBox="0 0 56 60">
  <path fill="#FC447C" d="M32.3846638,37.989 C33.4077155,37.908 34.3403534,37.377 34.9457328,36.53 L44.1473017,23.586 C44.4293534,23.189 44.3870948,22.641 44.0450948,22.293 C43.7030948,21.946 43.1645431,21.903 42.7743879,22.189 L30.0515948,31.555 C29.2221466,32.169 28.7003017,33.118 28.6206983,34.159 C28.5410948,35.2 28.9115948,36.219 29.6358879,36.956 C30.295319,37.628 31.1847155,38 32.1094914,38 C32.2008879,38 32.2922845,37.996 32.3846638,37.989 Z M30.580319,34.315 C30.6147155,33.858 30.844681,33.441 31.2063362,33.173 L38.967181,27.46 L33.3546466,35.355 C33.0893017,35.726 32.6794914,35.959 32.2303707,35.995 C31.7832155,36.025 31.3439224,35.867 31.0245259,35.542 C30.7080776,35.219 30.5449397,34.771 30.580319,34.315 Z M54.3984569,19.564 C56.6420948,23.524 57.9324569,28.11 57.9324569,33 C57.9324569,37.89 56.6420948,42.476 54.3974741,46.436 C54.3876466,46.457 54.3886293,46.479 54.3768362,46.5 C54.3601293,46.53 54.3365431,46.551 54.3178707,46.578 C51.9995431,50.614 48.6827328,53.985 44.7133707,56.339 C44.6946983,56.352 44.6838879,56.371 44.6642328,56.383 C44.63475,56.401 44.602319,56.408 44.5718534,56.422 C40.7371293,58.664 36.3048879,59.962 31.5807672,59.995 C31.5729052,59.995 31.5660259,60 31.5581638,60 C31.5522672,60 31.5473534,59.996 31.5404741,59.996 C31.492319,59.997 31.4461293,60 31.3979741,60 C29.4098534,60 27.4060086,59.768 25.4444224,59.308 C24.9156983,59.185 24.5845086,58.648 24.7063707,58.11 C24.82725,57.572 25.3549914,57.23 25.8837155,57.359 C27.4335259,57.721 29.0079052,57.921 30.5773707,57.976 L30.5773707,56 C30.5773707,55.447 31.0166638,55 31.5601293,55 C32.1035948,55 32.5428879,55.447 32.5428879,56 L32.5428879,57.968 C36.2390431,57.795 39.7219397,56.785 42.8186121,55.123 L41.8496121,53.416 C41.5773879,52.938 41.7385603,52.326 42.2093017,52.05 C42.6770948,51.773 43.2795259,51.936 43.55175,52.416 L44.5178017,54.119 C47.5928534,52.134 50.2050259,49.476 52.1558017,46.347 L50.4821638,45.364 C50.0124052,45.088 49.8512328,44.477 50.1224741,43.998 C50.3937155,43.518 50.9951638,43.356 51.4649224,43.632 L53.1424914,44.618 C54.7984397,41.422 55.7939741,37.82 55.9423707,33.999 L54.0014224,33.999 C53.4579569,33.999 53.0186638,33.552 53.0186638,32.999 C53.0186638,32.446 53.4579569,31.999 54.0014224,31.999 L55.9423707,31.999 C55.7939741,28.178 54.7984397,24.576 53.1424914,21.38 L51.4649224,22.366 C51.3106293,22.457 51.1415948,22.5 50.9745259,22.5 C50.6344914,22.5 50.3052672,22.321 50.1224741,22 C49.85025,21.521 50.0114224,20.91 50.4801983,20.634 L52.1538362,19.651 C50.2030603,16.522 47.5908879,13.864 44.5158362,11.879 L43.5497845,13.582 C43.3679741,13.903 43.0377672,14.082 42.6977328,14.082 C42.5306638,14.082 42.3616293,14.039 42.2073362,13.948 C41.7375776,13.672 41.5764052,13.061 41.8476466,12.582 L42.8166466,10.875 C39.7199741,9.213 36.2370776,8.203 32.5409224,8.03 L32.5409224,10 C32.5409224,10.553 32.1016293,11 31.5581638,11 C31.0146983,11 30.5754052,10.553 30.5754052,10 L30.5754052,8.023 C30.2864741,8.037 29.989681,8.055 29.6673362,8.08 L28.6128362,8.163 C27.6978879,8.27 26.7849052,8.429 25.8807672,8.64 C25.3520431,8.765 24.8243017,8.427 24.7034224,7.889 C24.5815603,7.351 24.91275,6.814 25.4414741,6.691 C26.4890948,6.447 27.5485086,6.271 28.6098879,6.156 L28.6098879,5 L27.13575,5 C25.7805259,5 24.6788534,3.879 24.6788534,2.5 C24.6788534,1.121 25.7805259,0 27.13575,0 L35.9805776,0 C37.3358017,0 38.4384569,1.121 38.4384569,2.5 C38.4384569,3.879 37.3367845,5 35.9815603,5 L34.5074224,5 L34.5074224,6.191 C38.1485431,6.626 41.5636293,7.813 44.6033017,9.595 C44.6239397,9.606 44.6455603,9.605 44.6661983,9.617 C44.6858534,9.629 44.6966638,9.648 44.7153362,9.661 C46.4204224,10.672 48.0046293,11.869 49.4414224,13.227 L51.5523879,11.08 L50.1617845,9.665 L54.3316293,5.423 L58.5004914,9.665 L54.3316293,13.908 L52.9420086,12.494 L50.8310431,14.641 C52.1656293,16.103 53.3410086,17.716 54.3345776,19.45 C54.3473534,19.469 54.3660259,19.48 54.377819,19.5 C54.3886293,19.521 54.3886293,19.543 54.3984569,19.564 Z M22.7133362,14 C23.2568017,14 23.6960948,14.447 23.6960948,15 C23.6960948,15.553 23.2568017,16 22.7133362,16 L17.7995431,16 C17.2560776,16 16.8167845,15.553 16.8167845,15 C16.8167845,14.447 17.2560776,14 17.7995431,14 L22.7133362,14 Z M22.7133362,21 C23.2568017,21 23.6960948,21.447 23.6960948,22 C23.6960948,22.553 23.2568017,23 22.7133362,23 L12.88575,23 C12.3422845,23 11.9029914,22.553 11.9029914,22 C11.9029914,21.447 12.3422845,21 12.88575,21 L22.7133362,21 Z M22.7133362,28 C23.2568017,28 23.6960948,28.447 23.6960948,29 C23.6960948,29.553 23.2568017,30 22.7133362,30 L7.9719569,30 C7.42849138,30 6.98919828,29.553 6.98919828,29 C6.98919828,28.447 7.42849138,28 7.9719569,28 L22.7133362,28 Z M22.7133362,35 C23.2568017,35 23.6960948,35.447 23.6960948,36 C23.6960948,36.553 23.2568017,37 22.7133362,37 L4.04092241,37 C3.4974569,37 3.05816379,36.553 3.05816379,36 C3.05816379,35.447 3.4974569,35 4.04092241,35 L22.7133362,35 Z M22.7133362,42 C23.2568017,42 23.6960948,42.447 23.6960948,43 C23.6960948,43.553 23.2568017,44 22.7133362,44 L9.93747414,44 C9.39400862,44 8.95471552,43.553 8.95471552,43 C8.95471552,42.447 9.39400862,42 9.93747414,42 L22.7133362,42 Z M22.7133362,49 C23.2568017,49 23.6960948,49.447 23.6960948,50 C23.6960948,50.553 23.2568017,51 22.7133362,51 L15.8340259,51 C15.2905603,51 14.8512672,50.553 14.8512672,50 C14.8512672,49.447 15.2905603,49 15.8340259,49 L22.7133362,49 Z" transform="translate(-3)"/>
</svg>
