<svg xmlns="http://www.w3.org/2000/svg" width="38" height="40" viewBox="0 0 38 40">
  <path fill="#7F8FA4" d="M21.0705517,25.326 C21.7525862,25.272 22.3743448,24.918 22.777931,24.3533333 L28.9123103,15.724 C29.1003448,15.4593333 29.0721724,15.094 28.8441724,14.862 C28.6161724,14.6306667 28.2571379,14.602 27.9970345,14.7926667 L19.5151724,21.0366667 C18.9622069,21.446 18.6143103,22.0786667 18.5612414,22.7726667 C18.5081724,23.4666667 18.7551724,24.146 19.2380345,24.6373333 C19.6776552,25.0853333 20.2705862,25.3333333 20.8871034,25.3333333 C20.9480345,25.3333333 21.0089655,25.3306667 21.0705517,25.326 Z M19.8676552,22.8766667 C19.8905862,22.572 20.0438966,22.294 20.285,22.1153333 L25.4588966,18.3066667 L21.7172069,23.57 C21.5403103,23.8173333 21.2671034,23.9726667 20.9676897,23.9966667 C20.6695862,24.0166667 20.3767241,23.9113333 20.1637931,23.6946667 C19.9528276,23.4793333 19.844069,23.1806667 19.8676552,22.8766667 Z M35.7464138,13.0426667 C35.7398621,13.0286667 35.7398621,13.014 35.7326552,13 C35.7247931,12.9866667 35.7123448,12.9793333 35.7038276,12.9666667 C35.0414483,11.8106667 34.2578621,10.7353333 33.3681379,9.76066667 L34.7754483,8.32933333 L35.7018621,9.272 L38.4811034,6.44333333 L35.7018621,3.61533333 L32.9219655,6.44333333 L33.8490345,7.38666667 L32.4417241,8.818 C31.4838621,7.91266667 30.4277241,7.11466667 29.291,6.44066667 C29.2785517,6.432 29.2713448,6.41933333 29.2582414,6.41133333 C29.2444828,6.40333333 29.230069,6.404 29.2163103,6.39666667 C27.1898621,5.20866667 24.9131379,4.41733333 22.4857241,4.12733333 L22.4857241,3.33333333 L23.4684828,3.33333333 C24.3719655,3.33333333 25.1064138,2.586 25.1064138,1.66666667 C25.1064138,0.747333333 24.3713103,1.77635684e-15 23.4678276,1.77635684e-15 L17.5712759,1.77635684e-15 C16.6677931,1.77635684e-15 15.9333448,0.747333333 15.9333448,1.66666667 C15.9333448,2.586 16.6677931,3.33333333 17.5712759,3.33333333 L18.5540345,3.33333333 L18.5540345,4.104 C17.8464483,4.18066667 17.1401724,4.298 16.4417586,4.46066667 C16.0892759,4.54266667 15.8684828,4.90066667 15.9497241,5.25933333 C16.0303103,5.618 16.3821379,5.84333333 16.7346207,5.76 C17.3373793,5.61933333 17.9460345,5.51333333 18.556,5.442 L19.259,5.38666667 C19.4738966,5.37 19.6717586,5.358 19.8643793,5.34866667 L19.8643793,6.66666667 C19.8643793,7.03533333 20.1572414,7.33333333 20.5195517,7.33333333 C20.8818621,7.33333333 21.1747241,7.03533333 21.1747241,6.66666667 L21.1747241,5.35333333 C23.6388276,5.46866667 25.9607586,6.142 28.0252069,7.25 L27.3792069,8.388 C27.1983793,8.70733333 27.3058276,9.11466667 27.619,9.29866667 C27.7218621,9.35933333 27.8345517,9.388 27.945931,9.388 C28.1726207,9.388 28.3927586,9.26866667 28.5139655,9.05466667 L29.158,7.91933333 C31.2080345,9.24266667 32.9494828,11.0146667 34.25,13.1006667 L33.1342414,13.756 C32.8217241,13.94 32.7142759,14.3473333 32.8957586,14.6666667 C33.0176207,14.8806667 33.2371034,15 33.4637931,15 C33.5751724,15 33.6878621,14.9713333 33.7907241,14.9106667 L34.9091034,14.2533333 C36.013069,16.384 36.6767586,18.7853333 36.7756897,21.3326667 L35.4817241,21.3326667 C35.1194138,21.3326667 34.8265517,21.6306667 34.8265517,21.9993333 C34.8265517,22.368 35.1194138,22.666 35.4817241,22.666 L36.7756897,22.666 C36.6767586,25.2133333 36.013069,27.6146667 34.9091034,29.7453333 L33.7907241,29.088 C33.4775517,28.904 33.0765862,29.012 32.8957586,29.332 C32.714931,29.6513333 32.8223793,30.0586667 33.1355517,30.2426667 L34.2513103,30.898 C32.9507931,32.984 31.2093448,34.756 29.1593103,36.0793333 L28.5152759,34.944 C28.3337931,34.624 27.9321724,34.5153333 27.6203103,34.7 C27.3064828,34.884 27.1990345,35.292 27.3805172,35.6106667 L28.0265172,36.7486667 C25.962069,37.8566667 23.6401379,38.53 21.1760345,38.6453333 L21.1760345,37.3333333 C21.1760345,36.9646667 20.8831724,36.6666667 20.5208621,36.6666667 C20.1585517,36.6666667 19.8656897,36.9646667 19.8656897,37.3333333 L19.8656897,38.6506667 C18.8193793,38.614 17.7697931,38.4806667 16.7365862,38.2393333 C16.3841034,38.1533333 16.0322759,38.3813333 15.9516897,38.74 C15.8704483,39.0986667 16.0912414,39.4566667 16.4437241,39.5386667 C17.7514483,39.8453333 19.0873448,40 20.4127586,40 C20.4448621,40 20.4756552,39.998 20.5077586,39.9973333 C20.5123448,39.9973333 20.5156207,40 20.5195517,40 C20.5247931,40 20.5293793,39.9966667 20.5346207,39.9966667 C23.6840345,39.9746667 26.6388621,39.1093333 29.1953448,37.6146667 C29.2156552,37.6053333 29.2372759,37.6006667 29.256931,37.5886667 C29.2700345,37.5806667 29.2772414,37.568 29.2896897,37.5593333 C31.935931,35.99 34.1471379,33.7426667 35.6926897,31.052 C35.7051379,31.034 35.7208621,31.02 35.732,31 C35.7398621,30.986 35.7392069,30.9713333 35.7457586,30.9573333 C37.2421724,28.3173333 38.1024138,25.26 38.1024138,22 C38.1024138,18.74 37.2421724,15.6826667 35.7464138,13.0426667 Z M35.7012069,5.50066667 L36.6276207,6.44333333 L35.7012069,7.38666667 L34.7741379,6.44333333 L35.7012069,5.50066667 Z M19.8643793,4.014 L19.8643793,2 L17.5712759,2 C17.3911034,2 17.2436897,1.85 17.2436897,1.66666667 C17.2436897,1.48333333 17.3911034,1.33333333 17.5712759,1.33333333 L23.4678276,1.33333333 C23.648,1.33333333 23.7954138,1.48333333 23.7954138,1.66666667 C23.7954138,1.85 23.648,2 23.4678276,2 L21.1747241,2 L21.1747241,4.014 C20.9467241,4.00466667 20.7292069,4 20.5195517,4 C20.5012069,4 20.4802414,4.00133333 20.4618966,4.00133333 C20.4455172,4.00133333 20.4291379,4 20.4127586,4 C20.3053103,4 20.1978621,4.00733333 20.0904138,4.00933333 C20.0144138,4.01133333 19.943,4.01066667 19.8643793,4.014 Z M14.623,9.33333333 L11.3471379,9.33333333 C10.9848276,9.33333333 10.6919655,9.63133333 10.6919655,10 C10.6919655,10.3686667 10.9848276,10.6666667 11.3471379,10.6666667 L14.623,10.6666667 C14.9853103,10.6666667 15.2781724,10.3686667 15.2781724,10 C15.2781724,9.63133333 14.9853103,9.33333333 14.623,9.33333333 Z M14.623,14 L8.07127586,14 C7.70896552,14 7.41610345,14.298 7.41610345,14.6666667 C7.41610345,15.0353333 7.70896552,15.3333333 8.07127586,15.3333333 L14.623,15.3333333 C14.9853103,15.3333333 15.2781724,15.0353333 15.2781724,14.6666667 C15.2781724,14.298 14.9853103,14 14.623,14 Z M14.623,18.6666667 L4.79541379,18.6666667 C4.43310345,18.6666667 4.14024138,18.9646667 4.14024138,19.3333333 C4.14024138,19.702 4.43310345,20 4.79541379,20 L14.623,20 C14.9853103,20 15.2781724,19.702 15.2781724,19.3333333 C15.2781724,18.9646667 14.9853103,18.6666667 14.623,18.6666667 Z M14.623,23.3333333 L2.17472414,23.3333333 C1.81241379,23.3333333 1.51955172,23.6313333 1.51955172,24 C1.51955172,24.3686667 1.81241379,24.6666667 2.17472414,24.6666667 L14.623,24.6666667 C14.9853103,24.6666667 15.2781724,24.3686667 15.2781724,24 C15.2781724,23.6313333 14.9853103,23.3333333 14.623,23.3333333 Z M14.623,28 L6.10575862,28 C5.74344828,28 5.45058621,28.298 5.45058621,28.6666667 C5.45058621,29.0353333 5.74344828,29.3333333 6.10575862,29.3333333 L14.623,29.3333333 C14.9853103,29.3333333 15.2781724,29.0353333 15.2781724,28.6666667 C15.2781724,28.298 14.9853103,28 14.623,28 Z M14.623,32.6666667 L10.0367931,32.6666667 C9.67448276,32.6666667 9.38162069,32.9646667 9.38162069,33.3333333 C9.38162069,33.702 9.67448276,34 10.0367931,34 L14.623,34 C14.9853103,34 15.2781724,33.702 15.2781724,33.3333333 C15.2781724,32.9646667 14.9853103,32.6666667 14.623,32.6666667 Z" transform="translate(-1)"/>
</svg>
