<svg xmlns="http://www.w3.org/2000/svg" width="34" height="34" viewBox="0 0 34 34">
  <g fill="none" fill-rule="evenodd">
    <rect width="33.98" height="33.98" fill="#61A8DE" fill-rule="nonzero"/>
    <path fill="#FFF" fill-rule="nonzero" d="M24.7806392,10.0624597 L7.40360668,16.8311944 C6.84076173,17.0504563 6.87485972,17.8577982 7.45424049,18.0287849 L11.8699305,19.3321592 L13.5178671,24.5589932 C13.6900106,25.1049536 14.382177,25.2704686 14.782857,24.8615256 L17.0658829,22.5314334 L21.5453783,25.8180819 C22.0935691,26.2202995 22.8742877,25.9214718 23.0134736,25.2561628 L25.9802841,11.0779495 C26.1255712,10.3834587 25.4420148,9.80483983 24.7806392,10.0624597 Z M22.6020169,13.2089561 L14.5304862,20.3435452 C14.4500309,20.4146757 14.3988269,20.513107 14.3868527,20.6198027 L14.0760934,23.3811231 C14.0659438,23.4711761 13.9398725,23.4830882 13.912959,23.3965689 L12.6343983,19.2784694 C12.5758387,19.0899281 12.6521886,18.885656 12.8199986,18.7816391 L22.3516419,12.8725684 C22.570827,12.736577 22.7952579,13.0381974 22.6020169,13.2089561 Z"/>
  </g>
</svg>
