<svg xmlns="http://www.w3.org/2000/svg" width="20" height="20" viewBox="0 0 20 20">
  <path fill="#7F8FA4" d="M9.99998339,0.00333887043 C4.47895349,0.00333887043 0.00333887043,4.47895349 0.00333887043,9.99998339 C0.00333887043,15.5210133 4.47895349,19.9966611 9.99998339,19.9966611 C15.5210133,19.9966611 19.9966611,15.5210133 19.9966611,9.99998339 C19.9965947,4.47895349 15.5210133,0.00333887043 9.99998339,0.00333887043 Z M10.9555648,10.8796512 C10.4378239,11.3941362 9.60104651,11.3915449 9.08656146,10.8737375 C8.57204319,10.3559967 8.574701,9.51921927 9.09247508,9.004701 C9.40387043,8.69533223 9.83041528,8.57436877 10.2330066,8.63852159 L13.6857641,6.30337209 L11.3288538,9.74134551 C11.3905814,10.1444684 11.2669601,10.5703156 10.9555648,10.8796512 Z M18.5157309,7.45978405 C18.6888538,7.96370432 18.7889203,8.42038206 18.8538704,8.79855482 C18.8693189,8.89340532 18.8839701,8.98317276 18.8977907,9.06765781 C18.9095847,9.155 18.9178904,9.24068106 18.9267276,9.31855482 C18.9350997,9.39702658 18.9426744,9.46961794 18.9498173,9.53609635 C18.9562292,9.60124585 18.9576578,9.64589701 18.9613123,9.6936711 C18.9734385,9.87666113 18.9798173,9.97423588 18.9798173,9.97423588 L16.9471927,10.0256977 C16.9471927,10.0256977 16.9487542,9.92789037 16.9514784,9.74446844 C16.9516777,9.70064784 16.9540033,9.64280731 16.9527076,9.59566445 C16.9511462,9.54991694 16.9495183,9.49988372 16.9478571,9.44593023 C16.9462292,9.39141196 16.9444684,9.33277409 16.9426744,9.27024917 C16.9372924,9.20357143 16.9314452,9.13280731 16.9253654,9.05799003 C16.8991528,8.75892027 16.8512126,8.39486711 16.7469934,7.98656146 C16.6451329,7.5780897 16.4925083,7.12377076 16.2675249,6.65074751 C16.0438704,6.17722591 15.7390864,5.69084718 15.3580565,5.21832226 C15.1646346,4.98493355 14.9556312,4.75111296 14.7203488,4.53333887 C14.6063953,4.42018272 14.4808472,4.31782392 14.3570266,4.20995017 C14.2940698,4.15739203 14.2277575,4.10848837 14.1628073,4.05686047 C14.0981894,4.00483389 14.0316777,3.954701 13.9623754,3.90772425 C13.419186,3.51593023 12.7974585,3.18865449 12.1261628,2.95260797 C11.7908804,2.83274086 11.4413455,2.74480066 11.0862625,2.67230897 C10.9077575,2.64151163 10.7284551,2.60855482 10.5468605,2.59078073 C10.4562625,2.57958472 10.3654983,2.5677907 10.2740698,2.56363787 L10.1370266,2.55420266 L10.0684551,2.5494186 L10.0340698,2.54699336 L10.0168605,2.54576412 L10.0083223,2.54516611 C10.0111794,2.54486711 9.98971761,2.54496678 10.0125748,2.54436877 C9.82054817,2.54313953 9.61121262,2.53327243 9.44234219,2.5436711 C9.2667608,2.545299 9.08287375,2.56247508 8.89958472,2.57802326 C8.53523256,2.61991694 8.17197674,2.67835548 7.8188206,2.7708804 C7.11187708,2.95234219 6.43795681,3.23403654 5.83347176,3.59483389 C5.75652824,3.63782392 5.6822093,3.68430233 5.60961794,3.73290698 C5.53672757,3.78098007 5.46240864,3.82672757 5.39134551,3.87622924 C5.25124585,3.9780897 5.10892027,4.07539867 4.97789037,4.1842691 C4.70858804,4.39357143 4.46420266,4.6226412 4.23516611,4.85493355 C3.78287375,5.32513289 3.40609635,5.82387043 3.11606312,6.32038206 C2.82460133,6.81639535 2.61141196,7.3042691 2.45822259,7.7495515 C2.30257475,8.19473422 2.21240864,8.59872093 2.15333887,8.93360465 C2.13921927,9.01759136 2.12579734,9.09709302 2.11310631,9.1719103 C2.1039701,9.24725914 2.09539867,9.31789037 2.08749169,9.3836711 C2.07111296,9.51519934 2.05872093,9.62755814 2.05476744,9.71895349 C2.04297342,9.90244186 2.03656146,10.0000498 2.03656146,10.0000498 C2.03656146,10.0000498 2.03503322,9.90224252 2.03230897,9.71875415 C2.02885382,9.62672757 2.03210963,9.51360465 2.03769103,9.38041528 C2.04034884,9.31373754 2.04320598,9.24204319 2.04612957,9.16559801 C2.05274086,9.08935216 2.05965116,9.00822259 2.0670598,8.9226412 C2.09918605,8.58034884 2.15692691,8.16373754 2.27872093,7.69659468 C2.3980897,7.22945183 2.57576412,6.71028239 2.8363289,6.17098007 C3.09546512,5.63124585 3.44589701,5.07762458 3.88373754,4.54134551 C4.10556478,4.27612957 4.34579734,4.01147841 4.61486711,3.76443522 C4.74569767,3.63666113 4.88895349,3.52004983 5.03107973,3.39835548 C5.10313953,3.33888704 5.17878738,3.28317276 5.25320598,3.22503322 C5.32729236,3.16636213 5.40343854,3.10965116 5.48254153,3.05639535 C6.10390365,2.61343854 6.81440199,2.24410299 7.58061462,1.97948505 C7.96337209,1.845299 8.36157807,1.74649502 8.76609635,1.66679402 C8.96901993,1.63240864 9.17171096,1.5967608 9.3863289,1.57672757 C9.60642857,1.54825581 9.78868771,1.54357143 9.98725914,1.52855482 L10.3120432,1.52416944 C10.4162625,1.52091362 10.5202824,1.52539867 10.6242027,1.52968439 C10.8328073,1.53353821 11.0401827,1.55347176 11.2478904,1.57257475 C11.6615449,1.62167774 12.0736047,1.69101329 12.4742691,1.79785714 C13.2761628,2.0077907 14.0387874,2.33177741 14.7214784,2.74360465 C14.8081561,2.79300664 14.8922093,2.84599668 14.9742027,2.90127907 C15.0565615,2.95606312 15.1401827,3.00855482 15.2203821,3.06496678 C15.3787874,3.18054817 15.5387874,3.29217608 15.6867276,3.41569767 C15.9898837,3.65430233 16.2654651,3.91423588 16.5228738,4.17835548 C17.0319767,4.71217608 17.4545349,5.27832226 17.7799502,5.84101329 C18.1067276,6.40310631 18.3451329,6.9557309 18.5157309,7.45978405 Z"/>
</svg>
