<svg xmlns="http://www.w3.org/2000/svg" width="34" height="34" viewBox="0 0 34 34">
  <g fill="none" fill-rule="evenodd">
    <rect width="33.98" height="33.98" fill="#50ABF1" fill-rule="nonzero"/>
    <path fill="#FFF" fill-rule="nonzero" d="M8.00107758,23.326211 C9.72123005,24.386439 11.7617063,25 13.9490166,25 C20.093982,25 25.0752781,20.1584794 25.0752781,14.1871732 C25.0752781,14.0380821 25.0720454,13.8900933 25.0661471,13.7425454 C25.2884114,13.572565 26.6630588,12.5018097 27,11.8134551 C27,11.8134551 25.8836874,12.2643111 24.7911382,12.3705213 C24.788983,12.3705213 24.7863175,12.3710173 24.7841623,12.3710173 C24.7841623,12.3710173 24.7863175,12.3699701 24.7900606,12.3673796 C24.890729,12.302011 26.2981574,11.3709218 26.4887183,10.2615295 C26.4887183,10.2615295 25.6991382,10.671103 24.5936014,11.0294177 C24.4105835,11.088503 24.2190018,11.1465962 24.021465,11.2004453 C23.3088466,10.4613282 22.2959246,10 21.1715585,10 C19.0148741,10 17.2672718,11.6978751 17.2672718,13.7922057 C17.2672718,14.0877424 17.3022647,14.3753973 17.3684506,14.6515879 C17.0670694,14.6395724 12.4775575,14.3895072 9.35530774,10.714976 C9.35530774,10.714976 7.48928543,13.1906603 10.46731,15.7363981 C10.46731,15.7363981 9.56203229,15.7013437 8.78101615,15.2478422 C8.78101615,15.2478422 8.49415392,18.2470816 11.866685,19.0139225 C11.866685,19.0139225 11.203068,19.2582005 10.1443773,19.0840312 C10.1443773,19.0840312 10.7364206,21.5074095 13.732764,21.7338847 C13.732764,21.7338847 11.3634,23.8139953 8,23.3259354 L8.00107758,23.326211 Z"/>
  </g>
</svg>
