<svg xmlns="http://www.w3.org/2000/svg" width="20" height="20" viewBox="0 0 20 20">
  <path fill="#7F8FA4" d="M8.22523404,14.578 C8.22523404,11.0740426 11.0768936,8.22340426 14.581234,8.22340426 C15.2852766,8.22340426 15.9893617,8.34485106 16.674766,8.58421277 C16.7235319,8.60106383 16.7740851,8.60948936 16.8246383,8.60948936 C16.8317447,8.60991489 16.8379574,8.60948936 16.842383,8.60948936 C17.0933191,8.60948936 17.296383,8.40646809 17.296383,8.15557447 C17.296383,8.10017021 17.2866383,8.04697872 17.2688936,7.99778723 C16.9186383,3.53234043 13.1704681,0.0531914894 8.67923404,0.0531914894 C3.92285106,0.0531914894 0.0531914894,3.922 0.0531914894,8.67731915 C0.0531914894,13.2114468 3.60008511,16.987617 8.12855319,17.274383 C8.13740426,17.2748085 8.14719149,17.2752766 8.15693617,17.2752766 C8.29880851,17.2752766 8.4327234,17.209234 8.5187234,17.0957447 C8.61093617,16.9747234 8.63578723,16.815617 8.58523404,16.672 C8.34668085,15.9871489 8.22523404,15.2823404 8.22523404,14.578 Z M6.27480851,11.721617 C6.18617021,11.8102553 6.07,11.8545957 5.95387234,11.8545957 C5.83774468,11.8545957 5.72161702,11.8102553 5.63293617,11.721617 C5.45561702,11.5442979 5.45561702,11.2570638 5.63293617,11.0797872 L8.22340426,8.4893617 L8.22340426,3.23051064 C8.22340426,2.97961702 8.42642553,2.77659574 8.67731915,2.77659574 C8.92821277,2.77659574 9.13123404,2.97961702 9.13123404,3.23051064 L9.13123404,8.67731915 C9.13123404,8.79787234 9.0833617,8.91314894 8.99825532,8.99825532 L6.27480851,11.721617 Z M14.5,9.05319149 C11.4964681,9.05319149 9.05319149,11.4964681 9.05319149,14.5 C9.05319149,17.5035319 11.4964681,19.9468085 14.5,19.9468085 C17.5035319,19.9468085 19.9468085,17.5035319 19.9468085,14.5 C19.9468085,11.4964681 17.5035745,9.05319149 14.5,9.05319149 Z M12.4698582,14.9741317 L12.8865248,14.9741317 L12.8865248,11.566012 C12.8865248,11.2882342 13.1215676,11.0531915 13.3993453,11.0531915 L14.6493453,11.0531915 C16.4228496,11.0531915 17.0531915,12.1963539 17.0531915,13.4463539 C17.0531915,14.9634479 16.1130205,15.807465 14.6493453,15.807465 L13.7412257,15.807465 L13.7412257,16.3630205 L15.333106,16.3630205 C15.5467812,16.3630205 15.7497727,16.5339607 15.7497727,16.7583197 C15.7497727,16.9826787 15.5681488,17.1536188 15.333106,17.1536188 L13.7412257,17.1536188 L13.7412257,18.2433624 C13.7412257,18.4784052 13.5382342,18.6920804 13.3138753,18.6920804 C13.0895163,18.6920804 12.8865248,18.4890889 12.8865248,18.2433624 L12.8865248,17.1536188 L12.4698582,17.1536188 C12.2348154,17.1536188 12.0531915,16.9826787 12.0531915,16.7583197 C12.0531915,16.5339607 12.2561829,16.3630205 12.4698582,16.3630205 L12.8865248,16.3630205 L12.8865248,15.76473 L12.4698582,15.76473 C12.2348154,15.76473 12.0531915,15.5937898 12.0531915,15.3694308 C12.0531915,15.1450718 12.2561829,14.9741317 12.4698582,14.9741317 Z M13.7412257,11.8865248 L13.7412257,14.9741317 L14.6493453,14.9741317 C15.6643026,14.9741317 16.1984906,14.4826787 16.1984906,13.4356701 C16.1984906,12.6664394 15.9100291,11.8865248 14.6493453,11.8865248 L13.7412257,11.8865248 Z"/>
</svg>
