<svg xmlns="http://www.w3.org/2000/svg" xmlns:xlink="http://www.w3.org/1999/xlink" width="20" height="20" viewBox="0 0 20 20">
  <defs>
    <path id="ic-user-a" d="M18.8554156,16.0998905 C16.7440059,14.5372411 14.7183595,13.5131549 14.2609555,13.2887536 C14.199696,13.2601934 14.1629403,13.198993 14.1629403,13.1337126 L14.1629403,11.2732214 C14.4488179,10.7876985 14.6325963,10.2776954 14.7020237,9.81257262 C14.9103058,9.79625253 15.1798475,9.50657078 15.4738929,8.47024454 C15.8741215,7.05447601 15.4493892,6.84639476 15.0900003,6.87903496 C15.1594277,6.68319378 15.2125192,6.49143262 15.2451909,6.29559144 C15.8577856,2.62764935 14.0485893,2.50116859 14.0485893,2.50116859 C14.0485893,2.50116859 13.7504599,1.92588513 12.9581708,1.4893225 C12.4313394,1.17516061 11.6921418,0.934439157 10.7242422,1.01603965 C10.409777,1.03235975 10.1116475,1.09356011 9.83393796,1.18740068 L9.83393796,1.18740068 C9.47863305,1.30980142 9.15191589,1.48524247 8.85378648,1.6892437 C8.49031363,1.91772508 8.14726062,2.19924677 7.84504724,2.52156871 C7.36722339,3.01117166 6.93840712,3.64357547 6.75462872,4.43102021 C6.59943807,5.01854375 6.63619375,5.63462746 6.76279665,6.29559144 L6.76279665,6.29559144 C6.79955233,6.4873526 6.8485599,6.68319378 6.9179873,6.87903496 C6.55859842,6.84639476 6.12978215,7.05447601 6.53409463,8.47024454 C6.82814008,9.50657078 7.1017657,9.79625253 7.30596393,9.81257262 C7.37947529,10.2817755 7.56325369,10.7999386 7.84504724,11.2895415 L7.84504724,13.1337126 C7.84504724,13.198993 7.80829156,13.2601934 7.74703209,13.2887536 C7.28962807,13.5131549 5.26398167,14.5331611 3.15257202,16.0998905 C2.10299314,16.8791752 1.49039847,18.1195027 1.49039847,19.4251105 L1.49039847,19.9269535 C1.49039847,20.5185571 1.97230628,21 2.56448113,21 L9.75225867,21 L12.247561,21 L19.4353385,21 C20.0275134,21 20.5094212,20.5185571 20.5094212,19.9269535 L20.5094212,19.4251105 C20.5216731,18.1154226 19.9090784,16.8791752 18.8554156,16.0998905 Z"/>
  </defs>
  <use fill="#323845" transform="translate(-1 -1)" xlink:href="#ic-user-a"/>
</svg>
