<svg xmlns="http://www.w3.org/2000/svg" xmlns:xlink="http://www.w3.org/1999/xlink" width="22" height="22" viewBox="0 0 22 22">
    <defs>
        <path id="a" d="M18.855 16.1a31.815 31.815 0 0 0-4.594-2.811.17.17 0 0 1-.098-.155v-1.86c.286-.486.47-.996.539-1.461.208-.017.478-.306.772-1.343.4-1.416-.025-1.624-.384-1.591.07-.196.123-.388.155-.583C15.858 2.628 14.05 2.5 14.05 2.5s-.299-.575-1.09-1.012c-.528-.314-1.267-.555-2.235-.473a3.313 3.313 0 0 0-.89.171 4.114 4.114 0 0 0-.98.502 5.14 5.14 0 0 0-1.009.833c-.478.49-.907 1.122-1.09 1.909-.156.588-.119 1.204.008 1.865.037.191.086.387.155.583-.36-.033-.788.175-.384 1.591.294 1.037.568 1.326.772 1.343.073.469.257.987.539 1.477v1.844a.17.17 0 0 1-.098.155 31.418 31.418 0 0 0-4.594 2.81 4.144 4.144 0 0 0-1.663 3.326v.502c0 .592.482 1.073 1.074 1.073h16.871c.593 0 1.074-.481 1.074-1.073v-.502a4.085 4.085 0 0 0-1.654-3.325z"/>
    </defs>
    <use fill="#323845" fill-rule="nonzero" xlink:href="#a"/>
</svg>
