<svg xmlns="http://www.w3.org/2000/svg" width="34" height="34" viewBox="0 0 34 34">
  <g fill="none" fill-rule="evenodd">
    <rect width="33.98" height="33.98" fill="#44678D" fill-rule="nonzero"/>
    <path fill="#FFF" fill-rule="nonzero" d="M10.8251708,12.3419149 C11.4393545,13.9020316 12.2177403,15.3729558 13.2429355,16.6934327 C13.3789084,16.8691569 13.5503085,17.0253884 13.7308747,17.1525831 C13.9946103,17.3388925 14.2434441,17.2734152 14.3506817,16.9630925 C14.4641049,16.6374415 14.5681933,15.9774634 14.574379,15.635501 C14.5913053,14.7419565 14.5718485,14.1563632 14.5251746,13.2639177 C14.4949209,12.6923223 14.2973722,12.1904265 13.4799602,12.0389381 C13.2275275,11.9919703 13.2040781,11.7782438 13.3662558,11.5650379 C13.7038825,11.1211578 14.1742205,11.0504169 14.6842595,11.0224213 C15.5108938,10.9764947 16.3405647,11.0139764 17.1682111,11.0224213 C17.5053317,11.0256026 17.8444767,11.0535404 18.17648,11.1279831 C18.6095351,11.2251 18.8414426,11.5375629 18.9128031,11.9724197 C18.9497486,12.1967313 18.9687555,12.4273477 18.963582,12.65432 C18.9420446,13.6296532 18.8963829,14.6044658 18.885586,15.5792785 C18.8809748,15.9619038 18.9081357,16.3540732 18.9877063,16.7266919 C19.0990488,17.2459981 19.442805,17.3763742 19.7943214,17.0011526 C20.2407039,16.5245916 20.634283,15.9883377 21.0036817,15.4436966 C21.67483,14.4530353 22.1760965,13.3658355 22.6076333,12.2448559 C22.8308246,11.6664351 23.0017185,11.5408021 23.6066236,11.5392403 C24.7436675,11.5365796 25.8807114,11.5355384 27.0177552,11.5392403 C27.219409,11.5402815 27.4302851,11.5598321 27.6206359,11.622128 C27.9295272,11.7234674 28.0521728,11.9825999 27.9798001,12.3114321 C27.8109867,13.0820044 27.4061609,13.7369503 26.9725996,14.3666192 C26.276821,15.3767733 25.5476959,16.3626916 24.8355532,17.3612195 C24.7447359,17.4884143 24.6647155,17.6240539 24.5902622,17.7617759 C24.3239397,18.2568463 24.3424406,18.5344305 24.7308462,18.9466132 C25.3491349,19.6026581 26.0110609,20.2164204 26.6098365,20.8903964 C27.0449723,21.3807237 27.4477175,21.9126974 27.7925421,22.4726666 C28.2286901,23.1809429 27.9592748,23.8480356 27.1445058,23.9667854 C26.6319364,24.0412282 24.128078,23.9673638 23.9986845,23.9667854 C23.3255118,23.9636619 22.7354523,23.7235016 22.2602782,23.2532455 C21.7317946,22.7297168 21.2515032,22.1554606 20.744051,21.6092 C20.5911518,21.4445235 20.4279618,21.2867303 20.2520068,21.1489505 C19.8368902,20.8232996 19.4294776,20.8956022 19.2355278,21.3970352 C19.0698073,21.8277273 18.9266365,22.9587136 18.9199447,23.0553099 C18.8850799,23.5603869 18.5725896,23.882336 18.0225123,23.913455 C16.4344748,24.0021269 14.8956417,23.8200401 13.4620779,23.029975 C12.247038,22.3607421 11.2767831,21.4144457 10.4363153,20.3108766 C9.10121665,18.5580301 8.0466675,16.6312524 7.08389163,14.6479052 C7.03468721,14.5465081 6.05953994,12.4121352 6.03333507,12.3113165 C5.94622919,11.9737501 6.02748678,11.6512804 6.30477478,11.5402815 C6.47763694,11.4711024 9.69273813,11.5400501 9.74621631,11.5430001 C10.2592357,11.5715741 10.609065,11.7942082 10.8251708,12.3419149 Z"/>
  </g>
</svg>
