<svg xmlns="http://www.w3.org/2000/svg" width="34" height="34" viewBox="0 0 34 34">
  <g fill="none" fill-rule="evenodd">
    <rect width="33.98" height="33.98" fill="#7D3DAF" fill-rule="nonzero"/>
    <g fill="#FFF" fill-rule="nonzero" transform="translate(8 7)">
      <path d="M18.2316377,4.71607091 L18.2260942,4.69370249 C17.7776884,2.86508406 15.7561667,0.902876462 13.8997174,0.494652778 L13.8787754,0.490303363 C10.876058,-0.0875475146 7.83145652,-0.0875475146 4.82935507,0.490303363 L4.8077971,0.494652778 C2.95196377,0.902876462 0.930442029,2.86508406 0.48142029,4.69370249 L0.476492754,4.71607091 C-0.0778550725,7.26979898 -0.0778550725,9.85956506 0.476492754,12.4132931 L0.48142029,12.4356615 C0.911286232,14.186239 2.78227174,16.0582895 4.56942754,16.573136 L4.56942754,18.6143787 C4.56942754,19.3531579 5.46192754,19.7160234 5.96946377,19.1829094 L8.01962681,17.0331177 C8.46427536,17.05822 8.90917029,17.0722003 9.35406522,17.0722003 C10.865587,17.0722003 12.3777246,16.9280482 13.8787754,16.6391228 L13.8997174,16.6347734 C15.7561667,16.2265497 17.7776884,14.2643421 18.2260942,12.4357237 L18.2316377,12.4133553 C18.7859855,9.85956506 18.7859855,7.26979898 18.2316377,4.71607091 Z M16.6092464,12.0429715 C16.3098986,13.2359539 14.774971,14.7191045 13.5554058,14.9931177 C11.9588225,15.2993787 10.3496123,15.4302961 8.74200362,15.3853728 C8.71003623,15.3845029 8.67930072,15.396992 8.65700362,15.420106 C8.4288587,15.6563414 7.16007971,16.9702376 7.16007971,16.9702376 L5.56786957,18.6186659 C5.45145652,18.7410709 5.24696377,18.6578107 5.24696377,18.4888048 L5.24696377,15.1073209 C5.24696377,15.051462 5.20742029,15.0039912 5.15303261,14.993242 C5.15272464,14.9931798 5.15241667,14.9931177 5.1521087,14.9930556 C3.93254348,14.7190424 2.39823188,13.2358918 2.09826812,12.0429094 C1.59935507,9.73461257 1.59935507,7.39462719 2.09826812,5.08633041 C2.39823188,3.89334795 3.93254348,2.41019737 5.1521087,2.13618421 C7.94047826,1.60120614 10.7676522,1.60120614 13.5554058,2.13618421 C14.775587,2.41019737 16.3098986,3.89334795 16.6092464,5.08633041 C17.1087138,7.39468933 17.1087138,9.73467471 16.6092464,12.0429715 Z"/>
      <path d="M12.0069891 13.6038523C11.8194964 13.5464401 11.6408116 13.5078545 11.4748768 13.4383882 9.75541304 12.7187463 8.17293478 11.7903326 6.91943116 10.3671418 6.20660145 9.55783991 5.64868116 8.64415205 5.17705435 7.67721491 4.9534058 7.21866228 4.76492754 6.74215278 4.57281522 6.26875 4.3976413 5.83703947 4.65565942 5.39103801 4.92735145 5.06576389 5.18228986 4.76049708 5.51034058 4.52687135 5.86561594 4.35469664 6.14291304 4.22029971 6.4164529 4.29778143 6.61897464 4.5348867 7.05678623 5.04749635 7.45893478 5.58632675 7.78458333 6.18051901 7.98482609 6.54599415 7.92988406 6.99274123 7.56697101 7.24146564 7.47876812 7.30192251 7.39838768 7.37288012 7.31622101 7.44116594 7.2441558 7.50100146 7.17634058 7.56145833 7.12694203 7.64248173 7.03664493 7.79073465 7.03233333 7.96558114 7.09047826 8.12675804 7.53802174 9.3674598 8.29236594 10.3322222 9.53028623 10.8518531 9.72837319 10.934989 9.92732246 11.0317946 10.155529 11.0049525 10.537721 10.959905 10.6614638 10.5370175 10.9292754 10.3160673 11.1910507 10.1001499 11.5255688 10.0972917 11.8075471 10.2772953 12.089587 10.4573611 12.3630036 10.6506615 12.6347572 10.8460124 12.9015217 11.0377595 13.1671159 11.2253436 13.4131848 11.4439327 13.6497681 11.6541338 13.7312572 11.9298867 13.598029 12.2151462 13.3541159 12.7375731 12.9992101 13.1722039 12.4872391 13.4496345 12.3426775 13.5278618 12.170029 13.5532127 12.0069891 13.6038523 11.8194964 13.5463779 12.170029 13.5532127 12.0069891 13.6038523zM9.35874638 3.75733553C11.6078587 3.82089912 13.4551304 5.32660453 13.8509964 7.56966009 13.918442 7.95184942 13.9424638 8.3426133 13.9724601 8.73051901 13.985087 8.89368421 13.8934964 9.0487098 13.7189384 9.05082237 13.5386522 9.05299708 13.4575326 8.90082968 13.4458297 8.73772661 13.4226703 8.41487573 13.4065942 8.09059576 13.3624928 7.77041667 13.1296667 6.08029605 11.7936884 4.6820212 10.1260254 4.38197368 9.87509058 4.3368019 9.61824275 4.32493421 9.36404348 4.29802997 9.2033442 4.28100512 8.99287681 4.27118787 8.95727536 4.06968567 8.92740217 3.90074196 9.06876087 3.76622076 9.22822826 3.75758406 9.27159058 3.75516082 9.31519928 3.75714912 9.35874638 3.75733553 11.6078587 3.82089912 9.31519928 3.75714912 9.35874638 3.75733553z"/>
      <path d="M12.7767319,8.22704313 C12.7730362,8.25537646 12.7710652,8.32198465 12.7546196,8.3847405 C12.6949348,8.61252558 12.3525942,8.64104532 12.2737536,8.41114766 C12.2504094,8.34292398 12.2468986,8.26531798 12.2467754,8.191875 C12.2459746,7.71132675 12.1424348,7.23127558 11.9022174,6.81317251 C11.6552862,6.38345029 11.2780217,6.02220029 10.835529,5.80361111 C10.5679638,5.67145102 10.2785942,5.58930921 9.9853442,5.54034722 C9.85716667,5.51897295 9.72763406,5.50598684 9.59884058,5.4879057 C9.44276087,5.46603436 9.35942391,5.36568713 9.36681522,5.21053728 C9.37371377,5.06514254 9.47903986,4.96057018 9.63610507,4.96951754 C10.1522645,4.99909357 10.650808,5.11161915 11.1096848,5.35673977 C12.042837,5.85524488 12.5758732,6.64211623 12.7314601,7.69281067 C12.7384819,7.7404057 12.7498152,7.78756579 12.7533877,7.83534722 C12.7621957,7.95334064 12.7677391,8.07145833 12.7767319,8.22704313 C12.7730362,8.25537646 12.7677391,8.07145833 12.7767319,8.22704313 Z"/>
      <path d="M11.3778043,8.17211623 C11.1896341,8.17553363 11.0889275,8.07046418 11.0695254,7.89642544 C11.0560362,7.77507675 11.0453804,7.65211257 11.0166775,7.53405702 C10.9601341,7.30154971 10.8376232,7.08606725 10.6437246,6.94359284 C10.5521957,6.87630117 10.448471,6.82727705 10.3398188,6.79565058 C10.2017862,6.75544956 10.0584565,6.7665095 9.92073188,6.7324598 C9.77118116,6.69548977 9.68846014,6.57333333 9.71198913,6.43179094 C9.73336232,6.30298611 9.85759783,6.20245249 9.9971087,6.21264254 C10.8690978,6.27614401 11.492308,6.73090643 11.58125,7.76644006 C11.5875326,7.83951023 11.5949239,7.91674342 11.5788478,7.98664474 C11.5513152,8.10631579 11.4634819,8.16627558 11.3778043,8.17211623 C11.1896341,8.17553363 11.4634819,8.16627558 11.3778043,8.17211623 Z"/>
    </g>
  </g>
</svg>
