<svg xmlns="http://www.w3.org/2000/svg" width="20" height="20" viewBox="0 0 20 20">
  <path fill="#7F8FA4" d="M4.66773864,4.32851173 L3.57762765,4.32851173 L10.7059666,0.832600517 C11.2599942,0.559586499 11.9329022,0.785988368 12.2087945,1.33423603 L12.6304836,2.17769398 L4.66773864,4.32851173 Z M15.102299,2.23984351 C15.5957649,2.23984351 16.0488563,2.56390893 16.1834379,3.05888556 L16.5333501,4.32851173 L13.7071364,4.32851173 L7.2225461,4.32851173 L12.9355576,2.78587155 L14.8062195,2.27979678 C14.9049127,2.25316126 15.0036283,2.23984351 15.102299,2.23984351 Z M17.701967,4.69809117 C18.3210424,4.69809117 18.8234804,5.19528743 18.8212374,5.80790426 L18.8212374,8.83769398 L18.5834765,8.83769398 L18.2358074,8.83769398 L17.8881382,8.83769398 L12.163934,8.83769398 C12.0876711,8.83769398 12.0114082,8.84215542 11.9373883,8.85101173 C11.493269,8.90206313 11.0962533,9.10626874 10.8001737,9.4081601 C10.4659403,9.7477629 10.2596043,10.2116426 10.2596043,10.7221566 L10.2596043,11.485708 L10.2596043,11.82975 L10.2596043,12.1737921 L10.2596043,13.1903809 C10.2596043,14.2313856 11.1141975,15.0770631 12.166177,15.0770631 L18.8212374,15.0770631 L18.8212374,18.1734416 C18.8212374,18.7860807 18.3188218,19.2832547 17.699724,19.2832547 L1.12151337,19.2832547 C0.502437989,19.2832547 0,18.7860807 0,18.1734416 L0,7.20626874 L0,5.94108183 L0,5.80790426 C0,5.70802108 0.0157011872,5.61035753 0.0403744813,5.51713323 C0.0807489626,5.36841827 0.152525818,5.23302108 0.246732941,5.11538089 C0.453091401,4.86012388 0.769358171,4.69809117 1.1237564,4.69809117 L1.79217836,4.69809117 L1.99180774,4.69809117 L3.06846058,4.69809117 L4.34698582,4.69809117 L14.0974231,4.69809117 L16.7509237,4.69809117 L17.0985928,4.69809117 L17.446262,4.69809117 L17.701967,4.69809117 Z M19.6322701,9.80552034 C19.8578713,10.0071752 20,10.29974 20,10.6233319 L20,13.0899976 C20,13.4135452 19.8578713,13.7060878 19.6322701,13.9077648 C19.5194695,14.0097115 19.3863648,14.0894958 19.237468,14.1382529 C19.1224114,14.1759289 19.0005867,14.1980912 18.8719941,14.1980912 L18.8426659,14.1980912 L12.1468227,14.1980912 C11.5241409,14.1980912 11.0188168,13.7016553 11.0188168,13.0899754 L11.0188168,11.8621832 L11.0188168,11.5186673 L11.0188168,11.1751514 L11.0188168,10.6233319 C11.0188168,10.0116299 11.5241409,9.51521617 12.1468227,9.51521617 L17.2093133,9.51521617 L18.470424,9.51521617 L18.8201058,9.51521617 L18.8426659,9.51521617 L18.8719941,9.51521617 C19.0005867,9.51521617 19.1223888,9.53737849 19.237468,9.57503226 C19.3863648,9.62600558 19.5194695,9.70357369 19.6322701,9.80552034 Z"/>
</svg>
