<svg xmlns="http://www.w3.org/2000/svg" width="34" height="34" viewBox="0 0 34 34">
  <g fill="none" fill-rule="evenodd">
    <rect width="33.98" height="33.98" fill="#1BD741" fill-rule="nonzero"/>
    <g fill="#FFF" fill-rule="nonzero" transform="translate(7 7)">
      <path d="M0.0306944444,19.8463816 L1.41772295,14.9201096 C0.525782164,13.4048355 0.0561695906,11.6807895 0.0561695906,9.9097076 C0.0561695906,4.45647295 4.49269737,0.0199451754 9.94593202,0.0199451754 C15.3991667,0.0199451754 19.8356323,4.45647295 19.8356323,9.9097076 C19.8356323,15.3629423 15.3991667,19.79947 9.94593202,19.79947 C8.24673977,19.79947 6.58290205,19.3645285 5.11099781,18.5386367 L0.0306944444,19.8463816 Z M5.37072003,16.7394079 L5.67343933,16.924258 C6.95676535,17.707712 8.43419956,18.1218385 9.94593202,18.1218385 C14.4741082,18.1218385 18.1580007,14.4378838 18.1580007,9.9097076 C18.1580007,5.38153143 14.4741082,1.69757675 9.94593202,1.69757675 C5.41775585,1.69757675 1.73380117,5.38153143 1.73380117,9.9097076 C1.73380117,11.487489 2.18222588,13.0196637 3.03048611,14.3405811 L3.23434942,14.6580263 L2.43561038,17.4949635 L5.37072003,16.7394079 Z"/>
      <path d="M7.16777412,5.30672149 L6.52604898,5.27173977 C6.32448465,5.26074196 6.12677266,5.32809576 5.97441886,5.46044225 C5.6633114,5.73060307 5.16586257,6.2529057 5.01307383,6.93352705 C4.78522661,7.94836988 5.13734284,9.19105994 6.04866959,10.43375 C6.95999635,11.6764401 8.65831871,13.6647442 11.6614656,14.5139364 C12.6292105,14.7875768 13.3904825,14.6030994 13.9778399,14.2273721 C14.4430409,13.9298099 14.7637171,13.452182 14.8792873,12.9122332 L14.9817471,12.4336732 C15.0143056,12.281568 14.9370724,12.1272259 14.7957785,12.0621089 L12.6269737,11.0624269 C12.4861769,10.9975585 12.3192215,11.0385673 12.2245285,11.1612829 L11.3730994,12.2650402 C11.3087902,12.3484247 11.1986879,12.3814803 11.0992727,12.3465607 C10.5162025,12.1416411 8.56306652,11.3236404 7.49137061,9.25928363 C7.44489401,9.16974781 7.45645102,9.06107456 7.52237573,8.98471126 L8.33608918,8.04337354 C8.41922515,7.94725146 8.44022661,7.81210892 8.39027047,7.69529605 L7.45539474,5.50809942 C7.405625,5.39165936 7.29409357,5.31361842 7.16777412,5.30672149 Z"/>
    </g>
  </g>
</svg>
