<svg xmlns="http://www.w3.org/2000/svg" xmlns:xlink="http://www.w3.org/1999/xlink" width="137" height="42" viewBox="0 0 137 42">
  <defs>
    <path id="logo-montis-header-a" d="M16.5331828,26.4392872 C16.0930023,26.4392872 15.7408578,26.0911728 15.7408578,25.6560298 L15.7408578,16.3352673 C15.7408578,15.9001243 16.0930023,15.5520099 16.5331828,15.5520099 C16.9733634,15.5520099 17.3255079,15.9001243 17.3255079,16.3352673 L17.3255079,25.6560298 C17.3255079,26.0911728 16.9645598,26.4392872 16.5331828,26.4392872 Z M25.961851,26.4392872 C25.5216704,26.4392872 25.169526,26.0911728 25.169526,25.6560298 L25.169526,16.3352673 C25.169526,15.9001243 25.5216704,15.5520099 25.961851,15.5520099 C26.4020316,15.5520099 26.7541761,15.9001243 26.7541761,16.3352673 L26.7541761,25.6560298 C26.7541761,26.0911728 26.4020316,26.4392872 25.961851,26.4392872 Z M21.2431151,24.6116867 C20.9702032,24.6116867 20.7148984,24.4724409 20.5740406,24.2461666 L15.8553047,16.7530046 C15.6264108,16.3874845 15.7408578,15.9001243 16.1106095,15.67385 C16.4803612,15.4475756 16.9733634,15.5607128 17.2022573,15.9262329 L21.2431151,22.3489432 L25.2839729,15.9262329 C25.5128668,15.5607128 26.0058691,15.4475756 26.3756208,15.67385 C26.7453725,15.9001243 26.8598194,16.3874845 26.6309255,16.7530046 L21.9121896,24.2461666 C21.7713318,24.4724409 21.5160271,24.6116867 21.2431151,24.6116867 Z M21.2431151,42 C9.5255079,42 -7.10542736e-15,32.5748031 -7.10542736e-15,21 C-7.10542736e-15,9.42519685 9.53431151,0 21.2431151,0 C32.9607223,0 42.4862302,9.42519685 42.4862302,21 C42.4862302,32.5748031 32.9607223,42 21.2431151,42 Z M21.2431151,1.55781185 C10.4058691,1.55781185 1.58465011,10.2780771 1.58465011,20.9912971 C1.58465011,31.7045172 10.4058691,40.4247824 21.2431151,40.4247824 C32.0803612,40.4247824 40.9015801,31.7045172 40.9015801,20.9912971 C40.9103837,10.2780771 32.0891648,1.55781185 21.2431151,1.55781185 Z M36.7990971,38.5710734 C35.6458239,38.5710734 34.4925508,38.4579362 33.3656885,38.2403647 C32.9343115,38.1533361 32.6525959,37.7443017 32.7406321,37.3178616 C32.8286682,36.8914215 33.2424379,36.61293 33.6738149,36.6999586 C34.6950339,36.9001243 35.7514673,36.9958558 36.8079007,36.9958558 C45.734763,36.9958558 53.0065463,29.8159967 53.0065463,20.9825943 C53.0065463,12.1578947 45.7435666,4.96933278 36.8079007,4.96933278 C35.73386,4.96933278 34.6598194,5.07376709 33.6209932,5.28263572 C33.1896163,5.36966432 32.7758465,5.09117281 32.6878104,4.6647327 C32.5997743,4.23829258 32.8814898,3.82925818 33.3128668,3.74222959 C34.4573363,3.51595524 35.6370203,3.40281807 36.8167043,3.40281807 C46.6239278,3.40281807 54.6,11.2876088 54.6,20.9825943 C54.5823928,30.6862826 46.6063205,38.5710734 36.7990971,38.5710734 Z M21.2431151,37.5441359 C12.01693,37.5441359 4.50744921,30.1205968 4.50744921,21 C4.50744921,11.8794032 12.01693,4.45586407 21.2431151,4.45586407 C21.7625282,4.45586407 22.2819413,4.48197265 22.8013544,4.52548695 C23.2327314,4.56900124 23.558465,4.95192706 23.514447,5.37836718 C23.4704289,5.80480729 23.08307,6.1268131 22.651693,6.0832988 C22.1851016,6.0397845 21.7097065,6.01367592 21.2431151,6.01367592 C12.8884876,6.01367592 6.09209932,12.7322835 6.09209932,20.9912971 C6.09209932,29.2503108 12.8884876,35.9689184 21.2431151,35.9689184 C29.5977427,35.9689184 36.4029345,29.2590137 36.4029345,21 C36.4029345,17.1011189 34.8975169,13.4024036 32.1507901,10.6000829 C31.8426637,10.2867799 31.8602709,9.79071695 32.1683973,9.49481973 C32.4853273,9.19021964 32.9871332,9.20762536 33.286456,9.51222545 C36.3148984,12.6104434 37.9875847,16.6920845 37.9875847,21 C37.9875847,30.1205968 30.4781038,37.5441359 21.2431151,37.5441359 Z M15.3446953,32.3572317 C15.2126411,32.3572317 15.0805869,32.3224202 14.96614,32.2615002 C11.5503386,30.3990883 9.18216704,27.1529217 8.46027088,23.3671778 C8.38103837,22.9407377 8.66275395,22.5317033 9.09413093,22.4533775 C9.5255079,22.3750518 9.93927765,22.6535433 10.0185102,23.0799834 C10.6523702,26.4131786 12.7300226,29.2590137 15.7320542,30.8951513 C16.1194131,31.1040199 16.2514673,31.5826772 16.0401806,31.9569001 C15.8905192,32.2092831 15.6264108,32.3572317 15.3446953,32.3572317 Z M30.0027088,8.60712806 C29.8530474,8.60712806 29.703386,8.56361376 29.5713318,8.47658516 C28.479684,7.76295068 27.2911964,7.19726482 26.0498871,6.78823042 C25.6361174,6.64898467 25.4072235,6.20513883 25.5480813,5.79610443 C25.6889391,5.38707004 26.1379233,5.16079569 26.551693,5.30004144 C27.9250564,5.75259014 29.227991,6.37919602 30.4428894,7.17115624 C30.8126411,7.40613344 30.9094808,7.89349358 30.6717833,8.25901368 C30.5133183,8.48528802 30.2668172,8.60712806 30.0027088,8.60712806 Z M45.9988713,30.8690427 C45.7963883,30.8690427 45.5939052,30.7907169 45.4354402,30.6427683 L43.9036117,29.1284708 C43.5954853,28.8238707 43.5954853,28.3278077 43.9036117,28.0232076 C44.2117381,27.7186075 44.713544,27.7186075 45.0216704,28.0232076 L46.5534989,29.5375052 C46.8616253,29.8421053 46.8616253,30.3381683 46.5534989,30.6427683 C46.4038375,30.7907169 46.2013544,30.8690427 45.9988713,30.8690427 Z M41.676298,33.697472 C41.3593679,33.697472 41.0688488,33.514712 40.9455982,33.2101119 L40.179684,31.3302942 C40.0124153,30.9299627 40.2148984,30.4687111 40.6198646,30.3120597 C41.0248307,30.1467053 41.4914221,30.3468711 41.6498871,30.7472027 L42.4158014,32.6270203 C42.58307,33.0273518 42.3805869,33.4886034 41.9756208,33.6452549 C41.8699774,33.6800663 41.7731377,33.697472 41.676298,33.697472 Z M48.772009,26.8048073 C48.6663657,26.8048073 48.5607223,26.7874016 48.4638826,26.7438873 L46.4126411,25.8823042 C46.0076749,25.7169499 45.8227991,25.2556983 45.9900677,24.8553668 C46.1573363,24.4550352 46.6239278,24.2722752 47.0288939,24.4376295 L49.0801354,25.2992126 C49.4851016,25.4645669 49.6699774,25.9258185 49.5027088,26.32615 C49.3706546,26.6220472 49.0801354,26.8048073 48.772009,26.8048073 Z M49.8020316,21.7832574 L47.5395034,21.7832574 C47.0993228,21.7832574 46.7471783,21.435143 46.7471783,21 C46.7471783,20.564857 47.0993228,20.2167426 47.5395034,20.2167426 L49.8020316,20.2167426 C50.2422122,20.2167426 50.5943567,20.564857 50.5943567,21 C50.5943567,21.435143 50.2422122,21.7832574 49.8020316,21.7832574 Z M44.4670429,14.2030667 C44.2645598,14.2030667 44.0620767,14.124741 43.9036117,13.9767924 C43.5954853,13.6721923 43.5954853,13.1761293 43.9036117,12.8715292 L45.4354402,11.3572317 C45.7435666,11.0526316 46.2453725,11.0526316 46.5534989,11.3572317 C46.8616253,11.6618317 46.8616253,12.1578947 46.5534989,12.4624948 L45.030474,13.9767924 C44.872009,14.124741 44.669526,14.2030667 44.4670429,14.2030667 Z M46.7823928,17.7973477 C46.4654628,17.7973477 46.1749436,17.6145877 46.051693,17.3099876 C45.8844244,16.909656 46.0869074,16.4484045 46.4918736,16.291753 L48.5607223,15.4649814 C48.9656885,15.299627 49.4322799,15.4997928 49.5907449,15.9001243 C49.7580135,16.3004559 49.5555305,16.7617074 49.1505643,16.9183589 L47.0817156,17.7451305 C46.9848758,17.7712391 46.8880361,17.7973477 46.7823928,17.7973477 Z M41.0776524,11.8184832 C40.972009,11.8184832 40.8663657,11.8010775 40.769526,11.7575632 C40.3645598,11.5922089 40.179684,11.1309573 40.3469526,10.7306258 L41.1568849,8.85951098 C41.3241535,8.45917944 41.7907449,8.27641939 42.1957111,8.44177373 C42.6006772,8.60712806 42.785553,9.06837961 42.6182844,9.46871115 L41.8171558,11.3398259 C41.6851016,11.6357232 41.3857788,11.8184832 41.0776524,11.8184832 Z M76.3486957,26.4052174 L76.3486957,15.5785507 L73.6704348,15.5785507 L70.7162319,22.7043478 L67.7782609,15.5785507 L65.1,15.5785507 L65.1,26.4052174 L66.9991304,26.4052174 L66.9991304,18.3704348 L70.3104348,26.4052174 L71.122029,26.4052174 L74.4495652,18.3704348 L74.4495652,26.4052174 L76.3486957,26.4052174 Z M84.2614591,26.6 C81.0150823,26.6 78.7263866,24.2301449 78.7263866,21 C78.7263866,17.7698551 81.0150823,15.4 84.2614591,15.4 C87.5078359,15.4 89.7965316,17.7698551 89.7965316,21 C89.7965316,24.2301449 87.5078359,26.6 84.2614591,26.6 Z M84.2614591,24.9118841 C86.4365316,24.9118841 87.8487055,23.2237681 87.8487055,21 C87.8487055,18.76 86.4365316,17.0881159 84.2614591,17.0881159 C82.0701547,17.0881159 80.6742127,18.76 80.6742127,21 C80.6742127,23.2237681 82.0701547,24.9118841 84.2614591,24.9118841 Z M101.621179,26.4052174 L101.621179,15.5785507 L99.7220486,15.5785507 L99.7220486,20.0098551 L94.0895848,20.0098551 L94.0895848,15.5785507 L92.1904544,15.5785507 L92.1904544,26.4052174 L94.0895848,26.4052174 L94.0895848,21.6817391 L99.7220486,21.6817391 L99.7220486,26.4052174 L101.621179,26.4052174 Z M108.965827,26.4052174 L108.965827,17.2504348 L112.244667,17.2504348 L112.244667,15.5785507 L103.787856,15.5785507 L103.787856,17.2504348 L107.066696,17.2504348 L107.066696,26.4052174 L108.965827,26.4052174 Z M116.245546,26.4052174 L121.894242,18.6788406 L121.894242,26.4052174 L123.793373,26.4052174 L123.793373,15.5785507 L121.845546,15.5785507 L116.310474,23.093913 L116.310474,15.5785507 L114.411344,15.5785507 L114.411344,26.4052174 L116.245546,26.4052174 Z M131.852223,26.6 C134.043527,26.6 135.374542,25.4637681 136.202368,24.1652174 L134.579179,23.3373913 C134.059759,24.2463768 133.020919,24.9118841 131.852223,24.9118841 C129.709614,24.9118841 128.11889,23.2724638 128.11889,21 C128.11889,18.7275362 129.709614,17.0881159 131.852223,17.0881159 C133.020919,17.0881159 134.059759,17.7698551 134.579179,18.6626087 L136.202368,17.8347826 C135.390774,16.5362319 134.043527,15.4 131.852223,15.4 C128.654542,15.4 126.171064,17.6724638 126.171064,21 C126.171064,24.3275362 128.654542,26.6 131.852223,26.6 Z"/>
  </defs>
  <g fill="none" fill-rule="evenodd">
    <use fill="#585BD3" fill-rule="nonzero" xlink:href="#logo-montis-header-a"/>
  </g>
</svg>
